<?xml version="1.0" encoding="UTF-8" standalone="no"?>
<!-- Created with Inkscape (http://www.inkscape.org/) -->

<svg
        xmlns:dc="http://purl.org/dc/elements/1.1/"
        xmlns:cc="http://creativecommons.org/ns#"
        xmlns:rdf="http://www.w3.org/1999/02/22-rdf-syntax-ns#"
        xmlns:sodipodi="http://sodipodi.sourceforge.net/DTD/sodipodi-0.dtd"
        xmlns:inkscape="http://www.inkscape.org/namespaces/inkscape"
        xmlns="http://www.w3.org/2000/svg"
        width="676"
        height="507"
        viewBox="0 0 178.85833 134.14375"
        version="1.1"
        id="svg8535"
        inkscape:version="0.92.1 r15371"
        sodipodi:docname="art.svg"
        inkscape:export-filename="C:\Users\Алексей\Desktop\ПФДО\диз\default-program-image\robot.png"
        inkscape:export-xdpi="95"
        inkscape:export-ydpi="95">
    <defs
            id="defs8529"/>
    <sodipodi:namedview
            id="base"
            pagecolor="#ffffff"
            bordercolor="#666666"
            borderopacity="1.0"
            inkscape:pageopacity="0.0"
            inkscape:pageshadow="2"
            inkscape:zoom="0.70000001"
            inkscape:cx="368.85074"
            inkscape:cy="265.76063"
            inkscape:document-units="mm"
            inkscape:current-layer="layer1"
            showgrid="false"
            units="px"
            gridtolerance="4"
            objecttolerance="5"
            guidetolerance="4"
            inkscape:window-width="1366"
            inkscape:window-height="706"
            inkscape:window-x="-8"
            inkscape:window-y="-8"
            inkscape:window-maximized="1"/>
    <metadata
            id="metadata8532">
        <rdf:RDF>
            <cc:Work
                    rdf:about="">
                <dc:format>image/svg+xml</dc:format>
                <dc:type
                        rdf:resource="http://purl.org/dc/dcmitype/StillImage"/>
                <dc:title></dc:title>
            </cc:Work>
        </rdf:RDF>
    </metadata>
    <g
            inkscape:label="Layer 1"
            inkscape:groupmode="layer"
            id="layer1"
            transform="translate(0,-162.85624)">
        <rect
                style="opacity:1;fill:#008080;fill-opacity:1;stroke:none;stroke-width:0.63653022;stroke-miterlimit:4;stroke-dasharray:none;stroke-opacity:1"
                id="rect13012"
                width="178.85834"
                height="134.14375"
                x="-1.2011719e-006"
                y="162.85623"/>
        <path
                style="fill:#ffffff;stroke-width:0.04134392"
                d="m 66.660891,205.05837 c -0.19076,0.002 -0.351447,0.0233 -0.406056,0.0584 -0.04093,0.0263 -0.0408,0.0335 3.28e-4,0.0625 0.02975,0.021 0.160402,0.0262 0.363711,0.0144 0.174546,-0.0102 0.317417,-0.009 0.317427,0.002 0,0.0301 -0.121495,0.13445 -0.321202,0.27558 -0.09639,0.0681 -0.20968,0.17287 -0.25161,0.2329 -0.08528,0.12189 -0.135628,0.30889 -0.08338,0.30888 0.06773,0 0.186373,-0.0598 0.267532,-0.13507 0.117392,-0.10881 0.263117,-0.13735 0.318082,-0.0622 0.02327,0.0318 0.0506,0.0927 0.06073,0.13524 0.0285,0.11984 0.07037,0.15494 0.185466,0.15494 0.113818,0 0.253832,-0.06 0.316442,-0.13541 0.03018,-0.0363 0.0836,-0.0427 0.245373,-0.0292 0.164922,0.0138 0.269563,5.5e-4 0.516188,-0.0652 0.229482,-0.0612 0.395137,-0.084 0.641745,-0.0887 l 0.332363,-0.006 0.173977,0.16988 c 0.09567,0.0935 0.293188,0.33728 0.438882,0.54162 0.486209,0.68194 0.788434,1.00815 1.354561,1.46174 0.170286,0.13643 0.40716,0.33796 0.526363,0.4479 0.340286,0.31389 0.766053,0.63963 1.260842,0.96476 0.250683,0.16473 0.619903,0.43496 0.820483,0.60038 0.746924,0.61603 1.053484,0.85504 1.339953,1.04485 0.337016,0.22331 0.387647,0.27285 0.416233,0.40754 0.02387,0.11239 -0.03486,0.963 -0.07779,1.12937 -0.01593,0.0616 -0.03044,0.34029 -0.03266,0.61926 -0.0034,0.47019 0.0022,0.52459 0.07713,0.74679 0.11395,0.33794 0.945842,1.97756 1.13315,2.23347 0.136607,0.18669 0.156194,0.23266 0.15937,0.37159 0.0044,0.20087 0.09798,1.25704 0.166427,1.87698 0.0085,0.0767 0.02423,0.39697 0.03496,0.712 0.01072,0.31503 0.03226,0.5778 0.04792,0.58364 0.01585,0.006 0.01308,0.0292 -0.0062,0.0525 -0.04086,0.0492 -0.0074,0.39459 0.03561,0.36798 0.01509,-0.009 0.02655,0.0221 0.02528,0.0699 -0.0016,0.0636 -0.0078,0.0727 -0.02331,0.0338 -0.03018,-0.0761 -0.0096,1.66395 0.02642,2.23593 0.01663,0.26394 0.05067,0.70297 0.07567,0.97542 0.05418,0.59055 0.06019,1.30717 0.01346,1.59091 -0.08818,0.53541 -0.164261,0.8369 -0.258832,1.02581 -0.08493,0.16965 -0.408138,0.63945 -0.553444,0.80439 -0.122547,0.13913 -0.20665,0.27725 -0.20664,0.33943 0,0.1027 0.205732,0.36616 0.336301,0.43067 0.194667,0.0962 0.769645,0.16807 1.146445,0.14345 0.325636,-0.0213 0.330815,-0.0205 0.365845,0.051 0.01954,0.04 0.04394,0.12364 0.05416,0.18595 0.01306,0.0797 0.05606,0.14721 0.144926,0.22749 0.167844,0.15164 0.2817,0.19506 0.572812,0.21878 0.237702,0.0194 0.24843,0.0172 0.456116,-0.0935 0.143912,-0.0767 0.243901,-0.11028 0.309547,-0.10389 0.09388,0.009 0.09727,0.0147 0.106357,0.17299 0.0052,0.09 -0.03229,0.39648 -0.08322,0.68113 -0.107587,0.60135 -0.14833,0.9047 -0.173485,1.29154 -0.01,0.15326 -0.03081,0.3274 -0.04612,0.38702 -0.176423,0.68293 -0.505473,1.5163 -0.768946,1.94723 -0.630326,1.03096 -0.615073,0.9924 -0.654057,1.65148 -0.01749,0.29556 -0.06264,0.67002 -0.10931,0.90615 -0.07113,0.35996 -0.07587,0.42543 -0.04481,0.61926 0.05519,0.3443 0.32239,1.19206 0.375692,1.19207 0.01334,0 0.02422,0.0243 0.0243,0.0541 1.14e-4,0.0553 0.09846,0.23451 0.165277,0.30134 0.02032,0.0203 0.07842,0.0524 0.12917,0.0712 h 1.65e-4 c 0.05084,0.0188 0.161937,0.0315 0.247014,0.0282 l 0.154774,-0.006 0.01888,-0.2631 c 0.01034,-0.14474 0.04291,-0.36072 0.07255,-0.47991 0.100987,-0.40697 0.112098,-0.52667 0.103237,-1.12002 -0.0075,-0.50257 -0.0014,-0.60251 0.03955,-0.65028 0.02662,-0.0311 0.273166,-0.27935 0.547864,-0.55181 0.616115,-0.6111 0.612594,-0.60229 0.401624,-1.02022 -0.193208,-0.38273 -0.255272,-0.58299 -0.214188,-0.69115 0.01759,-0.0464 0.0409,-0.13756 0.0517,-0.20254 0.03114,-0.18763 0.34911,-0.82704 0.695581,-1.39887 0.464406,-0.76649 0.597637,-1.03593 0.759263,-1.53495 0.338798,-1.04594 0.377742,-1.29665 0.313159,-2.01074 l -0.02659,-0.29445 0.100776,-0.16364 c 0.100543,-0.16339 0.100544,-0.1639 0.05088,-0.29396 -0.02736,-0.0717 -0.0576,-0.21373 -0.06713,-0.31577 -0.02573,-0.27568 0.04648,-0.38105 0.438882,-0.64126 0.172561,-0.11444 0.379961,-0.26982 0.460876,-0.34517 0.09216,-0.0858 0.227369,-0.16846 0.361905,-0.22124 0.174476,-0.0685 0.252752,-0.12381 0.417217,-0.29511 0.171843,-0.17897 0.226485,-0.21656 0.361578,-0.24833 0.322046,-0.0757 0.546042,-0.19642 0.546058,-0.29428 0,-0.0208 0.07028,-0.083 0.156087,-0.13803 0.08581,-0.055 0.207257,-0.16244 0.269829,-0.23881 0.06258,-0.0764 0.212206,-0.20538 0.332526,-0.28657 0.268692,-0.1813 0.282857,-0.19859 0.306266,-0.36994 0.01931,-0.14137 0.03988,-0.17047 0.349596,-0.49715 0.196762,-0.20755 0.213795,-0.25066 0.258175,-0.65488 0.02915,-0.26483 0.06161,-0.38456 0.187928,-0.69181 0.08402,-0.20434 0.184161,-0.4236 0.22256,-0.48714 0.07598,-0.12571 0.386104,-0.45726 0.427722,-0.45726 0.01417,0 0.04282,-0.0593 0.06384,-0.13163 0.02095,-0.0724 0.10688,-0.215 0.191047,-0.3171 0.08417,-0.1021 0.181763,-0.24478 0.216815,-0.31693 0.05425,-0.11165 0.08711,-0.13891 0.220425,-0.18284 0.190567,-0.0628 0.323428,-0.2002 0.459235,-0.47516 0.06886,-0.13942 0.19182,-0.297 0.402774,-0.51602 0.309679,-0.32151 0.362725,-0.4139 0.362725,-0.63173 4e-6,-0.0869 0.01988,-0.12525 0.0929,-0.17924 l 0.0929,-0.0686 v -0.43018 -0.43035 l 0.131632,-0.12523 0.131467,-0.12539 9.8e-4,-0.31825 c 8.45e-4,-0.32258 0.09566,-0.77249 0.216487,-1.02712 0.09608,-0.20248 0.309818,-0.27266 1.37721,-0.45201 0.902196,-0.1516 1.631304,-0.43392 2.279102,-0.88269 0.134345,-0.0931 0.410865,-0.28095 0.614501,-0.41738 l 0.370276,-0.248 h 0.268351 c 0.200816,0 0.278083,-0.0117 0.306922,-0.0465 0.0212,-0.0256 0.06308,-0.0465 0.0929,-0.0465 0.02983,0 0.117742,-0.0355 0.195477,-0.079 0.137336,-0.0767 0.15522,-0.0788 0.630913,-0.0698 l 0.489599,0.009 0.188913,-0.10258 c 0.103989,-0.0564 0.291839,-0.18437 0.417381,-0.28444 0.15023,-0.11974 0.27619,-0.19336 0.368307,-0.21534 0.202733,-0.0483 0.652632,-0.22019 0.74843,-0.28575 0.0452,-0.0309 0.09972,-0.0562 0.121128,-0.0562 0.0471,0 0.415906,-0.27553 0.641746,-0.47943 0.274825,-0.24811 0.536818,-0.59061 0.554921,-0.72545 0.02029,-0.15128 -0.108338,-0.44932 -0.255384,-0.59185 l -0.103895,-0.10078 -0.241762,0.0212 c -0.132905,0.0117 -0.353038,0.0538 -0.48927,0.0937 -0.13623,0.04 -0.317465,0.0889 -0.40261,0.10866 -0.431165,0.1004 -0.68363,0.26044 -1.259037,0.79799 -0.497803,0.46506 -0.595785,0.52036 -1.392967,0.78471 -0.657201,0.21792 -1.170069,0.34761 -2.007631,0.50798 -2.491929,0.47716 -3.360854,0.67149 -3.665667,0.81999 -0.135582,0.0661 -0.23979,0.0946 -0.346314,0.0947 -0.213551,3.1e-4 -0.699116,0.0768 -0.789134,0.12425 -0.04134,0.0218 -0.160992,0.10065 -0.265889,0.17512 -0.241149,0.17122 -0.573952,0.32542 -0.927004,0.42954 -0.26159,0.0771 -0.29873,0.0801 -0.729556,0.0609 -0.453324,-0.0203 -0.454128,-0.0201 -0.68524,0.0724 -0.294526,0.11794 -0.601816,0.2081 -0.857904,0.25178 -0.110688,0.0189 -0.321837,0.0755 -0.469246,0.12573 -0.147419,0.0502 -0.377213,0.10624 -0.510771,0.12441 -0.133562,0.0182 -0.340364,0.0536 -0.459563,0.0786 -0.480068,0.10071 -0.574927,0.1066 -0.928808,0.0581 -0.557091,-0.0764 -0.669595,-0.1034 -0.779123,-0.18695 -0.188911,-0.14409 -0.423129,-0.226 -0.737597,-0.25817 -0.239974,-0.0245 -0.32488,-0.0473 -0.436749,-0.11735 -0.133694,-0.0837 -0.321112,-0.32421 -0.323334,-0.41476 -5.79e-4,-0.024 -0.028,-0.0995 -0.0609,-0.16758 -0.03753,-0.0776 -0.06025,-0.19119 -0.0609,-0.30445 -8.9e-4,-0.15514 0.01872,-0.21828 0.138361,-0.44693 0.07664,-0.14644 0.139338,-0.28254 0.139345,-0.30233 8e-6,-0.0198 0.01982,-0.0765 0.04399,-0.12588 0.02656,-0.0543 0.05091,-0.23819 0.06155,-0.46433 0.02784,-0.59099 0.128507,-0.79953 0.473842,-0.981 0.33673,-0.17694 2.213852,-0.82024 2.826309,-0.96852 0.905697,-0.2193 1.347788,-0.34009 2.012555,-0.55 1.065588,-0.33649 1.885229,-0.63179 1.983669,-0.71462 0.0475,-0.04 0.149073,-0.082 0.225842,-0.0936 0.116432,-0.0174 0.159221,-0.009 0.257683,0.0535 0.242229,0.15283 0.398785,0.21548 0.603012,0.2411 0.115845,0.0145 0.279469,0.0615 0.365024,0.10489 0.169994,0.0862 0.485974,0.17005 0.643879,0.17069 0.08507,3.9e-4 0.100609,-0.0109 0.100612,-0.0722 6e-6,-0.1036 -0.08849,-0.17 -0.273111,-0.205 -0.213104,-0.0404 -0.342279,-0.11075 -0.378483,-0.20598 -0.02379,-0.0625 -0.014,-0.1048 0.04924,-0.21272 0.06733,-0.11488 0.09815,-0.13812 0.2091,-0.15739 0.249776,-0.0435 0.585667,-0.0224 0.780765,0.0488 0.349071,0.12743 0.569514,0.18773 0.779778,0.21337 0.254279,0.031 0.28788,0.0209 0.287884,-0.087 0,-0.046 -0.01745,-0.10664 -0.03874,-0.13475 -0.02129,-0.0281 -0.212895,-0.11212 -0.425752,-0.18695 -0.30212,-0.10618 -0.448013,-0.14029 -0.665544,-0.15493 -0.164818,-0.0111 -0.345329,-0.0445 -0.441673,-0.0819 -0.19398,-0.0753 -0.33656,-0.0789 -0.688524,-0.0169 -0.160656,0.0283 -0.456751,0.0464 -0.760247,0.0465 -0.361868,2e-5 -0.587799,0.0167 -0.830002,0.0613 -0.18301,0.0336 -0.342858,0.0675 -0.35534,0.0751 -0.05435,0.0336 -0.979599,0.20406 -1.289894,0.23766 -0.187316,0.0203 -0.633085,0.0385 -0.990685,0.0403 l -0.650282,0.004 -0.314964,0.11997 c -0.173233,0.066 -0.437931,0.1882 -0.588239,0.27148 -0.931709,0.51618 -0.970322,0.52398 -2.527594,0.52177 -0.807151,-8.9e-4 -1.187787,-0.0124 -1.226047,-0.0363 -0.0921,-0.0575 -0.156883,-0.21657 -0.163965,-0.40277 -0.0084,-0.21925 0.04283,-0.28437 0.264412,-0.33647 0.37671,-0.0886 0.469849,-0.16977 0.702146,-0.61121 0.153571,-0.29183 0.302608,-0.44525 0.49879,-0.51389 0.365673,-0.12792 0.432755,-0.19347 0.479094,-0.46777 0.01151,-0.0681 0.04621,-0.17428 0.07714,-0.23585 0.03093,-0.0615 0.07238,-0.17596 0.09208,-0.25441 0.03402,-0.13512 0.0308,-0.15186 -0.06253,-0.31725 -0.05418,-0.096 -0.111102,-0.25137 -0.12638,-0.34533 -0.04151,-0.2549 -0.09386,-0.31776 -0.265068,-0.31776 -0.122853,0 -0.157316,-0.016 -0.267367,-0.12392 -0.113895,-0.11164 -0.141846,-0.12379 -0.283944,-0.12392 -0.121077,-1.2e-4 -0.254531,-0.0407 -0.575603,-0.17446 -0.404488,-0.16857 -0.429019,-0.17451 -0.758605,-0.18809 -0.420704,-0.0174 -0.686226,0.0337 -1.018424,0.1958 -0.328879,0.16045 -0.490214,0.30954 -0.60892,0.56313 -0.159377,0.34045 -0.171034,0.35709 -0.343359,0.49042 l -0.165607,0.12818 -0.01707,0.35173 c -0.0094,0.19345 -0.0049,0.36836 0.01002,0.38866 0.01716,0.0233 0.0026,0.07 -0.03972,0.1272 -0.05126,0.0693 -0.06818,0.1393 -0.07205,0.29954 -0.0046,0.18994 0.002,0.21429 0.07238,0.26654 0.04257,0.0316 0.156021,0.0775 0.251939,0.10225 0.09595,0.0246 0.222631,0.0763 0.281482,0.1149 0.156362,0.1025 0.333502,0.35517 0.33351,0.47565 1.47e-4,0.12985 -0.06368,0.45613 -0.09766,0.50009 -0.03659,0.0474 -0.201836,0.52926 -0.226991,0.66211 -0.02816,0.14869 -0.100649,0.22759 -0.267531,0.29133 -0.120083,0.0459 -0.162452,0.0487 -0.277871,0.0177 -0.198951,-0.0534 -0.601637,-0.24156 -0.832793,-0.38915 -0.265782,-0.1697 -0.455147,-0.26362 -0.841163,-0.41689 -0.403839,-0.16034 -1.029481,-0.47205 -1.171393,-0.58364 -0.0596,-0.0468 -0.210795,-0.1389 -0.336137,-0.20451 -0.261682,-0.13701 -0.616456,-0.4563 -0.945713,-0.85117 -0.301028,-0.36102 -0.424474,-0.46904 -0.730376,-0.63929 -0.383394,-0.21336 -1.18213,-0.74604 -1.486028,-0.99101 -0.144554,-0.11653 -0.385234,-0.32776 -0.534898,-0.46941 -0.45659,-0.43213 -0.633775,-0.48014 -1.973329,-0.53425 -0.46829,-0.0189 -0.962952,-0.0411 -1.099175,-0.0496 -0.06746,-0.004 -0.134353,-0.006 -0.19794,-0.005 z m -8.722495,6.71683 c -0.130986,-0.004 -0.17274,0.14542 -0.04809,0.63567 0.06952,1.20321 0.09107,2.39302 0.09667,3.60215 h -5.797219 c 0.833453,0.51996 1.353715,2.1605 2.494604,1.56826 1.082174,-0.25985 2.203406,-0.11999 3.303927,-0.15527 -0.252996,1.02082 0.520554,3.06817 -0.411144,3.41029 -1.986507,-0.0782 -4.082359,0.1512 -6.005662,-0.10488 -0.876377,-0.48189 -1.953978,-2.40155 -2.524803,-0.69132 -0.913325,0.68367 -2.475008,0.12112 -3.648926,0.30397 -1.610374,-0.36132 0.631669,1.55383 1.166139,1.70268 0.667556,-0.11998 1.798726,-0.55452 2.171762,-0.0842 -0.07207,3.18673 0.132929,6.39941 -0.08059,9.57317 -0.80548,0.79359 0.217091,1.27283 0.824587,1.94592 0.650588,0.86503 1.166431,1.2322 1.384431,0.0331 0.994536,-1.95592 2.56143,-3.55082 3.851463,-5.31106 -0.8375,-1.57389 -1.751317,0.16441 -2.640352,0.81818 -1.359205,1.81104 -1.198074,0.17855 -1.139221,-1.22243 v -5.87322 c 0.829349,-1.46671 1.288796,1.04395 2.254153,0.55313 2.677775,-0.52312 5.450016,-0.0876 8.162978,-0.23028 0.05544,0.97787 0.07418,1.93808 0.07878,2.91806 H 51.206134 c 0.833166,0.5203 1.35306,2.16074 2.494111,1.56825 0.634441,-0.15216 2.297099,-0.35909 0.953428,0.28822 -0.07552,0.6136 0.77851,1.43708 1.000697,2.20951 0.584453,0.87138 0.360397,2.13267 1.091297,2.88244 1.078213,0.40823 1.937119,-1.13475 1.777358,-2.06934 -0.354335,-1.61703 -1.84755,-2.62346 -3.153419,-3.46625 h 6.063434 c -0.09771,2.02407 0.178972,4.14475 -0.105207,6.12087 -1.155887,0.13616 -2.365138,-0.0591 -3.536661,-0.0747 -0.379468,1.22717 0.584394,1.31165 1.516392,1.56021 0.828501,0.24915 1.628446,0.92594 1.488326,1.88552 1.519386,-0.2882 3.028433,-1.53062 2.837306,-3.21119 v -6.28074 h 5.860406 c -0.90336,-0.95291 -1.806475,-1.90619 -2.709449,-2.85947 -0.867799,0.94695 -1.769634,1.80735 -3.150957,1.44664 -0.970518,-1.38821 1.975915,-1.98462 0.755651,-2.47179 -2.117086,-0.73457 0.865409,-0.35579 1.698741,-0.44627 0.769832,-0.21441 3.72063,0.4745 2.809731,-0.43609 -0.903676,-0.57964 -1.761407,-2.4346 -2.69599,-2.156 -0.86008,1.14021 -2.064589,1.35718 -3.416354,1.17927 -1.130689,-0.14594 -3.177711,0.62437 -2.596529,-1.23344 -0.162041,-1.43585 -0.159478,-2.70708 1.644577,-2.17685 h 5.53182 c -0.91769,-0.91768 -1.835422,-1.83541 -2.753108,-2.7531 -0.851236,1.08391 -1.917365,1.61868 -3.301464,1.34011 -1.56432,0.64643 -1.485884,-1.78809 -0.503057,-2.30601 1.235274,-0.80476 -1.416969,-1.00356 -1.963973,-1.53068 -0.331364,-0.0657 -0.713405,-0.39607 -0.904845,-0.40113 z m -9.598291,1.21866 c -0.06464,-0.006 -0.131529,0.0272 -0.209101,0.13574 -1.155255,0.36869 0.0306,1.20187 0.265069,1.90702 0.731107,0.96581 0.475664,2.40806 1.360634,3.24139 1.031619,0.44335 1.898182,-0.96042 1.867792,-1.86911 -0.137251,-1.57578 -1.801199,-2.3924 -2.941034,-3.22218 -0.134155,-0.0629 -0.235631,-0.18257 -0.34336,-0.19286 z m 65.014965,1.97727 -0.20516,0.13869 c -2.57022,1.73674 -3.5509,2.32107 -5.34144,3.18312 -3.51128,1.69054 -6.72998,2.40789 -10.26334,2.28748 -0.891191,-0.0304 -1.467645,-0.0212 -1.467645,0.0231 -3e-6,0.11574 1.04571,2.69859 1.522958,3.76185 0.238683,0.53176 0.433791,1.00944 0.433793,1.06143 10e-6,0.052 -0.297121,0.26115 -0.660293,0.46497 -0.756776,0.42474 -1.752954,1.30378 -2.048006,1.80723 -0.423064,0.7219 -0.520951,1.59684 -0.299209,2.67039 0.264347,1.2798 0.569904,1.77998 1.203725,1.96988 0.469838,0.14076 0.628942,0.43982 0.630422,1.18452 9.79e-4,0.46366 0.04285,0.67743 0.200894,1.01744 0.0639,0.13748 0.127857,0.25599 0.191867,0.35731 -0.873771,-0.42532 -1.896058,-0.58024 -2.885231,-0.40967 -0.224446,0.0387 -0.451944,0.07 -0.505518,0.0698 -0.08535,-5.2e-4 -0.157464,-0.20891 -0.583153,-1.68381 -0.267126,-0.9258 -0.491266,-1.76039 -0.497968,-1.85482 -0.0083,-0.11615 0.05561,-0.25185 0.197447,-0.41903 0.930411,-1.09669 1.637535,-2.15977 2.044889,-3.07463 0.339023,-0.7614 0.681734,-1.75482 0.800295,-2.31964 0.172434,-0.82137 0.228905,-3.30304 0.105043,-4.61401 -0.0296,-0.3133 -0.166474,-0.92251 -0.400804,-1.78327 -0.332922,-1.22293 -0.375337,-1.34115 -0.656518,-1.82987 -0.360429,-0.62648 -0.60297,-0.9176 -0.954576,-1.14563 -0.24784,-0.16073 -0.502199,-0.23317 -0.756637,-0.2242 -1.102569,0.0389 -2.207039,1.6054 -2.793976,4.12802 -0.359013,1.54301 -0.322105,3.01206 0.127364,5.05601 0.63495,2.88738 0.662465,3.04302 0.567068,3.22087 -0.07508,0.13999 -0.82262,1.00426 -2.641171,3.05396 -0.607712,0.68495 -1.576561,2.12674 -1.99007,2.96139 -0.28845,0.58224 -0.775508,1.9835 -0.903041,2.59784 -0.584475,2.81533 0.6187,5.78617 3.069058,7.57786 1.247552,0.9122 2.99181,1.47237 4.559844,1.46436 0.577306,-0.003 1.476856,-0.11956 1.996635,-0.25883 0.358416,-0.096 0.500821,-0.11101 0.572483,-0.0603 0.07452,0.0528 0.169221,0.37773 0.432974,1.48488 0.81863,3.43645 0.866343,4.57333 0.235525,5.62537 -0.207523,0.34609 -0.845724,0.91538 -1.257559,1.12182 -0.626759,0.31431 -1.488805,0.44379 -2.093144,0.31464 -0.578046,-0.12352 -1.026325,-0.51196 -0.991013,-0.85856 0.017,-0.1669 0.09614,-0.21689 0.631406,-0.39851 0.665942,-0.22594 1.19399,-0.86078 1.336179,-1.60633 0.08695,-0.45588 -0.08535,-1.05639 -0.419844,-1.46272 -0.804484,-0.97728 -2.195039,-1.03604 -3.246152,-0.13721 -0.334291,0.28586 -0.790213,1.0518 -0.893849,1.50178 -0.466262,2.02471 1.185144,3.6888 3.823395,3.85278 0.258782,0.0161 0.62205,0.0115 0.807353,-0.0102 1.952046,-0.22782 3.22663,-1.26783 3.566532,-2.91018 0.245713,-1.18726 0.17872,-1.79657 -0.504861,-4.59924 -0.348152,-1.42743 -0.521086,-2.22889 -0.493866,-2.28813 0.02305,-0.0501 0.193122,-0.16518 0.377989,-0.25554 0.815004,-0.39838 1.887559,-1.44481 2.318166,-2.26171 1.1799,-2.23844 0.76103,-5.11403 -0.990193,-6.79643 -0.136091,-0.13075 -0.281749,-0.25128 -0.434451,-0.36274 0.07789,-0.0266 0.156666,-0.076 0.236511,-0.15099 0.219481,-0.20619 0.229454,-0.44521 0.03446,-0.83099 -0.09577,-0.18946 -0.159442,-0.52151 -0.182841,-0.95556 -0.05951,-1.10336 -0.394607,-1.67211 -1.193548,-2.02553 -0.392759,-0.17373 -0.45115,-0.26134 -0.626319,-0.93734 -0.179983,-0.69453 -0.169621,-1.48206 0.02528,-1.92261 0.166389,-0.37615 0.686417,-0.92846 1.215871,-1.29137 0.482484,-0.33072 1.104295,-0.62758 1.190102,-0.56805 0.04178,0.029 0.306335,0.47542 0.587748,0.992 4.08609,7.50071 9.33159,11.3162 12.93783,9.41052 0.56642,-0.29932 1.4751,-1.18449 1.8074,-1.76045 0.12914,-0.22384 0.27146,-0.40763 0.31611,-0.40851 0.0447,-8.9e-4 0.23424,0.38667 0.42132,0.86135 0.77878,1.97598 2.03675,3.29453 3.47642,3.64366 2.74988,0.66692 6.00269,-1.76298 8.97887,-6.70714 0.78821,-1.30945 2.00285,-3.72699 2.65971,-5.29383 0.30629,-0.73058 0.54284,-1.19356 0.60975,-1.19356 0.48401,0 2.08513,1.30713 2.31997,1.89406 0.22087,0.55201 0.14641,1.62403 -0.17185,2.4754 -0.0433,0.11572 -0.25203,0.27268 -0.5728,0.43052 -0.75353,0.37075 -1.09197,1.01086 -1.09196,2.06589 -1e-5,0.3432 -0.0486,0.59296 -0.15658,0.80456 -0.0861,0.16876 -0.15659,0.39618 -0.15658,0.50552 0,0.37839 0.42291,0.61499 0.82409,0.46104 0.0728,-0.028 0.25195,-0.2997 0.39786,-0.60416 0.22703,-0.47374 0.26523,-0.63638 0.26523,-1.12724 0,-0.76657 0.11229,-0.96742 0.6662,-1.19223 0.52445,-0.21286 0.74122,-0.4767 0.96376,-1.1737 0.47507,-1.4878 0.42451,-2.62454 -0.15723,-3.54076 -0.40986,-0.64552 -1.44116,-1.48712 -2.37807,-1.94067 -0.19081,-0.0924 -0.3467,-0.20886 -0.34631,-0.25883 3e-4,-0.0499 0.26483,-0.86 0.58758,-1.8 0.32276,-0.94002 0.56879,-1.73835 0.54671,-1.77409 -0.0221,-0.0357 -1.0526,-0.0454 -2.28992,-0.0214 -3.2163,0.0621 -5.3192,-0.15606 -7.6148,-0.78995 -1.40631,-0.38834 -3.55113,-1.27267 -3.70997,-1.52969 -0.0735,-0.11895 0.40717,-0.61454 0.68507,-0.70625 0.34629,-0.11428 3.30586,-0.14785 3.41635,-0.0387 0.0608,0.06 0.0508,0.1801 -0.0353,0.42411 -0.13571,0.38462 -0.0996,0.58954 0.12524,0.70986 0.36214,0.19381 0.75127,-0.1968 1.03811,-1.04223 0.11334,-0.334 0.20597,-0.65776 0.20598,-0.71954 0,-0.24657 -0.35303,-0.51092 -0.84854,-0.63534 -0.43163,-0.10839 -0.71635,-0.11411 -2.18374,-0.0435 -1.58509,0.0763 -1.71331,0.0939 -2.11547,0.29067 -0.32785,0.1604 -0.51284,0.32624 -0.78963,0.70789 -0.19879,0.27412 -0.41601,0.49846 -0.4827,0.49846 -0.0667,-1e-5 -0.54131,-0.31713 -1.0547,-0.7046 -0.73564,-0.55522 -0.95299,-0.68378 -1.02548,-0.60663 -0.0506,0.0539 -0.2035,0.5735 -0.33975,1.15465 -0.28765,1.22692 -0.30626,1.28957 -0.36601,1.22983 -0.0246,-0.0247 -0.1952,-0.65474 -0.37897,-1.40036 -0.18378,-0.74561 -0.44921,-1.77028 -0.58972,-2.2768 z m 2.13072,2.71864 c 0.0604,-0.008 0.3333,0.15496 0.63355,0.37996 0.32026,0.24001 0.69682,0.50733 0.83673,0.59415 0.29673,0.18414 0.31509,0.3095 0.0913,0.62385 -0.20281,0.28482 -0.59274,0.48753 -1.33405,0.69296 v -1.6e-4 c -0.71486,0.1981 -0.77272,0.19786 -0.77272,-0.004 0,-0.23476 0.46414,-2.2103 0.5362,-2.28237 0.002,-0.002 0.005,-0.004 0.009,-0.004 z m -21.465175,1.3695 c 0.07957,0.004 0.138311,0.0378 0.238151,0.10323 0.299198,0.19594 0.456469,0.49625 0.582496,1.11198 0.124478,0.60815 0.109609,1.37677 -0.03824,1.97202 -0.307696,1.23872 -1.240285,2.85218 -2.50642,4.3363 -0.194768,0.2283 -0.373469,0.42022 -0.397194,0.42657 -0.104182,0.0279 -0.153063,-0.13999 -0.308728,-1.06044 -0.207319,-1.22584 -0.243662,-1.73544 -0.178736,-2.50922 0.102391,-1.22022 0.37635,-2.14692 0.908785,-3.07332 0.453381,-0.78885 0.776953,-1.08862 1.336998,-1.23868 0.18291,-0.049 0.283327,-0.073 0.362891,-0.0685 z m 24.172825,0.40064 v 4.9e-4 c 0.0114,-0.002 0.022,-5.6e-4 0.0317,0.003 0.0661,0.0204 0.52518,0.2211 1.02023,0.44578 3.00549,1.36397 6.82497,2.00122 10.80136,1.80213 0.75586,-0.0378 1.40142,-0.0385 1.4404,-0.002 0.15703,0.14842 -1.53877,4.64145 -2.6804,7.10172 -2.49909,5.38569 -5.49984,9.05259 -8.2109,10.03357 v -1.7e-4 c -0.74298,0.26885 -1.60864,0.3606 -2.21132,0.23422 -0.52464,-0.11004 -1.26555,-0.50229 -1.71859,-0.90961 -0.77031,-0.69257 -1.51611,-1.96284 -1.93131,-3.28965 l -0.20057,-0.64059 0.24521,-0.72513 c 0.5722,-1.69326 0.84082,-3.91933 0.76025,-6.29995 -0.0546,-1.61373 -0.12788,-2.38522 -0.41378,-4.36124 -0.12289,-0.84949 -0.17377,-1.4247 -0.12999,-1.46847 0.0395,-0.0396 0.32815,-0.14313 0.64142,-0.22995 0.99933,-0.27692 1.76573,-0.75082 2.20672,-1.3649 0.14674,-0.20432 0.26944,-0.31917 0.3496,-0.32858 z m -7.64269,2.94283 c 0.41517,-0.008 0.77454,0.13316 1.07768,0.4228 0.39483,0.37729 0.76762,1.06663 0.61647,1.14005 -0.0246,0.0119 -0.25215,-0.0219 -0.50568,-0.075 -0.72657,-0.15222 -1.69099,-0.19065 -2.75542,-0.10996 -0.55133,0.0418 -0.97065,0.0339 -0.95654,-0.0179 0.0398,-0.1459 0.73203,-0.67126 1.24656,-0.96312 0.0734,-0.0417 0.14315,-0.0787 0.20697,-0.10914 0.39032,-0.18598 0.74704,-0.28169 1.06996,-0.28772 z m -37.913413,0.54344 c -0.201453,-4.5e-4 -0.381942,0.12584 -0.441016,0.3793 -0.05506,0.23627 -0.08711,0.46978 -0.472692,3.43523 -0.655119,5.03853 -1.231381,10.30759 -1.458127,12.72611 l -0.08847,0.94276 -0.140823,0.0535 -0.140988,0.0535 0.184318,0.2805 0.184482,0.28049 -0.08534,0.18974 c -0.07257,0.16158 -0.04137,-0.14152 -0.06631,2.56009 -0.02801,3.03775 -0.03368,3.17544 -0.131632,3.20364 -0.47935,0.13775 -0.805077,0.36949 -1.065857,0.75828 -0.324035,0.48309 -0.365087,0.69497 -0.431496,2.23348 -0.03977,0.92131 -0.119324,1.96446 -0.223545,2.92921 -0.04282,0.39632 -0.07263,0.72943 -0.06631,0.74039 0.792182,-0.26378 1.326891,-0.26277 2.470969,-0.91978 1.144079,-0.65701 2.131309,-2.54165 1.746994,-3.89003 -0.127177,-0.44622 -0.404524,-0.97617 -0.635017,-1.21374 l -0.129662,-0.1336 0.666858,-2.9673 c 0.605177,-2.69336 0.662274,-2.98867 0.618932,-3.20134 l -0.04776,-0.23438 0.229781,-0.13262 c 0.126358,-0.0729 0.226525,-0.13839 0.222396,-0.14525 -0.004,-0.007 -0.05204,-0.0512 -0.106849,-0.0985 -0.09528,-0.0822 -0.09516,-0.12313 0.0016,-0.9275 0.132497,-1.10099 0.192896,-1.84701 0.250298,-3.0876 0.141663,-3.06164 0.106958,-7.29294 -0.09782,-11.91366 -0.05516,-1.24474 -0.06327,-1.31303 -0.179722,-1.51935 -0.143279,-0.2539 -0.365778,-0.38116 -0.567231,-0.3816 z m 47.777923,0.88318 c -0.0768,-0.002 -0.22468,0.0262 -0.48583,0.0794 -1.0001,0.20425 -2.10761,0.28712 -2.97534,0.22255 -0.45127,-0.0336 -0.83337,-0.0394 -0.84903,-0.013 -0.0273,0.0459 0.15673,0.34867 0.41951,0.69066 0.22182,0.28867 0.93482,0.66843 1.29827,0.69147 0.62496,0.0396 1.34723,-0.30185 2.16502,-1.02384 0.22472,-0.19838 0.43935,-0.435 0.47696,-0.52587 0.0237,-0.0572 0.0325,-0.0934 0.005,-0.11029 -0.0114,-0.007 -0.029,-0.0108 -0.0547,-0.0111 z m 2.78692,0.62254 c -0.16384,0.0419 0.41179,1.24612 0.91486,1.91391 0.38042,0.50501 0.99641,0.88836 1.47667,0.91881 0.18492,0.0118 0.47414,-0.0269 0.64289,-0.0858 0.36484,-0.12751 0.90164,-0.45552 0.88055,-0.53801 -0.002,-0.008 -0.0188,-0.0217 -0.0477,-0.0395 -0.0869,-0.0536 -0.28116,-0.14485 -0.50174,-0.23339 -0.99351,-0.39874 -1.59136,-0.72684 -2.44455,-1.3416 -0.46746,-0.33682 -0.88183,-0.6043 -0.92093,-0.59431 z m -18.99635,0.0426 c 0.56222,0.0112 1.12167,0.0881 1.17484,0.18103 0.0335,0.0586 -0.10036,0.15248 -0.48254,0.33876 -0.87872,0.42831 -1.98241,1.11914 -2.44504,1.53051 -0.49622,0.44124 -0.51556,0.45509 -0.61007,0.42936 -0.1238,-0.0338 -0.10357,-1.06128 0.0277,-1.40922 0.12926,-0.34248 0.31904,-0.58774 0.60548,-0.75696 0.28644,-0.16922 0.66929,-0.26229 1.18502,-0.30085 0.16938,-0.0126 0.35718,-0.0164 0.54458,-0.0126 z m 8.91978,5.55512 c 0.006,8.9e-4 0.011,0.004 0.014,0.007 0.0502,0.0737 -0.43309,1.25437 -0.73596,1.79787 -0.57134,1.02532 -1.40324,1.85711 -2.15961,2.15978 -0.74399,0.29773 -1.4918,0.25561 -2.29749,-0.12934 -0.63127,-0.3016 -1.6963,-1.1927 -1.54692,-1.29432 0.0211,-0.0144 0.32159,0.0135 0.66768,0.0615 1.59759,0.22211 3.3445,-0.36158 4.82246,-1.61109 0.35621,-0.30116 0.77398,-0.65936 0.92831,-0.79603 0.1394,-0.12345 0.26324,-0.20117 0.30758,-0.19581 z m 5.68299,1.50227 c -0.0806,8.9e-4 -0.161,0.006 -0.24176,0.0144 -0.76946,0.0806 -1.86779,0.75217 -2.54417,1.55579 -0.18742,0.22266 -0.32054,0.41853 -0.29593,0.43526 0.0246,0.0167 0.3252,-0.0341 0.66817,-0.11308 1.90215,-0.43805 4.03198,0.18647 5.9149,1.73468 0.3638,0.29913 0.70262,0.53744 0.75286,0.52949 0.11577,-0.0183 -0.41262,-1.13662 -0.86217,-1.82463 -1.00773,-1.54227 -2.1841,-2.34853 -3.3919,-2.33179 z m -26.757046,0.12638 c 0.08853,-0.006 0.138963,0.14823 0.506832,1.55152 0.321856,1.22782 0.396114,1.57762 0.350416,1.6495 -0.03191,0.0502 -0.22619,0.18082 -0.431661,0.29034 -0.486775,0.25949 -1.282536,0.97269 -1.646218,1.47537 -1.155973,1.5978 -1.217652,3.45724 -0.160026,4.83049 0.473356,0.61462 1.493113,1.32539 2.309301,1.60962 0.245138,0.0854 0.507638,-0.007 0.666201,-0.23389 0.211297,-0.30265 0.136603,-0.43389 -0.42887,-0.75352 -0.921152,-0.52067 -1.345119,-0.99085 -1.535924,-1.70317 -0.150296,-0.56115 -0.09506,-0.96859 0.211236,-1.55758 0.272582,-0.52417 0.613356,-0.91405 1.070124,-1.22441 0.418686,-0.28449 0.554727,-0.33677 0.664066,-0.25523 0.04136,0.0308 0.190095,0.41805 0.330558,0.86054 0.140473,0.44248 0.354284,1.05768 0.475154,1.36704 0.12087,0.30935 0.382934,1.1637 0.582168,1.89864 0.33107,1.22116 0.359953,1.37002 0.336957,1.7291 -0.03325,0.51895 -0.17006,0.8819 -0.432644,1.14792 -0.176363,0.17867 -0.296393,0.24238 -0.67129,0.35551 -0.251143,0.0758 -0.51118,0.13941 -0.577736,0.14131 -1.727528,0.0514 -3.336478,-0.44251 -4.462351,-1.36982 -1.442349,-1.18795 -2.158262,-3.47506 -1.747322,-5.58171 0.126298,-0.64746 0.359628,-1.37075 0.590209,-1.82956 0.183382,-0.3649 0.868889,-1.28752 1.459439,-1.96413 0.544478,-0.62383 2.426368,-2.4261 2.541381,-2.43388 z m 2.780352,5.38821 c 0.39288,0.007 1.049227,0.17275 1.45386,0.4072 0.91812,0.53198 1.597839,1.6778 1.7401,2.93365 0.06967,0.61508 0.0071,1.35197 -0.151984,1.79296 -0.201594,0.55859 -0.707584,1.24867 -1.126092,1.53559 -0.26099,0.17891 -0.36066,0.20854 -0.414755,0.12375 -0.0807,-0.1265 -1.849385,-6.61546 -1.82512,-6.69615 0.02126,-0.0708 0.145412,-0.10022 0.323991,-0.097 z"
                id="path9238"
                inkscape:connector-curvature="0"/>
    </g>
</svg>
