<?xml version="1.0" encoding="UTF-8" standalone="no"?>
<!-- Created with Inkscape (http://www.inkscape.org/) -->

<svg
        xmlns:dc="http://purl.org/dc/elements/1.1/"
        xmlns:cc="http://creativecommons.org/ns#"
        xmlns:rdf="http://www.w3.org/1999/02/22-rdf-syntax-ns#"
        xmlns:sodipodi="http://sodipodi.sourceforge.net/DTD/sodipodi-0.dtd"
        xmlns:inkscape="http://www.inkscape.org/namespaces/inkscape"
        xmlns="http://www.w3.org/2000/svg"
        width="676"
        height="507"
        viewBox="0 0 178.85833 134.14375"
        version="1.1"
        id="svg8535"
        inkscape:version="0.92.1 r15371"
        sodipodi:docname="estnauch.svg"
        inkscape:export-filename="C:\Users\Алексей\Desktop\ПФДО\диз\default-program-image\robot.png"
        inkscape:export-xdpi="95"
        inkscape:export-ydpi="95">
    <defs
            id="defs8529"/>
    <sodipodi:namedview
            id="base"
            pagecolor="#ffffff"
            bordercolor="#666666"
            borderopacity="1.0"
            inkscape:pageopacity="0.0"
            inkscape:pageshadow="2"
            inkscape:zoom="0.70000001"
            inkscape:cx="395.6647"
            inkscape:cy="179.29195"
            inkscape:document-units="mm"
            inkscape:current-layer="layer1"
            showgrid="false"
            units="px"
            gridtolerance="4"
            objecttolerance="5"
            guidetolerance="4"
            inkscape:window-width="1366"
            inkscape:window-height="706"
            inkscape:window-x="-8"
            inkscape:window-y="-8"
            inkscape:window-maximized="1"/>
    <metadata
            id="metadata8532">
        <rdf:RDF>
            <cc:Work
                    rdf:about="">
                <dc:format>image/svg+xml</dc:format>
                <dc:type
                        rdf:resource="http://purl.org/dc/dcmitype/StillImage"/>
                <dc:title></dc:title>
            </cc:Work>
        </rdf:RDF>
    </metadata>
    <g
            inkscape:label="Layer 1"
            inkscape:groupmode="layer"
            id="layer1"
            transform="translate(0,-162.85624)">
        <rect
                style="opacity:1;fill:#119111;fill-opacity:1;stroke:none;stroke-width:0.63653022;stroke-miterlimit:4;stroke-dasharray:none;stroke-opacity:1"
                id="rect13012"
                width="178.85834"
                height="134.14375"
                x="-1.2011719e-006"
                y="162.85623"/>
        <g
                id="g9202"
                transform="matrix(0.20995144,0,0,0.20995144,22.045547,252.14221)"
                style="fill:#ffffff">
            <path
                    style="fill:#ffffff;stroke-width:0.26458332"
                    d="m 339.88017,-224.26484 c -3.85298,-0.0133 -6.40757,0.10933 -6.97787,0.19225 -13.93255,2.10603 -22.39068,5.47613 -27.36266,10.90218 -1.89796,2.07129 -3.08332,4.2204 -3.58532,6.72206 -0.0456,-0.003 -0.12521,0.0704 -0.216,0.21085 -0.14107,0.21828 -0.25632,0.51593 -0.25632,0.66145 0,0.14553 0.11525,0.086 0.25632,-0.13229 0.0454,-0.0703 0.0859,-0.1489 0.12299,-0.22788 -0.54483,3.39526 0.12079,7.45 1.94458,12.82144 0.7961,2.34466 1.44746,4.63325 1.44746,5.08598 0.37372,1.53249 0.56514,1.73321 -2.62568,6.6053 -1.67558,2.54338 -6.50998,7.85315 -7.00113,7.68945 -0.1601,-0.0534 -0.43738,-1.09929 -0.61598,-2.32442 -0.34741,-2.38305 -1.39666,-17.67067 -1.40146,-20.41943 -0.002,-0.9086 -0.0767,-2.09857 -0.16692,-2.64427 -0.15024,-0.9089 -0.23635,-0.99219 -1.02267,-0.99219 -0.4721,0 -1.24008,0.0766 -1.70688,0.17002 l -0.84852,0.1695 0.16536,4.39457 c 0.24969,6.62704 0.66527,14.32435 0.83354,15.44039 0.10984,0.72848 0.0553,0.98994 -0.20464,0.98494 -1.79915,-1.39544 -3.72398,-2.46698 -5.42086,-4.84465 -1.41224,-2.05799 -1.51369,-2.83097 -0.86299,-6.57739 1.08028,-6.21977 0.11136,-9.83043 -3.34088,-12.44523 -3.40864,-2.58175 -7.88547,-3.74015 -15.73238,-4.07159 -7.78997,-0.32901 -14.24552,0.58571 -21.76611,3.08456 -18.60887,6.18316 -35.46537,19.34448 -47.59968,37.16467 -3.34719,4.91562 -3.51477,5.27632 -0.95756,2.85306 8.40771,-7.46265 33.6397,-23.23322 46.64315,-25.59018 16.74101,-2.28881 33.30337,1.63996 46.45608,10.20714 l 2.85409,1.89082 0.26406,1.74771 c 1.15567,7.64389 1.58578,11.54393 1.28364,11.64323 -1.27188,0.41806 -10.14716,5.13781 -12.60285,6.70189 -2.94667,1.87685 -3.04766,1.97326 -4.14238,3.96153 -3.0011,5.45073 -3.09385,9.56596 -0.26406,11.72435 2.38628,1.82012 6.76206,2.52539 12.57804,2.02726 21.28497,-1.90794 32.21061,-13.08695 39.31388,-20.95532 -5.46929,-2.63064 -9.17874,-6.42127 -13.76092,-9.59993 -1.15221,0.19183 -2.3109,0.40085 -3.38532,0.62117 -2.07409,0.42531 -5.65251,1.32905 -7.95197,2.00813 -2.43629,0.71948 -4.2739,1.13538 -4.40387,0.99685 -0.0784,-0.0836 -0.21519,-0.37079 -0.3762,-0.76015 0.84367,-0.90557 1.8693,-2.02933 2.36523,-2.59519 4.48859,-5.12154 6.44912,-6.12802 9.76323,-5.01158 2.0668,0.69625 3.97878,1.90902 7.30343,4.63174 15.53733,12.58917 36.03192,13.34815 53.49337,7.89048 0.2877,-0.18333 0.59741,-0.29392 0.89711,-0.30697 0.0194,-8.4e-4 0.0385,10e-4 0.0579,10e-4 6.60005,-2.16226 12.74098,-5.20753 17.9803,-8.83151 7.44983,-5.36604 13.27233,-7.20838 22.72575,-7.19179 5.38277,0.01 8.21067,0.40227 15.34583,2.13267 5.29373,1.28384 11.97141,3.82902 18.31671,6.98098 3.02274,1.51865 3.20962,1.4583 3.20962,1.4583 0,0 -1.22137,-1.02539 -1.90117,-1.54358 -20.57953,-14.50678 -46.99434,-25.84196 -69.10224,-28.79823 -30.41974,-3.04019 -60.87151,9.39308 -80.76407,28.29336 -0.18994,0.18333 -0.36152,0.36062 -0.5364,0.53898 -0.21845,-0.68607 -0.38034,-1.27614 -0.38034,-1.47794 0,-0.26609 0.92274,-1.37443 2.05052,-2.4629 22.6283,-20.06534 50.16968,-31.67232 80.76406,-28.29335 53.27696,12.38017 69.97637,28.8729 71.53414,30.58935 -0.11854,-0.14049 -0.28654,-0.34758 -0.51315,-0.64854 -6.79459,-8.08821 -15.42809,-16.44693 -24.12152,-23.35361 -9.43548,-7.49625 -21.53693,-14.81296 -31.81822,-19.23812 -1.0914,-0.46974 -2.46062,-1.0655 -3.0427,-1.32395 -16.4254,-7.23392 -39.67152,-8.49762 -51.23047,-8.53747 z m 110.72606,53.10169 c 0.21,0.24887 0.1856,0.2045 0,0 z m -200.71126,-15.60216 c -3.15115,0.0271 -6.41775,0.29014 -9.40769,0.7855 -10.89401,5.12373 -46.2012,20.37066 -49.3448,28.25768 5.02987,-3.48427 11.1963,-7.43646 17.33021,-9.3958 4.64332,-1.42156 8.25108,-1.94839 11.77396,-1.71979 3.26555,0.2119 5.07221,0.70852 8.46667,2.32751 7.84069,3.73965 14.02754,5.25285 21.46535,5.25084 5.64051,-0.003 10.38751,-0.9507 14.91486,-2.98172 3.87795,-1.73969 5.779,-3.14487 10.07225,-7.44453 4.51534,-4.52205 4.44925,-4.46529 5.71128,-4.92165 1.80242,-0.65177 2.44687,-0.3438 7.46879,3.57032 0.85606,0.66722 1.60787,1.16197 1.6707,1.09916 0.0628,-0.0628 0.0369,-0.52785 -0.0579,-1.03302 -0.15245,-0.81261 -0.50046,-1.1358 -3.021,-2.80551 -11.73528,-7.09538 -24.0906,-11.06355 -37.0427,-10.98899 z m 59.83511,23.21875 c 2.38961,0.0138 4.22145,0.52091 4.97385,1.50688 0.17727,0.23231 0.32573,0.8142 0.33073,1.29294 0.0389,4.02225 -9.44614,10.18601 -18.57406,12.07058 -4.13366,0.85344 -7.78266,0.72197 -9.1984,-0.33176 -1.66764,-1.24121 -1.3831,-3.09687 0.83922,-5.47253 1.41226,-1.50972 5.42131,-4.53623 5.67408,-4.28348 0.0511,0.0511 0.21994,1.03736 0.37516,2.1916 0.38803,2.88539 0.43204,2.98453 1.40612,3.16725 5.53005,-0.16285 11.54693,-2.61707 7.40575,-6.58977 l -2.06137,-1.96371 1.43505,-0.42582 c 2.46452,-0.73186 4.86636,-1.11543 6.90862,-1.15858 0.16411,-0.003 0.32594,-0.004 0.48525,-0.004 z m 63.29122,3.54446 c -0.0298,0.01 -0.0596,0.0188 -0.0894,0.0285 1.6661,7.94858 1.29795,16.70671 -1.86345,23.44817 -0.59779,1.61141 -1.26769,3.14806 -1.93477,4.54133 -1.76888,3.65159 -5.03339,8.63277 -7.66878,11.70056 l -1.97765,2.30169 c 11.02931,11.05014 18.10949,25.532135 26.18909,38.597127 0.0773,-0.04011 0.15216,-0.08173 0.22841,-0.122475 12.509,-19.688969 12.8847,-22.897622 15.93185,-32.918402 1.97068,-8.3271 2.34552,-14.8173 2.13372,-19.90164 -7.95122,-11.31313 -18.44742,-20.78818 -30.94902,-27.67481 z m -42.17675,1.08728 c -0.16465,1.18563 -0.66987,2.43962 -1.51929,3.73571 -2.21461,3.60669 -5.63497,5.87459 -8.19691,7.95454 10.39861,6.50195 23.54681,15.50633 32.15204,23.21409 l 2.78949,2.5182 c 2.00437,-2.07971 4.00682,-4.28279 5.93762,-6.53603 3.15972,-4.59396 6.32305,-12.08929 7.42591,-18.55444 0.41511,-7.75353 -0.1295,-10.56486 -0.28991,-12.2406 -13.15623,3.72996 -26.08706,4.53149 -38.29895,-0.0915 z m -65.90605,13.49944 -2.67013,2.74712 c -6.18048,6.35785 -11.48969,13.94822 -15.86673,22.68439 l -1.50533,3.00448 0.92862,1.95493 c 1.76331,3.71303 4.20293,7.0866 7.29258,10.08414 0.79304,0.76938 1.52304,1.39888 1.62264,1.39888 0.0996,0 0.56931,-1.16086 1.04335,-2.57969 3.62418,-12.16869 11.18722,-21.34955 14.54485,-29.40079 0,-0.1429 -0.40734,-0.5964 -0.90537,-1.00719 -1.60661,-1.32511 -3.20296,-4.03442 -3.87419,-6.57529 z m 52.89909,0.38912 c -0.22412,0.003 -0.42758,0.11838 -0.78341,0.32504 -0.45121,0.2621 -2.36844,1.25114 -4.26021,2.19782 -1.89178,0.94665 -3.47137,1.74818 -3.51038,1.78128 1.88767,4.89363 4.11173,9.9672 6.21254,14.95568 1.3788,3.27422 2.96562,7.02469 3.52589,8.33437 2.48458,5.80792 3.42924,8.11184 3.42924,8.36176 0,0.14761 0.13793,0.18341 0.30593,0.0796 0.18572,-0.11483 0.23373,-0.0726 0.12247,0.10747 -0.14148,0.22895 1.51328,4.63339 2.13114,5.67254 0.0649,0.10914 0.16017,0.19843 0.21187,0.19843 9.52232,-3.26188 19.64752,-8.25074 26.56737,-14.97015 -9.93459,-9.97267 -19.60585,-18.38243 -31.71848,-25.90437 0.008,-0.019 0.0159,-0.0348 0.0238,-0.0553 0.0904,-0.23548 0.0461,-0.34126 -0.10387,-0.24858 -0.0615,0.038 -0.11543,0.0948 -0.1602,0.15658 -0.23233,-0.14097 -0.45652,-0.27527 -0.66043,-0.39325 -0.72289,-0.41825 -1.04509,-0.6023 -1.33325,-0.59894 z m -13.45964,6.35619 -2.93574,1.05268 c -3.19455,1.14567 -7.20953,2.41874 -8.5323,2.70525 -0.83106,0.18 -0.83623,0.19156 -1.38647,3.14193 -1.75503,9.41025 -2.82401,20.04137 -3.11403,30.96347 l -0.17466,6.571196 1.16737,-0.152453 c 6.95018,-0.416507 20.51244,-3.275885 29.82402,-6.839373 0.045,-0.23244 -0.14784,-0.93752 -0.4284,-1.56684 -0.28056,-0.62931 -1.3097,-3.16817 -2.28668,-5.64202 -0.97698,-2.47386 -1.9317,-4.85511 -2.12184,-5.29167 -0.19014,-0.43656 -2.52053,-6.2271 -5.17849,-12.86796 z m -17.32143,5.08395 c -0.24605,0.0119 -0.78207,0.0733 -1.38234,0.1607 -1.94866,0.28393 -7.77802,0.28396 -9.24956,0 -1.412,-0.27244 -1.18243,-0.51911 -3.68402,3.95481 -3.99109,7.13777 -6.71837,13.18816 -9.06456,20.10833 -0.91223,2.69066 -2.87269,9.430416 -2.87269,9.876397 0,0.251064 1.91704,1.179434 4.47363,2.166806 2.89597,1.11842 6.89504,2.118492 9.94616,2.487162 1.30969,0.158274 2.6789,0.330862 3.04271,0.383461 0.93984,0.07781 1.70287,0.135281 2.57038,0.167428 l 0.1788,-2.711979 c 1.19766,-12.759295 2.14994,-20.889385 5.45342,-33.512175 0.43821,-1.6604 0.76651,-3.04406 0.72915,-3.07525 -0.009,-0.008 -0.0591,-0.01 -0.14108,-0.006 z m 120.33684,6.49986 c -0.14878,14.57952 -4.19142,28.772244 -10.24278,39.212596 -2.09634,5.181838 -6.54017,9.619906 -9.57875,13.354738 4.74989,15.916063 5.70552,23.845122 6.53346,32.758194 -3.36458,-10.422652 -5.59135,-20.265681 -9.82421,-29.213201 -8.78919,8.901509 -21.44167,17.389395 -36.42723,22.730909 -0.14686,0 -0.26667,0.0893 -0.26614,0.198438 0.61546,4.25405 0.38193,1.151705 2.00247,5.225521 2.20014,5.526801 9.38628,24.124126 10.87737,28.149708 0.51787,1.398111 1.02818,2.63689 1.13378,2.752804 9.03162,-1.048094 9.72016,-3.548856 24.53493,-12.152735 -6.40411,6.961161 -14.72773,11.744827 -22.89937,16.4708147 -0.051,0.036539 0.82757,2.6803879 1.95233,5.8756285 l 2.04484,5.8099589 c 13.1594,-6.9163141 25.91312,-16.8024441 33.75143,-26.5332631 14.68709,-22.855475 22.33901,-42.874882 18.98023,-69.056249 -1.8071,-12.893092 -6.1291,-24.935392 -12.57236,-35.583862 z m -51.65317,13.26946 v 5.3e-4 c -0.11895,-0.0485 -1.27749,0.82931 -2.57452,1.95027 -9.59871,9.46623 -21.82773,12.981145 -25.86044,15.08072 8.2682,15.126017 10.31269,28.031413 17.9002,42.717825 14.20819,-5.934049 25.89903,-12.617582 36.79982,-21.738722 -6.77648,-12.206129 -14.95593,-25.155503 -22.53299,-33.953503 -2.55272,-2.90356 -3.54259,-3.97981 -3.73207,-4.05712 z m -114.48655,6.54844 c -3.1331,11.747867 -4.72703,24.766478 -3.98374,35.225775 0.32766,4.179834 0.11614,5.386811 3.19825,8.665104 3.08212,3.27832 6.09122,5.418587 9.41442,6.564445 -0.43547,-11.883787 -0.667,-26.115037 2.45411,-38.037982 0,-0.0979 -0.45697,-0.515858 -1.01596,-0.928634 -4.61654,-3.760047 -7.13181,-6.984178 -10.06708,-11.488708 z m 39.18882,10.263475 c 0.0145,0.0082 0.0304,0.04278 0.047,0.106442 0.0666,0.254662 0.0666,0.67138 0,0.926042 -0.0666,0.254661 -0.12092,0.0463 -0.12092,-0.463021 0,-0.381979 0.0305,-0.594439 0.0739,-0.569463 z m 41.69409,2.761589 c -2.7077,1.01383 -3.24476,1.162658 -5.37383,1.853618 -3.56515,1.179354 -11.81741,3.343116 -15.97163,4.187851 -2.73295,0.555731 -6.90895,1.138211 -10.55285,1.471745 -2.44077,0.153485 -1.83059,3.017123 -1.65519,5.992918 0.36869,0.04276 0.39984,0.06937 0.008,0.122476 0.62135,10.607251 1.47081,17.16733 3.47265,26.814912 0.84041,4.050188 2.28327,10.009187 2.51355,10.3818 0.30573,0.494691 12.69578,-0.334407 19.14353,-1.28106 3.24398,-0.476303 8.91721,-1.798611 14.15521,-3.299539 4.32487,-1.296009 7.97881,-2.057215 11.44168,-3.838019 l -0.77308,-1.973527 c -3.25545,-6.820403 -5.54947,-14.064721 -8.30699,-20.423558 -3.01241,-6.512745 -5.15606,-13.286131 -8.1008,-20.009617 z m -62.87109,3.318139 c -0.0381,0.0026 -0.064,0.0095 -0.076,0.02273 -0.25247,0.279585 -0.99928,6.712109 -1.29708,11.172957 -0.57333,8.588375 -0.0598,18.828279 1.36426,27.202474 l 0.28422,1.670182 1.49138,0.668708 c 2.31981,1.039627 5.40739,2.208636 5.83324,2.208636 4.63703,1.146175 7.26419,2.617179 15.77526,3.811138 3.31012,0.451802 3.29799,0.450558 3.29799,0.281648 0,-0.0772 -0.41361,-1.773846 -0.91932,-3.770312 -2.15707,-9.307724 -2.3223,-9.780455 -3.29799,-17.917266 -0.73086,-6.09166 -1.06867,-11.308053 -1.07177,-16.56281 l -0.003,-4.391978 -3.4339,-0.313663 c -6.04136,-0.551868 -11.27416,-1.69926 -15.84658,-3.474747 -0.96393,-0.374306 -1.83441,-0.622511 -2.10116,-0.607695 z m -18.0728,38.890654 c 1.0841,3.747426 2.564,7.436803 4.13618,10.933695 2.02914,4.472331 4.19787,8.374327 6.9572,12.517569 1.24663,1.871848 2.91944,3.244718 7.59126,6.230118 1.16417,0.743929 2.21746,1.35456 2.34043,1.35755 0.12297,0.0026 -0.0725,-0.501385 -0.4346,-1.119849 -3.76506,-6.961796 -7.06963,-14.22056 -9.17308,-21.8617 -0.24805,-0.9212 -0.48952,-1.191736 -1.54048,-1.72548 -3.61866,-1.98845 -6.79956,-4.00439 -9.87691,-6.331903 z m 100.41971,6.319494 c -8.913,2.546297 -18.31448,5.373079 -26.83402,7.111206 -5.44881,1.093655 -13.41204,2.437421 -15.94115,2.690257 -1.22248,0.122211 -1.78594,0.289798 -1.78594,0.531257 0,0.379333 3.15711,8.719555 4.04524,10.686679 3.32999,7.375551 5.96259,12.265898 9.50277,17.651624 l 2.12442,3.2323617 2.54868,0.085778 c 5.51769,0.1864783 6.40872,0.1806046 10.88306,-0.07493 7.66017,-0.4374621 14.23137,-1.4554994 21.34133,-3.3062598 3.13587,-0.816266 8.56179,-2.4503062 8.77208,-2.6416793 0.0456,-0.04154 -1.69244,-4.4633626 -3.8623,-9.8262806 -3.55427,-8.738315 -7.06318,-17.511131 -10.79417,-26.140013 z m -79.6401,4.855527 c -0.24543,0.01217 -0.2051,0.192379 -0.15968,0.554487 0.27999,2.232105 3.6804,12.732279 5.86941,18.123959 2.50894,6.179687 2.17102,5.75511 6.03477,7.58145 9.14103,4.320804 17.52078,7.1110207 27.30324,9.0914269 2.99106,0.6054989 4.49792,0.7826904 4.49792,0.5286639 0,-0.070723 -0.92273,-1.3717322 -2.05052,-2.8913137 -4.84063,-6.5222441 -10.26563,-16.3426241 -13.39195,-24.2414161 l -1.52239,-3.845745 -4.41575,-0.44442 c -6.51335,-0.655347 -12.85415,-1.9068 -20.29127,-4.004416 -1.09739,-0.30951 -1.62835,-0.464952 -1.87378,-0.452676 z m 13.62087,31.4068617 C 282.51216,-2.4242287 309.82173,12.914355 321.9221,12.302638 317.26023,8.3596322 313.6727,5.4627093 310.21842,1.7410008 291.4758,-1.549966 285.143,-4.9048033 275.59314,-9.4526203 Z m 82.69986,4.3909456 c -0.0316,-0.04273 -1.8287,0.6275652 -3.99304,1.4893131 -10.23584,4.43494574 -20.86227,6.3214513 -31.31953,7.1990478 -2.11005,0.1694127 -3.89315,0.3621087 -3.96255,0.4283869 -0.0694,0.066331 1.80977,2.0283751 4.17546,4.3599628 l 4.30103,4.2389951 3.89485,-0.167931 c 11.25597,-1.346623 22.00563,-2.106586 31.24874,-6.3711928 0.0811,-0.081148 -4.10731,-10.8551132 -4.34496,-11.1765819 z"
                    id="path9206"
                    inkscape:connector-curvature="0"/>
        </g>
    </g>
</svg>
