<?xml version="1.0" encoding="UTF-8" standalone="no"?>
<!-- Created with Inkscape (http://www.inkscape.org/) -->

<svg
        xmlns:dc="http://purl.org/dc/elements/1.1/"
        xmlns:cc="http://creativecommons.org/ns#"
        xmlns:rdf="http://www.w3.org/1999/02/22-rdf-syntax-ns#"
        xmlns:sodipodi="http://sodipodi.sourceforge.net/DTD/sodipodi-0.dtd"
        xmlns:inkscape="http://www.inkscape.org/namespaces/inkscape"
        xmlns="http://www.w3.org/2000/svg"
        width="676"
        height="507"
        viewBox="0 0 178.85833 134.14375"
        version="1.1"
        id="svg8535"
        inkscape:version="0.92.1 r15371"
        sodipodi:docname="none.svg"
        inkscape:export-filename="C:\Users\Алексей\Desktop\ПФДО\диз\default-program-image\robot.png"
        inkscape:export-xdpi="95"
        inkscape:export-ydpi="95">
    <defs
            id="defs8529"/>
    <sodipodi:namedview
            id="base"
            pagecolor="#ffffff"
            bordercolor="#666666"
            borderopacity="1.0"
            inkscape:pageopacity="0.0"
            inkscape:pageshadow="2"
            inkscape:zoom="0.70000001"
            inkscape:cx="323.14674"
            inkscape:cy="265.77135"
            inkscape:document-units="mm"
            inkscape:current-layer="layer1"
            showgrid="false"
            units="px"
            gridtolerance="4"
            objecttolerance="5"
            guidetolerance="4"
            inkscape:window-width="1366"
            inkscape:window-height="706"
            inkscape:window-x="-8"
            inkscape:window-y="-8"
            inkscape:window-maximized="1"/>
    <metadata
            id="metadata8532">
        <rdf:RDF>
            <cc:Work
                    rdf:about="">
                <dc:format>image/svg+xml</dc:format>
                <dc:type
                        rdf:resource="http://purl.org/dc/dcmitype/StillImage"/>
                <dc:title></dc:title>
            </cc:Work>
        </rdf:RDF>
    </metadata>
    <g
            inkscape:label="Layer 1"
            inkscape:groupmode="layer"
            id="layer1"
            transform="translate(0,-162.85624)">
        <rect
                style="opacity:1;fill:#999999;fill-opacity:1;stroke:none;stroke-width:0.63653022;stroke-miterlimit:4;stroke-dasharray:none;stroke-opacity:1"
                id="rect13012"
                width="178.85834"
                height="134.14375"
                x="-1.2011719e-006"
                y="162.85623"/>
        <path
                style="fill:#ffffff;stroke-width:0.10280933"
                d="m 88.720824,205.0573 -3.683064,1.39215 c -2.025674,0.76572 -4.40016,1.66247 -5.276609,1.99273 -0.87645,0.33027 -2.472565,0.93312 -3.546923,1.33974 -2.137543,0.809 -4.001252,1.51328 -6.374178,2.40879 -0.848177,0.32008 -1.580948,0.62055 -1.628283,0.66766 -0.04734,0.0471 -0.0242,0.124 0.0514,0.17087 0.07561,0.0469 4.67144,1.9029 10.212863,4.12443 6.388456,2.56109 10.169367,4.02561 10.332338,4.00253 0.230866,-0.0327 20.344962,-8.04802 20.452232,-8.15005 0.1402,-0.13335 0.0118,-0.18714 -4.61959,-1.93571 -5.199318,-1.96296 -9.888523,-3.73387 -12.766433,-4.82139 z m 18.511906,10.90442 c -0.17643,-0.006 -0.44203,0.1224 -0.84396,0.27229 l -0.77107,0.28754 -0.0273,3.02806 c -0.015,1.66539 -0.005,3.08623 0.0225,3.15757 0.035,0.0911 0.32537,0.12971 0.97629,0.12971 0.87561,0 0.92959,-0.0127 0.98291,-0.23132 0.0312,-0.12723 0.0435,-1.66551 0.0277,-3.41841 -0.0229,-2.5419 0.0211,-3.2112 -0.36706,-3.22544 z m -30.264098,2.54253 c -0.0063,-2.6e-4 -0.01019,3.5e-4 -0.01185,0.002 -0.05015,0.0501 -0.09066,2.0889 -0.09016,4.53525 l 8.16e-4,4.4441 0.238952,0.25762 c 0.362778,0.39152 1.655773,1.2374 2.428468,1.58853 1.743826,0.79242 4.448279,1.47764 6.549076,1.65961 1.242657,0.10763 4.845438,0.0568 5.917962,-0.0835 3.208835,-0.42 5.625387,-1.21814 7.503275,-2.47806 1.230879,-0.82583 1.126289,-0.32569 1.126289,-5.38846 0,-3.44993 -0.0284,-4.418 -0.13193,-4.50393 -0.0976,-0.081 -1.598536,0.47757 -5.774994,2.14896 -3.103732,1.24209 -5.742391,2.28322 -5.863545,2.31361 -0.14334,0.036 -2.24488,-0.75495 -6.016756,-2.26462 -3.262482,-1.30579 -5.67959,-2.22315 -5.875594,-2.23108 z m 29.561298,5.24588 c -0.5046,7.8e-4 -1.00414,0.0182 -1.03773,0.0518 -0.086,0.0859 -1.77648,4.08705 -1.77627,4.20414 1e-4,0.069 0.60531,0.76163 1.34495,1.53912 v 2e-4 c 0.73965,0.7775 1.42194,1.4126 1.51624,1.41183 0.0943,-7.8e-4 0.78381,-0.64722 1.5323,-1.43612 1.30211,-1.37242 1.35626,-1.44668 1.2546,-1.72025 -0.33554,-0.90287 -1.67925,-3.94875 -1.76563,-4.00214 -0.0541,-0.0335 -0.56385,-0.0494 -1.06846,-0.0486 z m -0.92749,0.10783 0.98432,0.0291 0.98432,0.0293 -0.98432,-0.0291 z m 3.66238,4.10715 c 0.001,0.0781 -0.58057,0.7605 -1.29335,1.51644 -0.0363,0.0385 -0.0679,0.071 -0.10361,0.10863 0.68874,-0.74241 1.3984,-1.54802 1.39696,-1.62507 z m -5.29588,0.24377 c 0.071,0.10132 0.54237,0.60192 1.09596,1.16805 -0.52399,-0.53281 -1.00426,-1.03711 -1.09596,-1.16805 z m 2.5377,2.57727 c 0.0191,0.0163 0.0403,0.0347 0.0536,0.045 -0.0135,-0.0104 -0.0342,-0.0283 -0.0536,-0.045 z m -17.305102,2.82745 c -10.137726,0.002 -20.224023,0.0589 -20.707046,0.17088 -2.092896,0.48538 -3.891582,2.22511 -4.425018,4.27984 -0.223094,0.85937 -0.221022,2.2247 0.0048,3.07264 0.550875,2.06828 2.380204,3.80761 4.48064,4.26036 0.52866,0.11394 1.961032,0.14576 6.8565,0.15221 3.532889,0.005 6.212449,-0.0311 6.244864,-0.0835 0.03123,-0.0505 -0.01235,-0.28779 -0.09679,-0.5271 -0.252793,-0.71649 -0.199031,-1.41613 0.164656,-2.14393 0.174972,-0.35015 0.47569,-0.7624 0.668261,-0.91605 0.338798,-0.27033 0.350191,-0.30268 0.350194,-1.0044 7e-6,-1.64947 1.16802,-2.81442 2.827256,-2.81962 0.694341,-0.002 0.729442,-0.0146 0.998978,-0.35241 0.153652,-0.19256 0.565898,-0.49329 0.916048,-0.66826 1.115468,-0.55741 2.234364,-0.38247 3.203354,0.5008 0.52117,0.47506 0.557607,0.49011 1.307204,0.53834 0.496845,0.032 0.917324,0.12528 1.182308,0.26244 0.927629,0.48016 1.516913,1.46631 1.532903,2.56542 0.0088,0.60577 0.031,0.6606 0.440555,1.0795 0.237306,0.24272 0.525492,0.64954 0.640349,0.904 0.254598,0.56403 0.282013,1.59012 0.05683,2.12907 -0.08824,0.21117 -0.117641,0.41368 -0.06747,0.46385 0.04916,0.0492 3.445446,0.074 7.584396,0.0554 7.21067,-0.0323 7.52154,-0.0418 8.17656,-0.24417 1.9131,-0.59118 3.14015,-1.98725 3.37242,-3.83708 0.24263,-1.93226 -0.61266,-3.54667 -2.34112,-4.4192 -0.57217,-0.28882 -1.04395,-0.40532 -1.04395,-0.25782 0,0.0322 0.14587,0.27079 0.32429,0.53011 1.24484,1.80932 1.06767,4.59381 -0.35301,5.54709 -1.21275,0.81374 -3.47632,0.68229 -4.68345,-0.27189 -1.48312,-1.17233 -1.65689,-3.98805 -0.352,-5.7035 0.88826,-1.16774 2.68631,-1.94242 5.03846,-2.17085 0.40995,-0.0398 0.74537,-0.1151 0.74537,-0.16746 0,-0.18696 -1.14807,-0.61643 -2.03149,-0.75983 -0.68907,-0.11186 -10.878147,-0.16629 -21.015873,-0.16486 z m -0.495975,4.80272 c -0.725032,-0.004 -1.332262,0.26237 -1.842736,0.80882 -0.204624,0.21905 -0.342657,0.26709 -0.77107,0.26787 -1.33804,0.003 -2.405713,1.08542 -2.419434,2.45397 -0.0037,0.369 -0.07116,0.52389 -0.37429,0.85942 -0.486269,0.53824 -0.658221,0.97516 -0.658221,1.67186 0,0.69251 0.204007,1.2163 0.660832,1.69636 0.290522,0.3053 0.350317,0.45443 0.394771,0.98411 0.115754,1.37921 0.993373,2.25934 2.378069,2.3849 0.515024,0.0467 0.678594,0.11053 0.932111,0.36405 0.169097,0.1691 0.493435,0.39205 0.720871,0.49537 0.847816,0.38514 1.947054,0.18465 2.733483,-0.49859 0.272023,-0.23633 0.487335,-0.32024 0.937331,-0.36525 1.374988,-0.13753 2.338029,-1.11209 2.343733,-2.37204 0.002,-0.43375 0.05573,-0.55919 0.415453,-0.96786 0.938938,-1.06669 0.898971,-2.51772 -0.09538,-3.46238 -0.264426,-0.25121 -0.317963,-0.3808 -0.318469,-0.77107 -9.32e-4,-0.77445 -0.183809,-1.22878 -0.701994,-1.74475 -0.520997,-0.51877 -1.035403,-0.7291 -1.7833,-0.7291 -0.377335,0 -0.5098,-0.0555 -0.759023,-0.31787 -0.499852,-0.52614 -1.037836,-0.7535 -1.792737,-0.75782 z m -2.030685,1.12227 c -0.08793,0.0341 -0.189049,0.0489 -0.328508,0.0544 0.139459,-0.006 0.240579,-0.0203 0.328508,-0.0544 z m 4.785253,0.0663 c 0.08785,0.006 0.171443,0.0156 0.251602,0.0285 0.08016,0.0129 0.156894,0.0293 0.230718,0.0494 0.07382,0.0201 0.144802,0.044 0.213651,0.0719 0.06885,0.0279 0.135568,0.0598 0.200799,0.096 0.06523,0.0362 0.128992,0.0766 0.191965,0.12169 -0.06297,-0.0451 -0.126733,-0.0855 -0.191965,-0.12169 -0.06523,-0.0362 -0.13195,-0.0681 -0.200799,-0.096 -0.06885,-0.0279 -0.139826,-0.0518 -0.213651,-0.0719 -0.07382,-0.0201 -0.15056,-0.0365 -0.230718,-0.0494 -0.08016,-0.0129 -0.163751,-0.0223 -0.251602,-0.0285 z m -2.63971,1.46784 c 0.771739,0.0194 1.544491,0.30714 2.183493,0.89115 0.759299,0.69396 1.127871,1.52291 1.115642,2.50959 -0.01956,1.5785 -0.876294,2.79437 -2.312406,3.28187 -0.506815,0.17204 -1.573297,0.20935 -2.026871,0.0709 -0.863776,-0.2637 -1.707504,-0.98976 -2.176064,-1.87266 -0.199455,-0.37582 -0.237663,-0.60299 -0.238751,-1.42387 -0.0011,-0.80758 0.03884,-1.05819 0.230519,-1.44716 0.654993,-1.32917 1.938205,-2.04213 3.224438,-2.0098 z m 1.004198,0.058 c 0.783781,0.2516 1.496002,0.78415 1.973658,1.61744 -0.449852,-0.77982 -1.146107,-1.34422 -1.973658,-1.61744 z m -2.938902,0.33313 c -0.785682,0.48235 -1.390303,1.2707 -1.632298,2.23168 0.259074,-1.0288 0.870571,-1.77936 1.632298,-2.23168 z m 4.925612,1.30761 c 0.03658,0.0648 0.07233,0.13076 0.106022,0.19919 -0.03348,-0.068 -0.06908,-0.1341 -0.106022,-0.19919 z m -1.003998,4.59208 c -0.0173,0.0134 -0.03494,0.026 -0.05241,0.0389 -0.146931,0.10944 -0.299191,0.20598 -0.45461,0.28554 -0.284935,0.14586 -0.619477,0.24836 -0.974479,0.30461 0.523807,-0.0888 1.007391,-0.28926 1.429089,-0.59015 0.01771,-0.0126 0.03492,-0.0259 0.05241,-0.0389 z m -1.518847,0.63513 c -0.01523,0.002 -0.03048,0.004 -0.04578,0.006 0.01524,-0.002 0.0306,-0.004 0.04578,-0.006 z m -2.354975,1.6837 c 0.12524,0.14057 0.407532,0.34694 0.666653,0.49176 -0.26466,-0.13827 -0.504673,-0.30996 -0.666653,-0.49176 z m -0.643966,0.18534 -0.668059,0.0297 -0.66806,0.0297 -1.096566,1.59355 c -0.603116,0.87645 -1.100547,1.64869 -1.105401,1.71603 -0.0151,0.20928 0.120702,0.22086 0.916449,0.0781 1.293122,-0.23198 1.233828,-0.2534 1.860206,0.66987 0.542426,0.79951 0.763161,0.97205 0.873879,0.68352 0.03002,-0.0782 0.233487,-0.96882 0.452201,-1.97908 l 0.397583,-1.83671 -0.481116,-0.49237 z m 5.121191,0.0181 c -0.296308,0.009 -0.385876,0.0924 -0.716854,0.41726 -0.245445,0.24088 -0.446177,0.52412 -0.446177,0.6293 0,0.1803 0.66096,3.31132 0.780708,3.69833 0.105864,0.34213 0.326533,0.17655 0.872074,-0.65441 l 0.54758,-0.83432 0.519067,0.0685 c 1.351426,0.17818 1.701373,0.19034 1.701373,0.0596 0,-0.1245 -0.744577,-1.2636 -1.74816,-2.67465 l -0.475293,-0.66826 -0.652397,-0.0311 c -0.161296,-0.008 -0.283151,-0.0131 -0.381921,-0.0102 z m -3.291304,0.50481 c 0.313319,0.0892 0.633632,0.10767 0.949581,0.0568 -0.134955,0.0261 -0.265236,0.0425 -0.36907,0.043 -0.17411,7.8e-4 -0.374975,-0.0358 -0.580511,-0.0998 z m -1.418247,2.35819 c -0.0061,0.0286 -0.01112,0.0539 -0.01727,0.0827 -0.208268,0.9754 -0.428453,1.77283 -0.489348,1.77205 0.05076,7.8e-4 0.291282,-0.92515 0.506617,-1.85478 z"
                id="path8431"
                inkscape:connector-curvature="0"/>
    </g>
</svg>
