<?xml version="1.0" encoding="UTF-8" standalone="no"?>
<!-- Created with Inkscape (http://www.inkscape.org/) -->

<svg
        xmlns:dc="http://purl.org/dc/elements/1.1/"
        xmlns:cc="http://creativecommons.org/ns#"
        xmlns:rdf="http://www.w3.org/1999/02/22-rdf-syntax-ns#"
        xmlns:sodipodi="http://sodipodi.sourceforge.net/DTD/sodipodi-0.dtd"
        xmlns:inkscape="http://www.inkscape.org/namespaces/inkscape"
        xmlns="http://www.w3.org/2000/svg"
        width="676"
        height="507"
        viewBox="0 0 178.85833 134.14375"
        version="1.1"
        id="svg8535"
        inkscape:version="0.92.1 r15371"
        sodipodi:docname="socped.svg"
        inkscape:export-filename="C:\Users\Алексей\Desktop\ПФДО\диз\default-program-image\robot.png"
        inkscape:export-xdpi="95"
        inkscape:export-ydpi="95">
    <defs
            id="defs8529"/>
    <sodipodi:namedview
            id="base"
            pagecolor="#ffffff"
            bordercolor="#666666"
            borderopacity="1.0"
            inkscape:pageopacity="0.0"
            inkscape:pageshadow="2"
            inkscape:zoom="0.35"
            inkscape:cx="463.51285"
            inkscape:cy="350.81955"
            inkscape:document-units="mm"
            inkscape:current-layer="layer1"
            showgrid="false"
            units="px"
            gridtolerance="4"
            objecttolerance="5"
            guidetolerance="4"
            inkscape:window-width="1366"
            inkscape:window-height="706"
            inkscape:window-x="-8"
            inkscape:window-y="-8"
            inkscape:window-maximized="1"/>
    <metadata
            id="metadata8532">
        <rdf:RDF>
            <cc:Work
                    rdf:about="">
                <dc:format>image/svg+xml</dc:format>
                <dc:type
                        rdf:resource="http://purl.org/dc/dcmitype/StillImage"/>
                <dc:title></dc:title>
            </cc:Work>
        </rdf:RDF>
    </metadata>
    <g
            inkscape:label="Layer 1"
            inkscape:groupmode="layer"
            id="layer1"
            transform="translate(0,-162.85624)">
        <rect
                style="opacity:1;fill:#003380;fill-opacity:1;stroke:none;stroke-width:0.63653022;stroke-miterlimit:4;stroke-dasharray:none;stroke-opacity:1"
                id="rect13012"
                width="178.85834"
                height="134.14375"
                x="-1.2011719e-006"
                y="162.85623"/>
        <g
                id="g9358"
                transform="matrix(0.22911662,0,0,0.22911662,113.80509,197.15503)"
                style="fill:#ffffff">
            <path
                    style="fill:#ffffff;stroke-width:0.09323413"
                    d="m -103.42453,34.490062 c -9.10223,5.768552 -0.77708,20.605387 -3.76421,29.973019 -2.99203,11.846449 11.170675,7.263677 6.58968,-2.135159 -1.02802,-8.409667 5.58415,-22.601336 -2.82547,-27.83786 z m 1.45468,0.228928 1.5853,1.474336 z m -4.13153,0.92139 -0.12506,0.122473 z m -0.34313,0.366903 -0.0646,0.08216 z m -0.94102,1.869652 0.0117,0.395603 z m 7.733876,0.147796 0.01265,0.254901 z m 0.09768,0.595312 0.01011,0.355062 z m 0.09819,0.855761 0.0088,0.690917 z m -27.009726,1.966804 c -0.69515,0.04484 0.62942,0.06084 0,0 z m -0.73329,0.09405 -3.4e-4,0.05378 z m 1.49138,0 3.6e-4,0.05378 z m -0.63408,0.0026 c -7.68068,8.873313 3.50873,22.713328 5.51878,32.955099 6.8653,5.452293 1.5899,-10.912927 1.29268,-14.741577 -2.34789,-5.89467 1.33998,-15.843678 -6.81146,-18.213522 z m 5.05603,31.645098 c -0.35205,-0.748567 0.19338,1.000397 0,0 z m -3.79822,-31.471981 0.15046,0.0991 z m 0.33951,0.224274 0.38763,0.242098 z m -3.4339,0.0078 -0.74142,0.802242 z m 4.20958,0.527101 1.65946,1.723223 z m 16.40467,0.01447 0.007,1.262511 z m -21.82503,1.638144 0.0119,0.395176 z m 29.938236,0.270269 0.0067,2.209005 z m -22.667856,0.113686 0.30267,0.611958 z m 40.044577,0.103354 c -1.570198,0.04494 1.57008,0.04496 0,0 z m -1.071774,0.09353 -0.45968,0.127921 z m 1.113102,0.0016 c -9.407894,5.650672 -3.425399,21.590596 -12.052255,29.34542 0.05322,11.142803 -17.48432,-2.002236 -16.72473,10.896595 -5.56119,-4.52212 -12.13355,3.460907 -17.72772,4.579126 -5.70692,11.130626 7.13897,20.335736 5.53269,31.851886 2.17192,12.77272 15.8265,4.54395 23.928918,5.1687 9.734291,-2.56781 19.439974,-7.28141 27.122717,-13.86008 4.325461,-4.78843 21.760692,-14.867911 8.891742,-19.75892 -8.060474,2.248627 -18.176885,18.88365 -25.396509,7.84494 -4.740403,-4.763643 3.175934,-18.052788 4.345685,-25.954777 -1.81064,-7.557493 6.715034,-14.519948 7.019506,-24.057472 0.535134,-3.019446 -1.85166,-6.385089 -4.940044,-6.055418 z m -2.596224,27.826726 c 0.973406,1.656322 -0.917224,-2.178083 0,0 z m -3.102636,16.387111 0.08785,-0.04048 z m -4.567185,-18.776113 -0.6121,0.97117 z m 12.679866,-24.944731 0.387558,0.242208 z m 0.706913,0.500229 1.012825,1.127335 z m -28.470089,2.125967 0.008,0.517256 z m 21.04522,0.0739 0.03478,0.219023 z m -0.07543,0.380857 0.01189,0.254734 z m -34.40359,0.18655 0.0119,0.254738 z m 43.727057,0.373104 0.01187,0.254721 z m -30.203857,0.03566 0.0102,0.355077 z m -13.42967,0.05736 0.0119,0.254741 z m 21.176487,0.452171 0.0072,1.262509 z m 22.559354,0.157612 0.0083,0.657219 z m -30.213141,0.07596 0.006,0.311492 z m -13.33201,0.469223 0.0101,0.354956 z m -8.48474,0.279569 0.0102,0.355058 z m 52.029891,0.387057 0.0083,0.657225 z m -43.446971,0.276984 0.008,0.617917 z m -8.51111,0.03824 0.0348,0.218496 z m 0.093,0.372589 0.0329,0.216421 z m 0.093,0.373102 0.0357,0.218433 z m 29.117586,0.127641 0.0067,0.810458 z m 22.556258,0.0093 0.01012,0.355051 z m -0.09766,0.710036 0.01265,0.254888 z m -51.286804,0.170014 0.20917,0.597605 z m 8.03568,0.250631 0.008,0.617783 z m 43.174633,0.03928 -0.114765,0.51123 z m -9.974077,0.171048 -0.105618,0.327058 z m -40.974246,0.270267 0.11109,0.274105 z m 28.471652,0.07855 0.0077,0.617917 z m 12.279868,0.224277 0.03478,0.218504 z m 10.021094,0.02945 -0.193219,0.538803 z m -29.573374,0.212392 0.008,0.617981 z m 19.476847,0.139009 0.01188,0.254736 z m 9.829377,0.444418 -0.137566,0.270834 z m -9.922907,0.0217 0.01265,0.254901 z m -12.205467,0.291454 0.0077,0.51665 z m -7.11171,0.0739 0.0357,0.218432 z m 19.228277,0.139526 0.01184,0.395726 z m -32.840377,0.419613 0.0329,0.216416 z m 20.626655,0.413928 0.0071,0.315953 z m -0.07027,0.486793 -0.147295,0.425491 z m -19.827215,1.117243 0.12994,0.40109 z m 0.22116,0.60048 0.0119,0.254744 z m 0.0972,0.49971 0.006,0.31096 z m 18.83762,0.167434 0.009,0.556029 z m 12.2809,0.350882 0.03484,0.218492 z m -31.02499,0.136944 0.0101,0.354956 z m 39.736608,0.336412 -0.176908,0.454158 z m -8.880607,0.466638 0.01191,0.254731 z m -30.757811,0.14366 0.008,0.65673 z m 30.668937,0.355534 0.0071,0.315948 z m -18.553907,0.466122 0.006,0.311492 z m 18.460377,0.09354 0.007,0.315348 z m -11.955357,0.238744 0.0349,0.218495 z m 11.862329,0.322977 0.01023,0.355563 z m -11.745019,0.12919 0.009,0.456003 z m 20.061826,0.02119 -0.176648,0.454139 z m -26.770466,0.02894 0.008,0.859281 z m 18.360632,0.476457 0.01174,0.395609 z m -36.290282,0.23306 0.0354,0.218475 z m 0.0935,0.373105 0.0348,0.218492 z m 36.103222,0.233059 0.01225,0.395721 z m -36.010192,0.139528 0.0328,0.216941 z m 0.0935,0.373102 0.0348,0.218495 z m 24.73545,0.221176 0.007,0.819853 z m -24.56233,0.441317 0.41599,1.238411 z m 24.46774,1.257805 0.007,0.617779 z m -23.90294,0.387572 0.11064,0.274069 z m 42.097199,0.03049 -0.176877,0.453985 z m -41.911139,0.435634 0.11113,0.274089 z m 41.64809,0.288872 -0.137457,0.270845 z m -18.02577,0.126606 0.007,0.510149 z m -23.44457,0.06718 0.34233,0.679036 z m 41.271903,0.291455 -0.677714,1.357297 z m -24.722013,0.210841 0.007,1.363351 z m 6.79752,0.483174 0.0117,0.395608 z m 9.641288,0.197919 -0.914052,0.928904 z m -32.209928,0.373105 0.28788,0.558072 z m 5.43637,0.0057 -0.0665,1.154976 z m 17.03874,0.163817 0.006,0.310956 z m 8.809808,0.483174 -0.275024,0.248433 z m -15.462118,0.41031 0.10629,0.338865 z m -38.9754,1.279509 c -0.4636,0.07254 0.53137,0.04179 0,0 z m 1.57355,0.09198 c -0.90244,0.05034 0.90257,0.0503 0,0 z m -1.26968,0.03669 c -3.43685,6.970475 7.6643,13.497971 11.65045,18.678252 10.01059,-7.476647 -6.33411,-15.044893 -11.65045,-18.678252 z m 28.33368,0.08113 0.0347,0.218509 z m -29.20858,0.05788 -0.27426,0.249161 z m -0.30644,0.387056 -0.25092,0.392036 z m 41.6016,0.2775 -0.0253,0.04898 z m 12.211666,0.0098 -0.137537,0.270842 z m -28.400856,0.01395 0.0329,0.216454 z m 16.58091,0.06976 c -0.46189,0.07343 0.53352,0.04085 0,0 z m -38.5899,0.109553 0.0537,0.06511 z m 40.26834,0.170016 c -0.46368,0.0729 0.53337,0.04141 0,0 z m 9.928093,0.106452 -0.422303,1.227513 z m -53.995693,0.20464 0.0127,0.254895 z m 5.01264,0.454752 1.00398,0.698815 z m -5.09429,0.355534 0.008,0.960083 z m 30.55165,0.02067 0.0328,0.216417 z m 32.818654,0 0.03476,0.218504 z m -37.027194,0.196369 0.41583,1.238483 z m 4.30207,0.176733 0.0348,0.218497 z m 32.839847,0.04134 0.0071,0.315358 z m -9.964764,0.242364 -0.129731,0.428986 z m -22.875083,0.182417 0.0348,0.218496 z m -0.047,0.340032 -0.11971,0.308552 z m 22.736095,0.130225 -0.130731,0.429389 z m -53.270155,0.182417 0.0329,0.216451 z m 26.75652,0.09612 0.20621,0.418707 z m 3.47369,0.192752 -0.40392,0.582449 z m 22.820314,0.177252 0.03448,0.218475 z m -0.09303,0.373102 0.03398,0.21855 z m -25.729694,0.104386 0.95258,0.86576 z m -18.2144,0.126609 1.73384,1.158103 z m -8.34003,0.05994 1.07651,0.842574 z m 28.9393,0.04651 -0.63107,0.65247 z m 23.251293,0.03566 0.03484,0.218491 z m -50.914193,0.905888 0.23921,0.17926 z m 40.34224,0.653706 c -1.18919,0.04371 1.11778,0.05254 0,0 z m 1.40922,0.09354 c -0.90451,0.04998 0.90233,0.05066 0,0 z m -2.42416,0.0016 -3.4e-4,0.05378 z m 3.43752,0.0925 c -0.69716,0.04428 0.62746,0.06137 0,0 z m -3.80855,0.0062 -0.65268,0.304004 z m 4.47313,0.08785 3.3e-4,0.05317 z m 0.45836,0.0925 -0.0259,0.05262 z m -42.96225,0.07907 0.78012,1.210044 z m 46.979048,0.760677 3.57e-4,0.05378 z m -36.573988,0.150378 1.74618,1.55422 z m -9.55807,0.396875 1.14117,1.383175 z m 57.647651,1.10226 0.007,0.315349 z m -46.267981,0.203086 0.18856,0.224961 z m 22.8446,0.221692 0.0347,0.21851 z m -0.0718,0.41393 0.006,0.311485 z m -22.28443,0.01705 0.39706,0.798299 z m 45.779641,0.35605 0.0071,0.315838 z m -0.08062,0.519866 -0.114975,0.510973 z m -0.182933,0.730705 -0.13965,0.304726 z m -44.883568,0.01344 0.0329,0.216942 z m 18.29448,0.291454 0.9478,0.962447 z m -18.17098,0.503846 0.007,1.123431 z m 12.62351,1.045414 -0.41127,0.127744 z m 8.06257,0.216525 -0.42323,0.14366 z m -0.71313,0.06201 0.12248,0.05736 z m -27.56371,0.03152 c 0.80895,1.165122 1.58444,2.282063 0,0 z m 27.69754,0.02946 0.14157,0.02171 z m 23.805775,0.445453 0.0076,1.060933 z m -44.014365,0.02635 0.006,0.310956 z m 11.10888,0.141076 -0.92227,0.944761 z m -11.29647,0.887283 -0.40357,1.018896 z m 7.41249,0.02429 c -1.07141,0.04827 1.06917,0.04883 0,0 z m 0.94361,0.09457 c -0.4638,0.07193 0.53144,0.04287 0,0 z m 1.63814,0.504362 -0.1814,0.02687 z m 34.106961,0.119891 0.0069,0.31524 z m -49.718411,0.52193 0.29823,0.601588 z m 49.620727,0.0041 0.01192,0.25473 z m -44.907327,0.518314 -0.0827,0.106455 z m -4.41005,0.137977 0.68962,0.670785 z m 3.77597,0.515213 -0.0305,0.02429 z m -0.75395,0.381889 -0.0259,0.05262 z m -0.92448,0.09198 c -1.23782,0.04691 1.23781,0.04691 0,0 z m -10.02266,0.609782 c -12.47989,7.228745 10.97449,25.068043 -4.39698,30.302803 -10.91261,-1.15599 -19.71893,-10.45174 -29.09003,-15.90372 -5.14104,-4.12979 -18.88964,-20.022341 -21.91055,-7.657497 3.87302,9.747787 17.685,9.175807 22.93386,18.585797 8.20788,5.99931 -6.26249,15.52893 4.76974,20.71394 -5.35433,4.14671 -2.4212,14.59007 -0.21585,19.41518 9.96697,5.44525 22.48257,0.0401 33.00982,4.41567 11.80554,-4.97093 9.51565,-21.01397 10.56341,-31.5344 0.1561,-11.71433 -6.17427,-21.41249 -8.73757,-32.447404 -1.13859,-2.989111 -3.77469,-5.266502 -6.92585,-5.890369 z m 98.73972,0.22996 c -6.035668,3.090761 -17.942978,22.123323 -5.224719,18.749883 4.588395,-3.82831 7.626365,-14.108112 5.224719,-18.749883 z m -83.84294,1.329635 0.0325,0.216453 z m 41.116357,0 0.03444,0.218478 z m -0.09303,0.373102 0.03395,0.218553 z m -41.094657,0.04082 0.006,0.310846 z m 41.001127,0.331763 0.03475,0.218507 z m 26.172556,0.06821 c -1.570099,0.04495 1.570099,0.04495 0,0 z m -1.126543,0.09457 -0.0259,0.05262 z m 2.237581,0 -0.0259,0.05262 z m -2.602415,0.08992 -0.265478,0.09179 z m -65.771706,0.139526 0.008,0.517185 z m 65.245635,0.03876 -0.258078,0.156587 z m -0.514191,0.309542 -0.353139,0.213777 z m -23.875523,0.221175 -0.193368,0.538695 z m 23.408375,0.04857 -0.398265,0.26749 z m 6.105577,0.350883 0.128667,0.133326 z m -70.461843,0.188619 0.008,0.657222 z m 40.570118,0.509013 -0.176263,0.454084 z m -0.279558,0.745691 -0.176403,0.454218 z m -40.38409,0.237195 0.009,0.657281 z m 60.681547,0.769979 -1.550819,1.821244 z m 11.294401,0.406177 0.0086,0.556521 z m 45.46338,0.518314 c -9.791921,4.230189 -23.201224,12.664859 -26.096382,21.795969 9.49567,-2.59157 17.996828,-9.65437 26.899497,-14.2945 3.2922893,-1.98028 2.709465,-6.114257 -0.803115,-7.501469 z m -117.529258,0.06821 0.007,1.122942 z m 58.548368,1.891357 -0.363299,0.432532 z m -58.467748,0.02481 0.0121,0.254774 z m 0.19068,0.733292 0.022,0.14537 z m 56.001758,0.64337 -0.549624,0.3009 z m 14.320043,0.67179 -0.490587,0.9844 z m -27.59366,0.8506 0.353616,0.4984 z m 27.016445,0.22841 -0.198952,0.37453 z m -67.808256,0.50126 0.0325,0.21646 z m 0.093,0.3731 0.0329,0.21645 z m 0.0796,0.38086 0.32595,0.9662 z m 47.242589,0.0796 -0.352405,0.21381 z m -46.741339,1.21284 0.0218,0.14541 z m 64.547479,0.44597 -0.72389,0.5202 z m -0.940514,0.64027 -0.662394,0.39204 z m -62.781175,0.0904 0.077,0.11885 z m 58.840338,2.43964 -0.284708,0.14114 z m -1.754399,0.38706 -0.566807,0.45019 z m -144.515729,0.61856 c -9.4196,9.8525 13.0044,10.54674 18.75711,14.57777 4.79876,4.42768 19.33395,2.37572 8.95491,-4.0436 -9.41076,-2.97908 -17.84274,-9.09721 -27.71202,-10.53417 z m 89.02454,0.23875 0.0119,0.25474 z m 0.0646,0.46095 0.10603,0.33881 z m 53.50166,1.62729 -0.260975,0.34209 z m -52.99419,0.9741 0.007,1.26252 z m 66.494131,1.04283 c -11.276939,1.14162 -15.377496,14.82292 -26.558132,16.76865 -9.091798,9.93478 4.509316,23.00439 10.308836,31.37273 8.426452,9.54557 19.828995,15.85302 31.369988,20.44523 12.129536,1.73158 5.207492,-12.39055 -2.919154,-12.80851 -12.474129,-2.50894 -9.167799,-21.62103 3.728954,-17.33157 13.386964,-4.54403 27.557096,-0.75128 40.92322099,-4.36272 8.83118801,-4.48003 -2.11105679,-11.9286 -8.07142919,-7.35339 -10.4034578,0.52234 -27.3298198,6.39327 -28.0844828,-8.7116 -1.978296,-6.07248 -10.589001,4.1e-4 -8.184273,-7.22761 -4.359245,-3.13704 -7.001853,-10.31809 -12.513528,-10.79121 z m -66.431081,1.01493 0.0348,0.21849 z m 125.08899336,0.77153 c -9.52165056,5.19986 -27.13347136,6.31433 -30.93777036,15.37082 8.711143,3.83217 19.553546,-4.87518 28.9239754,-6.24216 4.7799971,-1.46813 9.8658533,-6.94602 2.01379496,-9.12866 z m -76.85629836,0.83457 -1.115704,0.9969 z m -1.363715,1.17564 -0.461913,0.23377 z m -0.837168,0.27182 -3.57e-4,0.0538 z m -3.753273,1.42575 c -1.809826,0.0218 -0.05939,0.70744 0,0 z m -3.554281,1.78801 -0.427811,0.28113 z m -37.485578,0.22117 0.008,0.61799 z m 35.600925,0.76688 -0.572175,0.24467 z m -35.512555,0.33796 0.007,0.31523 z m 0.0713,0.51832 0.0326,0.21645 z m 0.0853,0.34933 0.11111,0.27447 z m 29.884471,1.79576 -0.945604,0.32908 z m -1.19425,0.3483 -0.02538,0.0485 z m -0.372586,0.093 -0.02636,0.0487 z m -0.839205,0.18656 -0.02593,0.0487 z m -1.757522,0.49299 -0.639365,0.11142 z m -1.218538,0.15916 c -0.735204,0.0527 0.735204,0.0527 0,0 z m -0.944113,0.093 c -0.854027,0.0447 0.785337,0.0572 0,0 z m -2.039167,0.18655 c -0.73509,0.0528 0.7352,0.0527 0,0 z m -0.93223,0.093 c -0.73499,0.0531 0.73497,0.0531 0,0 z m -1.21232,0.093 c -1.06948,0.0485 1.07146,0.048 0,0 z m -15.92877,0.85576 0.39212,0.25089 z m 9.49556,0.20309 c -2.65454,-0.79389 -0.34187,2.23624 0,0 z m -8.90075,0.0599 0.28531,0.14104 z m 0.97616,0.28112 -3.4e-4,0.0538 z m 0.45839,0.093 -0.0259,0.0485 z m 6.11124,0.18552 -0.28472,0.14115 z m -4.23902,0.18758 3.6e-4,0.0532 z m 0.47749,0.093 c -0.46376,0.0569 0.53421,0.0532 0,0 z m 2.78588,0 -3.4e-4,0.0538 z m -1.38957,0.092 c -1.78634,0.0331 1.85793,0.0487 0,0 z m -99.35001,3.87211 c -13.3906,3.80751 5.24519,12.53358 11.41825,8.80665 5.66182,1.62576 26.23729,0.10449 12.32258,-4.46744 -7.96839,-1.42556 -15.94412,-2.37319 -23.74083,-4.33921 z m 31.1888,21.66483 c -4.31523,1.88075 -20.40747,8.23218 -12.05626,11.91002 5.07123,-2.02031 28.8431,-5.74129 12.05626,-11.91002 z m 31.87297,6.0296 c -8.47048,4.19592 -27.83631,-4.0212 -27.57839,9.89013 7.02577,6.37114 23.47672,-3.52415 26.78033,8.30909 -0.52228,11.23116 -13.78152,12.99479 -19.39658,21.29217 -6.52041,6.89287 -20.11335,8.10913 -21.41298,19.04172 8.86375,9.83538 16.61128,-11.63442 26.62239,-12.7558 7.5234,-10.84747 15.31423,11.78798 22.07167,0.12244 5.71829,9.47841 25.52765,9.88677 25.146,-5.02684 0.84586,-10.79795 15.71433,-23.36424 -0.16116,-30.33078 -9.19715,-6.11655 -19.79837,-8.15047 -30.49983,-9.97984 z m 64.731449,2.28152 c -13.212161,7.14573 -22.069449,20.51928 -26.933399,34.35336 0.30255,9.47841 -11.28249,22.46539 0.40556,28.43387 10.43062,-1.76589 2.87947,-22.37483 15.511412,-23.3903 12.260181,3.18369 11.005694,20.03607 18.162766,28.68421 0.432261,7.27639 7.699394,29.63739 15.09629,16.74906 -3.007844,-10.17329 -10.581424,-18.01972 -10.362593,-29.16241 0.304314,-7.96498 12.905041,-6.90735 8.044189,-17.04158 7.224076,-1.83577 14.84252,-18.53092 4.431464,-23.40119 -9.254518,-1.91671 -14.501651,-10.71129 -22.133109,-14.94819 z m 36.36883,20.22926 c -7.459125,10.09099 14.929124,12.49182 19.018963,6.80183 -4.766176,-5.54677 -12.922971,-3.99547 -19.018963,-6.80183 z m -5.879226,20.19876 c 3.877261,10.51355 15.492794,16.63107 22.991403,24.04728 14.415937,-5.16971 -9.338353,-15.38327 -14.782371,-20.12668 -2.620933,-1.53056 -5.350565,-2.89083 -8.209032,-3.9206 z m -101.705933,9.06456 c -10.0867,3.99961 -13.44373,15.82611 -21.82622,21.93297 -5.56584,8.1707 5.57404,13.11554 8.13795,3.42731 2.97314,-7.7481 18.49195,-17.67761 13.68827,-25.36028 z m 94.686219,2.95021 c -7.610381,7.35055 7.802818,15.79629 9.602849,23.75984 1.765017,6.57415 15.312424,11.47553 11.075813,0.86268 -6.824076,-7.9313 -12.812301,-17.23608 -20.068515,-24.41802 l -0.591538,-0.19826 z m -60.698109,1.29605 c -9.89883,2.24736 -3.36158,22.19308 1.75443,20.87052 3.39975,-5.92504 1.25171,-16.03104 -1.75443,-20.87052 z m -18.89289,1.37407 c -7.15936,8.42736 -17.09139,22.05185 -14.20727,32.29196 10.64974,-1.39236 10.14062,-18.93203 14.39118,-27.40856 0.39878,-1.58467 0.58763,-3.36448 -0.18391,-4.8834 z"
                    id="path9368"
                    inkscape:connector-curvature="0"/>
        </g>
    </g>
</svg>
