<?xml version="1.0" encoding="UTF-8" standalone="no"?>
<!-- Created with Inkscape (http://www.inkscape.org/) -->

<svg
        xmlns:dc="http://purl.org/dc/elements/1.1/"
        xmlns:cc="http://creativecommons.org/ns#"
        xmlns:rdf="http://www.w3.org/1999/02/22-rdf-syntax-ns#"
        xmlns:sodipodi="http://sodipodi.sourceforge.net/DTD/sodipodi-0.dtd"
        xmlns:inkscape="http://www.inkscape.org/namespaces/inkscape"
        xmlns="http://www.w3.org/2000/svg"
        width="676"
        height="507"
        viewBox="0 0 178.85833 134.14375"
        version="1.1"
        id="svg8535"
        inkscape:version="0.92.1 r15371"
        sodipodi:docname="turist.svg"
        inkscape:export-filename="C:\Users\Алексей\Desktop\ПФДО\диз\default-program-image\robot.png"
        inkscape:export-xdpi="95"
        inkscape:export-ydpi="95">
    <defs
            id="defs8529"/>
    <sodipodi:namedview
            id="base"
            pagecolor="#ffffff"
            bordercolor="#666666"
            borderopacity="1.0"
            inkscape:pageopacity="0.0"
            inkscape:pageshadow="2"
            inkscape:zoom="0.70000001"
            inkscape:cx="368.85074"
            inkscape:cy="208.61777"
            inkscape:document-units="mm"
            inkscape:current-layer="layer1"
            showgrid="false"
            units="px"
            gridtolerance="4"
            objecttolerance="5"
            guidetolerance="4"
            inkscape:window-width="1366"
            inkscape:window-height="706"
            inkscape:window-x="-8"
            inkscape:window-y="-8"
            inkscape:window-maximized="1"/>
    <metadata
            id="metadata8532">
        <rdf:RDF>
            <cc:Work
                    rdf:about="">
                <dc:format>image/svg+xml</dc:format>
                <dc:type
                        rdf:resource="http://purl.org/dc/dcmitype/StillImage"/>
                <dc:title></dc:title>
            </cc:Work>
        </rdf:RDF>
    </metadata>
    <g
            inkscape:label="Layer 1"
            inkscape:groupmode="layer"
            id="layer1"
            transform="translate(0,-162.85624)">
        <rect
                style="opacity:1;fill:#5a2ca0;fill-opacity:1;stroke:none;stroke-width:0.63653022;stroke-miterlimit:4;stroke-dasharray:none;stroke-opacity:1"
                id="rect13012"
                width="178.85834"
                height="134.14375"
                x="-1.2011719e-006"
                y="162.85623"/>
        <path
                style="fill:#ffffff;stroke-width:0.09956692"
                d="m 105.74355,254.61548 c 0.0633,-0.24212 -0.0976,-0.25787 -0.34521,-0.0338 -0.23899,0.21627 -0.34368,0.10109 -0.19826,-0.21806 0.13082,-0.28712 0.0101,-0.3865 -0.39913,-0.32852 -0.16495,0.0233 -0.23997,0.10779 -0.2616,0.29443 -0.0274,0.23645 -0.0802,0.26705 -0.54762,0.31758 -0.515,0.0557 -0.51915,0.0538 -0.93764,-0.41101 -0.37254,-0.41383 -0.40208,-0.48069 -0.25969,-0.58781 0.0884,-0.0665 0.21031,-0.13874 0.271,-0.16059 0.0653,-0.0234 0.0149,-0.14364 -0.12335,-0.29409 l -0.23368,-0.25439 0.23368,-0.0354 c 0.12853,-0.0195 0.22249,-0.0904 0.2088,-0.15753 -0.0445,-0.21829 0.2072,-0.12923 0.53631,0.18977 0.42565,0.41255 0.68421,0.33763 0.58886,-0.17065 -0.0366,-0.19497 -0.0941,-0.42631 -0.12773,-0.51406 -0.0484,-0.12612 -0.0211,-0.14283 0.13029,-0.0797 0.49645,0.20703 0.58392,0.17716 0.77451,-0.26448 l 0.1847,-0.42802 0.13985,0.32526 0.13985,0.32526 0.26739,-0.1752 c 0.14706,-0.0963 0.34649,-0.16179 0.44318,-0.14541 0.0967,0.0163 0.27629,-0.024 0.39913,-0.0897 0.26227,-0.14035 1.20227,-0.39882 1.2558,-0.3453 0.0203,0.0203 -0.0336,0.17322 -0.11983,0.33988 -0.3823,0.73929 -0.0226,0.83579 0.43826,0.11759 0.21489,-0.33488 0.29625,-0.55938 0.25258,-0.69697 -0.0764,-0.24056 0.12422,-0.28157 0.21538,-0.044 0.0442,0.11515 0.13971,0.14319 0.34677,0.10172 l 0.28579,-0.0572 -0.15924,0.30793 c -0.21795,0.42147 -0.0508,0.59935 0.33261,0.35391 0.93208,-0.59667 2.11384,-1.03429 2.11384,-0.78278 0,0.0576 -0.047,0.13382 -0.10441,0.1693 -0.072,0.0445 -0.0697,0.10628 0.007,0.19881 0.0872,0.1051 0.0453,0.16847 -0.19261,0.29152 -0.30364,0.15702 -0.60613,0.60401 -0.60613,0.89568 0,0.21956 0.0463,0.20102 0.60927,-0.24398 0.55475,-0.4385 0.86254,-0.53068 0.68896,-0.20634 -0.0565,0.10555 -0.0787,0.25439 -0.0494,0.33075 0.0321,0.0837 -0.047,0.18453 -0.19949,0.25399 -0.31891,0.1453 -0.32548,0.39542 -0.0135,0.51404 0.46111,0.1753 0.39233,0.30237 -0.16367,0.30237 -0.29347,0 -0.57615,0.0424 -0.62817,0.0941 -0.057,0.0567 -0.4112,0.063 -0.89112,0.0158 -0.97929,-0.0962 -1.24305,-0.005 -1.24833,0.42876 l -0.004,0.30761 -0.31986,-0.37338 c -0.17592,-0.20536 -0.34907,-0.37339 -0.38478,-0.37338 -0.0357,0 -0.003,0.20684 0.0734,0.45963 0.18746,0.6229 0.0807,0.7288 -0.28606,0.28382 -0.28272,-0.34299 -0.31403,-0.35674 -0.4351,-0.19116 -0.12205,0.16691 -0.1423,0.1677 -0.31412,0.0122 -0.25106,-0.22719 -0.27471,-0.22046 -0.81518,0.23205 -0.53561,0.44843 -0.64364,0.48627 -0.56856,0.19913 z m 1.07338,-2.40269 c 0.0979,-0.18285 0.0889,-0.19107 -0.099,-0.0906 -0.11367,0.0608 -0.20667,0.17888 -0.20667,0.26233 0,0.18792 0.16187,0.0969 0.3057,-0.17181 z m 5.49936,-1.55549 c -2.03812,-2.23358 -2.04334,-2.23855 -2.26451,-2.15368 -0.1312,0.0504 -0.15873,0.13983 -0.11561,0.37577 0.0311,0.17034 0.0237,0.3545 -0.0164,0.40927 -0.10205,0.13913 -1.39015,0.17081 -1.63422,0.0402 -0.15603,-0.0835 -0.19209,-0.18351 -0.1613,-0.44725 0.0439,-0.37574 -0.0565,-0.44425 -0.21556,-0.14712 -0.14331,0.26778 -0.15681,0.239 0.38651,0.82373 0.26927,0.28979 0.47189,0.54458 0.45027,0.5662 -0.0216,0.0216 -0.24334,-0.0386 -0.49273,-0.13386 -0.56582,-0.21608 -0.79139,-0.15029 -0.70225,0.20487 0.0356,0.14176 0.0291,0.24 -0.0143,0.21833 -0.51753,-0.25813 -1.21986,-0.57174 -1.39828,-0.62438 -0.1839,-0.0542 -0.22402,-0.0273 -0.22402,0.15041 0,0.15293 -0.0438,0.19875 -0.14936,0.15606 -0.0821,-0.0332 -0.21655,-0.0877 -0.2987,-0.12087 -0.0959,-0.0388 -0.14935,-0.003 -0.14935,0.0995 0,0.22893 -0.0763,0.20304 -0.55327,-0.1878 -0.34242,-0.28058 -0.48112,-0.33645 -0.71778,-0.28911 -0.21481,0.043 -0.30969,0.0161 -0.35435,-0.10026 -0.0748,-0.19494 -0.40041,-0.20798 -0.55459,-0.0222 -0.0624,0.0752 -0.0857,0.209 -0.0519,0.29732 0.0431,0.11226 -0.0171,0.19052 -0.20009,0.26009 -0.14394,0.0548 -0.29867,0.1994 -0.34384,0.3215 -0.0777,0.20995 -0.0965,0.19921 -0.34706,-0.19769 -0.14982,-0.23733 -0.3421,-0.41969 -0.44254,-0.41969 -0.0977,0 -0.42196,0.15409 -0.72061,0.34241 -0.51108,0.32226 -0.54721,0.33105 -0.61447,0.14935 -0.0891,-0.24056 -0.463284,-0.25365 -0.53738,-0.0188 -0.181456,0.57511 -0.209409,0.59113 -0.372225,0.2133 -0.138331,-0.32102 -0.2044,-0.36602 -0.621317,-0.42317 -0.692684,-0.0949 -1.414277,-0.0775 -1.484356,0.0359 -0.03784,0.0612 -0.126731,0.0657 -0.229902,0.0114 -0.312624,-0.16435 -1.348272,-0.21357 -6.542799,-0.31095 -10.103883,-0.1894 -16.744289,-0.63608 -18.461168,-1.24183 -0.387916,-0.13687 -0.424278,-0.13208 -0.768196,0.1013 -0.682107,0.46289 -1.559359,0.25304 -2.013415,-0.48164 -0.192216,-0.31101 -0.283816,-0.36075 -0.844043,-0.4583 -0.801077,-0.1395 -1.091268,-0.13808 -1.235413,0.006 -0.08763,0.0877 -0.158517,0.0629 -0.293723,-0.10245 -0.150782,-0.18444 -0.300835,-0.22346 -0.974752,-0.25347 -1.4044,-0.0626 -2.104868,-0.39179 -2.338269,-1.09901 -0.128768,-0.39016 -0.493534,-0.56318 -0.933246,-0.44266 -0.339822,0.0932 -0.661378,0.36484 -0.661378,0.55883 0,0.0769 -0.0448,0.11211 -0.09957,0.0783 -0.194221,-0.12004 -0.09539,-0.51436 0.19979,-0.79716 0.378924,-0.36304 0.278834,-0.47088 -0.469418,-0.50581 -0.687626,-0.0321 -0.755175,-0.19436 -0.203583,-0.48904 0.392136,-0.2095 0.479324,-0.34868 0.218417,-0.34868 -0.08537,0 -0.127535,-0.0448 -0.09369,-0.0995 0.03385,-0.0548 0.369883,-0.0995 0.746752,-0.0995 0.376869,0 0.713531,-0.0458 0.748136,-0.10182 0.03461,-0.056 -0.05301,-0.30924 -0.194711,-0.56276 -0.141697,-0.25352 -0.236068,-0.48252 -0.209713,-0.50887 0.02635,-0.0263 0.21071,0.11488 0.409678,0.31385 0.407002,0.40699 0.441413,0.4234 0.441413,0.2105 0,-0.10925 0.06529,-0.13486 0.235224,-0.0922 0.223383,0.0561 0.238745,0.0279 0.305142,-0.55895 0.158186,-1.39818 -0.195707,-3.39558 -0.659127,-3.72017 -0.118237,-0.0829 -0.349391,-0.11352 -0.622784,-0.0827 -0.287477,0.0324 -0.544266,-0.005 -0.758007,-0.11225 -0.177786,-0.0887 -0.354308,-0.16126 -0.392272,-0.16126 -0.03796,0 -2.30494,1.58958 -5.037724,3.53239 -2.732784,1.94282 -5.047108,3.5334 -5.142941,3.53462 -0.594863,0.007 0.02959,-0.49739 4.840444,-3.9147 l 5.014685,-3.5621 -0.01615,-0.60981 c -0.0098,-0.37022 -0.06273,-0.62532 -0.134722,-0.64932 -0.06521,-0.0218 -0.376731,0.0872 -0.692264,0.24219 -0.525882,0.25823 -0.652525,0.27938 -1.51958,0.25376 -1.506893,-0.0446 -1.900794,-0.047 -2.588739,-0.0161 -0.881175,0.0396 -2.258681,-0.41193 -2.427289,-0.79551 -0.200838,-0.45691 -0.489995,-0.81956 -0.724568,-0.90875 -0.126331,-0.048 -0.207731,-0.14471 -0.180964,-0.21495 0.02676,-0.0702 0.06222,-0.59809 0.07881,-1.1731 0.02582,-0.89516 0.06737,-1.11758 0.289021,-1.54728 0.283913,-0.5504 0.987432,-1.25488 1.495388,-1.49742 0.204135,-0.0974 0.426869,-0.33845 0.600231,-0.64939 0.157932,-0.28327 0.465405,-0.62816 0.719982,-0.80761 0.37177,-0.26204 0.470308,-0.40377 0.603393,-0.86785 0.399753,-1.394 1.604133,-2.57612 2.954709,-2.90012 0.464655,-0.11146 0.492796,-0.1389 0.770232,-0.75077 0.159802,-0.35244 0.513733,-0.8738 0.795263,-1.17147 1.567627,-1.65754 4.085137,-1.77664 5.792197,-0.27403 l 0.437105,0.38476 0.703733,-0.0645 c 0.387052,-0.0355 0.812198,-0.13508 0.944768,-0.22135 0.13257,-0.0863 0.420257,-0.21407 0.639304,-0.28399 0.254975,-0.0814 0.551946,-0.30023 0.825403,-0.60822 0.269925,-0.30401 0.671283,-0.60127 1.090481,-0.80764 1.141967,-0.56219 2.434707,-0.42155 3.484367,0.37907 l 0.333302,0.25422 2.135798,-2.06 c 1.174689,-1.13299 2.11105,-2.10003 2.080801,-2.14897 -0.03025,-0.0489 -0.382905,-0.089 -0.783681,-0.089 -0.84588,0 -1.124832,-0.16649 -0.735659,-0.43907 0.124319,-0.087 0.286388,-0.15833 0.360151,-0.15833 0.313096,0 1.716297,-0.6749 2.504495,-1.20459 0.944486,-0.63472 2.283208,-1.82097 2.178219,-1.93013 -0.03708,-0.0385 -0.800461,-0.0138 -1.696394,0.0549 -2.512686,0.19283 -2.785317,0.004 -1.134238,-0.78442 0.844831,-0.40358 1.18304,-0.63593 1.841989,-1.26548 0.443932,-0.42414 0.807149,-0.81536 0.807149,-0.86939 0,-0.0625 -0.371968,-0.0747 -1.020561,-0.0335 -0.583226,0.037 -1.080112,0.0251 -1.159528,-0.0278 -0.223757,-0.14902 -0.06116,-0.36923 0.454535,-0.61555 1.000664,-0.47797 2.385556,-2.11611 3.257482,-3.85315 0.19929,-0.39702 0.423612,-0.72186 0.498494,-0.72186 0.07488,0 0.320322,0.36298 0.545422,0.80662 0.916986,1.80724 2.067654,3.16241 3.195691,3.76364 0.330411,0.17611 0.600748,0.3608 0.600748,0.41042 0,0.23396 -0.442004,0.30923 -1.4121,0.24045 -0.983967,-0.0697 -0.997421,-0.0678 -0.890608,0.13182 0.292269,0.5461 2.054943,1.84277 3.018024,2.22014 0.680513,0.26664 0.762894,0.35066 0.551273,0.56229 -0.155229,0.15522 -0.30786,0.1588 -1.925065,0.0452 -0.966058,-0.0679 -1.781578,-0.0984 -1.812265,-0.0677 -0.08858,0.0886 0.759643,0.91255 1.574638,1.52962 0.895068,0.67771 2.080518,1.30484 3.049287,1.61313 l 0.709465,0.22579 0.335986,-0.22981 c 0.184793,-0.12639 0.615035,-0.50079 0.956098,-0.83199 l 0.620104,-0.60219 1.329107,-0.094 c 1.732667,-0.12258 1.956884,-0.0752 2.623155,0.55498 0.489331,0.46279 0.555695,0.49615 0.764591,0.38435 0.329596,-0.17639 1.444295,-1.18636 1.571295,-1.42367 0.10589,-0.19785 0.0906,-0.2001 -0.885614,-0.13023 -0.966718,0.0692 -1.415486,-0.008 -1.415486,-0.24504 0,-0.0497 0.268186,-0.23316 0.595969,-0.40787 1.155861,-0.61606 2.419571,-2.10946 3.229761,-3.81677 0.20759,-0.43744 0.42062,-0.75604 0.50553,-0.75604 0.0826,0 0.30425,0.31533 0.5073,0.72186 0.85958,1.72102 2.08256,3.18659 3.17658,3.80675 0.27381,0.15521 0.55296,0.34966 0.62034,0.4321 0.17456,0.21361 0.68428,0.0424 1.7111,-0.57472 0.80023,-0.48096 1.90015,-1.34095 1.90015,-1.48566 0,-0.0393 -0.61607,-0.0693 -1.36904,-0.067 -1.26496,0.004 -1.36905,-0.009 -1.36905,-0.17904 0,-0.12956 0.16581,-0.25082 0.56505,-0.41324 1.40056,-0.56981 2.8837,-2.00201 3.97433,-3.83781 0.24798,-0.4174 0.4767,-0.69158 0.57478,-0.68898 0.097,0.003 0.38457,0.37402 0.71051,0.91763 0.38296,0.6387 0.86196,1.23247 1.59307,1.9748 0.93481,0.94914 1.14304,1.10756 1.96756,1.49686 1.33646,0.63103 1.25217,0.73997 -0.5514,0.7126 -0.80524,-0.0123 -1.41616,0.0178 -1.41616,0.0695 0,0.174 1.51895,1.27416 2.37491,1.72013 0.47356,0.24672 1.16588,0.54793 1.53848,0.66936 0.51129,0.16661 0.66975,0.26107 0.64598,0.3851 -0.0269,0.14038 -0.21274,0.16855 -1.27487,0.19329 -0.68386,0.0159 -1.71013,-0.0177 -2.2806,-0.0746 -0.57047,-0.057 -1.05977,-0.081 -1.08733,-0.0535 -0.17649,0.17649 1.62521,1.48905 3.02446,2.20336 0.88815,0.45339 2.02411,0.86593 2.95831,1.07438 0.41146,0.0918 0.37108,0.4283 -0.0611,0.50937 -0.34119,0.064 -4.24807,-0.10297 -5.08132,-0.2172 -0.64576,-0.0885 -0.59823,0.10469 0.16657,0.67701 1.96981,1.47411 3.69258,2.30968 5.92175,2.87214 0.33011,0.0833 0.42315,0.15288 0.42315,0.31649 0,0.20972 -1.9e-4,0.20973 -2.66341,0.14226 -1.46488,-0.0371 -2.85384,-0.0931 -3.08657,-0.12447 -0.26616,-0.0358 -0.42316,-0.0181 -0.42316,0.0479 0,0.15247 1.4704,1.04199 2.73809,1.65642 1.29797,0.62911 2.58291,1.07912 3.96859,1.38989 0.84465,0.18943 1.00975,0.25728 1.00975,0.41496 0,0.17579 -0.10739,0.19062 -1.59307,0.21993 -1.48714,0.0294 -4.58793,-0.11224 -5.46453,-0.2495 -0.59852,-0.0937 -0.43138,0.12781 0.65634,0.86993 1.09927,0.74999 2.71807,1.61197 4.01166,2.13612 0.93942,0.38065 3.21731,1.04535 3.58235,1.04535 0.1171,0 0.29988,0.0671 0.40619,0.14935 0.19132,0.14784 0.19132,0.15086 0,0.2987 -0.2345,0.1812 -1.24141,0.19255 -4.33703,0.0489 -2.4435,-0.1134 -3.7693,-0.21885 -6.35511,-0.50546 -1.00365,-0.11123 -1.89975,-0.18644 -1.99134,-0.16711 -0.11552,0.0244 0.40348,0.59215 1.69466,1.85391 1.95829,1.91368 2.15311,2.18775 2.02824,2.85337 -0.076,0.40484 -0.73021,-0.13418 5.84887,4.81874 2.72131,2.04869 4.94783,3.7863 4.94783,3.86135 0,0.48526 -0.0785,0.43022 -8.93711,-6.26397 -2.17981,-1.64723 -2.22084,-1.67255 -2.48917,-1.53637 -0.15006,0.0762 -0.49686,0.17096 -0.77067,0.21066 -0.97543,0.14145 -1.40835,0.45514 -1.51232,1.09584 -0.0806,0.49684 0.13977,1.93025 0.43025,2.79821 0.12966,0.38746 0.23575,0.79641 0.23575,0.90881 0,0.31029 0.21127,0.43934 0.44248,0.27028 0.21475,-0.15704 0.55319,-0.18946 0.55319,-0.053 0,0.0485 -0.11201,0.16151 -0.24891,0.25122 -0.32198,0.21097 -0.32515,0.45721 -0.006,0.45721 0.30428,0 0.43711,0.19469 0.21689,0.31793 -0.20347,0.11386 -0.11853,0.27946 0.14334,0.27946 0.31508,0 0.22046,0.17472 -0.1632,0.30134 -0.2752,0.0908 -0.3973,0.21174 -0.53562,0.53045 -0.22587,0.52044 -0.52288,0.78641 -1.13148,1.01322 -0.26414,0.0985 -0.57778,0.25516 -0.69696,0.34827 -0.11919,0.0931 -0.48553,0.24682 -0.81411,0.34158 -0.98548,0.28419 -1.10877,0.49694 -0.34859,0.60149 0.27375,0.0377 0.51856,0.10213 0.54402,0.14337 0.0255,0.0412 -0.21186,0.14669 -0.52739,0.23441 -0.31553,0.0878 -0.65548,0.24988 -0.75545,0.36034 -0.20228,0.22351 -0.24405,0.18897 0.61767,0.5108 0.45631,0.17043 0.33075,0.22976 -0.43385,0.20501 -0.5272,-0.0171 -0.64988,0.007 -0.62316,0.12193 0.0183,0.0787 0.83974,1.02784 1.82545,2.10907 0.98572,1.08123 1.79221,2.03798 1.79221,2.12612 0,0.43782 -0.40811,0.10203 -2.01095,-1.65452 z m -14.070022,-2.56236 c 0.06767,-0.0815 0.162767,-0.12369 0.211327,-0.0937 0.133732,0.0827 0.0992,-0.17467 -0.06106,-0.45502 -0.07826,-0.1369 -0.143884,-0.28036 -0.145822,-0.31879 -0.0062,-0.12416 0.617908,0.18735 0.711892,0.3553 0.13121,0.23446 0.368401,0.19993 0.421775,-0.0614 0.02517,-0.1232 0.06942,-0.76169 0.09834,-1.41882 0.02894,-0.65714 0.212194,-2.15811 0.407264,-3.33549 0.195066,-1.17738 0.452056,-2.73968 0.571086,-3.47177 l 0.21641,-1.33107 -0.39373,-0.35282 c -0.21655,-0.19405 -1.238403,-1.14084 -2.270792,-2.10399 l -1.877067,-1.75116 -5.739802,-3.14725 c -3.15689,-1.731 -5.986228,-3.28716 -6.287417,-3.45816 -0.491953,-0.27928 -0.99567,-0.40923 -0.99567,-0.25685 0,0.15297 1.076389,2.90122 1.775506,4.53324 0.431778,1.00794 0.8626,2.10114 0.957384,2.42931 0.09478,0.32817 0.483133,1.26243 0.863004,2.07613 1.108199,2.37382 1.10845,2.37484 1.187834,4.84305 0.05567,1.7308 0.118859,2.38242 0.330024,3.40316 0.295958,1.4306 0.542614,2.16796 0.760696,2.27401 0.130083,0.0633 3.299015,0.60139 3.516443,0.59713 0.04476,-7.5e-4 0.05373,-0.0887 0.01995,-0.19519 -0.05643,-0.17779 -0.03462,-0.18524 0.267101,-0.0913 0.1807,0.0563 0.501272,0.14468 0.712381,0.19645 0.211109,0.0517 0.511319,0.16004 0.667133,0.24061 0.412502,0.21332 0.52431,0.18796 0.451432,-0.10245 -0.10051,-0.40046 0.145066,-0.30127 0.620304,0.25057 0.236538,0.27467 0.471765,0.47363 0.522726,0.44214 0.141017,-0.0872 0.110663,-0.85063 -0.05562,-1.39874 -0.189404,-0.62436 -0.187357,-0.69287 0.01573,-0.52586 0.09138,0.0752 0.293452,0.41669 0.449043,0.75895 0.155592,0.34226 0.308985,0.62229 0.340875,0.62229 0.03187,0 0.1719,-0.0896 0.311137,-0.19913 0.139238,-0.10952 0.310363,-0.19913 0.380283,-0.19913 0.06991,0 0.250174,0.31363 0.400569,0.69696 0.275573,0.70239 0.413538,0.8208 0.639342,0.54872 z m 4.474382,-0.76159 c 0.34298,-0.0995 0.44996,-0.1012 0.48124,-0.007 0.0636,0.19086 0.30463,0.14066 0.42758,-0.0891 0.0878,-0.1641 0.17441,-0.19731 0.39792,-0.15262 0.16951,0.0339 0.33784,0.006 0.41398,-0.0688 0.0706,-0.0692 0.21792,-0.12996 0.32744,-0.13488 0.36807,-0.0165 2.94355,-1.07078 2.91506,-1.19326 -0.0596,-0.25626 -6.30898,-7.05237 -6.48502,-7.05237 -0.11441,0 -0.42167,1.23568 -0.50755,2.04113 -0.0263,0.24642 -0.18374,1.27694 -0.34992,2.29004 -0.399543,2.43571 -0.568466,4.05473 -0.436801,4.1864 0.06872,0.0687 0.274901,0.0205 0.640791,-0.1498 0.29671,-0.13812 0.61787,-0.25156 0.71371,-0.25209 0.25048,-0.001 0.222,0.38341 -0.0498,0.67271 -0.21677,0.23075 -0.218,0.24288 -0.0379,0.37455 0.16162,0.11819 0.24675,0.105 0.64718,-0.10026 0.2536,-0.12996 0.65954,-0.29393 0.9021,-0.36435 z m 5.12408,0.45366 c 0.0956,-0.24915 0.0718,-0.34035 -0.0889,-0.34035 -0.0929,0 -0.14935,0.094 -0.14935,0.24892 0,0.27808 0.14525,0.33381 0.23826,0.0914 z m -10.692789,-0.24078 c 0,-0.0548 -0.01976,-0.0995 -0.0439,-0.0995 -0.02417,0 -0.0716,0.0448 -0.105443,0.0995 -0.03384,0.0548 -0.01408,0.0995 0.0439,0.0995 0.05799,0 0.105444,-0.0448 0.105443,-0.0995 z m -28.476136,-2.13481 c 0,-0.0789 -0.04871,-0.17358 -0.108242,-0.21037 -0.140591,-0.0869 -0.332494,0.10501 -0.245604,0.2456 0.0976,0.15792 0.353846,0.1324 0.353846,-0.0352 z m 40.424165,-0.14698 c 0.2888,-0.13686 0.34497,-0.21368 0.32792,-0.44847 l -0.0206,-0.28333 0.23722,0.22286 c 0.24335,0.22861 0.4511,0.20341 0.4511,-0.0547 0,-0.10161 0.0683,-0.12822 0.227,-0.0884 0.18901,0.0475 0.24733,7.5e-4 0.34848,-0.27898 0.0668,-0.18478 0.12149,-0.47235 0.12149,-0.63906 0,-0.1667 0.0915,-0.41944 0.20337,-0.56164 0.11185,-0.1422 0.26881,-0.47891 0.3488,-0.74825 0.08,-0.26934 0.20924,-0.54268 0.28725,-0.60741 0.1213,-0.10068 0.13383,-0.012 0.0866,0.61257 -0.0469,0.62049 -0.0287,0.75227 0.12125,0.87673 0.15735,0.13058 0.1884,0.12608 0.28646,-0.0415 0.0605,-0.10339 0.26039,-0.38977 0.44421,-0.63639 0.37252,-0.49976 0.37212,-0.42092 0.01,-2.01189 -0.35437,-1.55676 -0.40323,-1.91561 -0.33889,-2.48918 0.10278,-0.9162 0.49365,-1.59433 1.1771,-2.04214 0.15035,-0.0985 0.23355,-0.21593 0.18641,-0.26307 -0.12651,-0.12651 -2.65595,-0.46225 -4.30603,-0.57155 -3.46625,-0.2296 -5.73436,0.35298 -7.28642,1.87157 -0.37342,0.36536 -0.67848,0.7074 -0.67792,0.76007 7.5e-4,0.0527 0.63903,0.79211 1.41883,1.64317 0.7798,0.85107 2.35104,2.56678 3.49165,3.81266 2.25621,2.46448 2.07174,2.33742 2.85473,1.96636 z m -42.017236,-0.19972 c 0,-0.0379 0.187378,-0.1112 0.416396,-0.16279 0.498216,-0.11222 0.567934,-0.25448 0.270489,-0.55193 l -0.221662,-0.22165 -0.47836,0.53903 c -0.533023,0.60062 -0.644012,0.89692 -0.23578,0.62943 0.136904,-0.0897 0.248917,-0.19414 0.248917,-0.23209 z m 3.899698,-1.80109 c 0.475416,-1.12194 0.867795,-2.10177 0.871953,-2.17738 0.0124,-0.22551 -0.647059,-0.0635 -1.535726,0.37714 -0.856808,0.42488 -1.795764,1.19357 -2.141733,1.75337 -0.211193,0.34171 -0.211675,0.35255 -0.03201,0.72025 0.100325,0.20531 0.305622,0.43174 0.456216,0.50318 0.150596,0.0714 0.273809,0.18772 0.273809,0.25838 0,0.26008 0.723475,0.67279 1.094494,0.62436 0.09232,-0.0121 0.47602,-0.79206 1.013001,-2.0593 z m 14.171697,1.50152 c 0.723757,-0.2011 1.324248,-0.30452 1.770437,-0.30491 0.502538,-3.8e-4 0.6896,-0.0381 0.731501,-0.14729 0.03096,-0.0807 -0.01525,-0.66713 -0.102697,-1.30317 -0.08744,-0.63604 -0.15899,-1.81672 -0.15899,-2.62372 0,-1.69802 -0.09116,-2.05557 -1.024963,-4.02007 -0.302976,-0.6374 -0.665709,-1.51367 -0.806072,-1.94727 -0.140364,-0.4336 -0.653687,-1.72336 -1.14072,-2.86613 -0.814863,-1.91198 -1.268682,-3.10533 -1.774627,-4.66649 -0.178668,-0.55131 -0.234187,-0.61939 -0.719476,-0.88227 -0.321798,-0.17433 -0.561574,-0.24916 -0.61788,-0.19286 -0.05061,0.0506 -0.139838,0.85087 -0.198291,1.77838 -0.05845,0.92749 -0.161204,2.12803 -0.228338,2.66785 -0.137951,1.10928 -0.08895,1.71967 0.296891,3.69815 0.550709,2.82387 0.57935,3.52602 0.239626,5.87445 -0.226982,1.56907 -0.497999,3.97542 -0.497999,4.42174 0,0.50365 0.01923,0.52182 0.896102,0.84747 0.400113,0.14859 2.274401,-0.039 3.335492,-0.33386 z m -7.204226,-2.04792 c 0.05943,-1.84453 0.26348,-3.78389 0.488014,-4.63821 0.153994,-0.58594 0.279793,-2.17745 0.388917,-4.92021 0.05665,-1.4238 0.131003,-2.95838 0.165239,-3.41017 0.08259,-1.08992 -0.07329,-1.07101 -0.410509,0.0498 -2.648575,8.80321 -4.130546,13.31718 -4.348302,13.24459 -0.05322,-0.0177 -0.17476,-0.26262 -0.270078,-0.54418 -0.09531,-0.28157 -0.290304,-0.66532 -0.433298,-0.8528 -0.273908,-0.35912 -0.821568,-0.6841 -1.022738,-0.6069 -0.123701,0.0475 -1.04347,2.21313 -1.04347,2.45693 0,0.099 0.291333,0.18408 1.020561,0.29798 0.561309,0.0877 1.323618,0.25525 1.694021,0.37242 0.85549,0.27061 2.675052,0.58319 3.259433,0.55993 l 0.448051,-0.0178 z m -12.020629,1.45738 c 0.0292,-0.0473 0.267073,-0.14165 0.528602,-0.20977 0.26153,-0.0681 0.553917,-0.14451 0.64975,-0.16973 0.111334,-0.0292 0.174242,0.0105 0.174242,0.11022 0,0.0858 0.04762,0.15606 0.105826,0.15606 0.0582,0 0.09442,-0.0784 0.08049,-0.17424 -0.04409,-0.30321 0.113018,-0.63119 1.108942,-2.31494 0.534453,-0.90357 1.709889,-2.8974 2.612079,-4.43073 0.902191,-1.53333 1.775456,-3.01189 1.940588,-3.2857 0.86197,-1.42924 4.804968,-8.19597 4.861169,-8.34244 0.246363,-0.64201 -2.012551,0.50517 -4.8877,2.48219 -0.675752,0.46467 -1.975488,1.67697 -5.227263,4.8756 -2.380338,2.34144 -4.340902,4.3085 -4.35681,4.37125 -0.01591,0.0628 0.14719,0.16685 0.362441,0.23134 0.459805,0.13776 1.046651,0.74337 1.320711,1.36292 0.354102,0.80052 0.507603,1.97293 0.482002,3.68146 -0.01313,0.87619 -0.0175,1.62667 -0.0097,1.66775 0.01933,0.10192 0.189352,0.0944 0.254641,-0.0113 z m 8.602394,-3.02555 c 0.10717,-0.2875 0.583047,-1.75487 1.057503,-3.26082 0.474455,-1.50596 0.972124,-3.07413 1.105933,-3.48485 0.265061,-0.81357 2.27564,-7.54143 2.389887,-7.99709 0.06946,-0.27707 0.06573,-0.27981 -0.290629,-0.21296 -0.386706,0.0726 -0.418566,0.0405 -0.25793,-0.25967 0.05669,-0.10593 0.06432,-0.19259 0.01697,-0.19259 -0.04736,0 -0.467141,0.63847 -0.932856,1.41883 -0.70976,1.18927 -3.356488,5.66026 -4.007473,6.76962 -0.104735,0.17849 -0.978435,1.65874 -1.941555,3.28944 -2.285199,3.8692 -2.293702,3.88413 -2.296417,4.03109 -0.0015,0.082 0.197081,0.0252 0.570184,-0.16305 0.775707,-0.39149 1.550983,-0.61003 2.164103,-0.61003 0.640733,0 1.426197,0.37337 1.790644,0.85118 0.144148,0.18899 0.301395,0.34362 0.349434,0.34362 0.04804,0 0.175033,-0.23522 0.282204,-0.52272 z m 27.175712,-4.45985 c 0.85082,-0.79458 1.88511,-1.3519 3.16637,-1.70623 0.70891,-0.19603 1.03443,-0.21916 3.13099,-0.22245 2.03915,-0.003 2.58291,0.0315 4.23159,0.26987 2.39995,0.34702 2.29004,0.33649 2.29004,0.21932 0,-0.0548 -3.91399,-3.93041 -8.69775,-8.61254 l -8.697745,-8.51298 -0.636652,-0.0295 c -0.780441,-0.0361 -0.817113,0.0838 -0.17645,0.57705 1.18658,0.9135 2.228106,2.40341 2.228106,3.18733 0,0.71381 -0.585882,1.27518 -1.617484,1.54981 -0.695278,0.18509 -2.74491,0.18078 -4.000104,-0.008 -2.635571,-0.39724 -5.939188,-1.52849 -8.496022,-2.90926 -0.451785,-0.24398 -0.821428,-0.39303 -0.821428,-0.33123 0,0.54828 16.691339,17.23034 17.239929,17.23034 0.0582,0 0.44365,-0.31555 0.85661,-0.7012 z m -42.864652,-1.69893 c 0.104786,-0.17533 1.389971,-0.88558 1.602432,-0.88558 0.03639,0 0.06616,0.0896 0.06616,0.19913 0,0.21357 0.240732,0.26424 0.49409,0.10401 0.121202,-0.0766 0.092,-0.16675 -0.174241,-0.53748 -0.175917,-0.24496 -0.319849,-0.47281 -0.319849,-0.50634 0,-0.0941 0.546043,0.21036 0.69152,0.38565 0.178922,0.21559 0.284612,0.19499 0.322116,-0.0628 0.03048,-0.20951 0.04792,-0.2045 0.416572,0.11988 0.369032,0.3247 0.390394,0.33082 0.522726,0.14985 0.07588,-0.1038 0.137971,-0.31034 0.137971,-0.45904 0,-0.22358 0.03533,-0.2611 0.204255,-0.21693 0.112341,0.0294 0.28036,0.1617 0.373377,0.29405 0.09302,0.13235 0.240832,0.33596 0.32848,0.45247 l 0.159359,0.21184 0.288692,-0.20001 c 0.250813,-0.17376 1.049753,-0.5317 1.186808,-0.5317 0.02628,0 0.04777,0.0635 0.04777,0.14105 0,0.0776 0.05601,0.16025 0.124459,0.18372 0.08324,0.0285 -0.0024,0.22789 -0.258463,0.60195 -0.817847,1.19453 -0.228607,0.74939 2.283754,-1.72526 1.418824,-1.39752 3.083736,-3.03033 3.699806,-3.62846 0.616071,-0.59812 1.120128,-1.12158 1.120128,-1.16323 0,-0.11932 -0.702315,-0.28349 -1.194803,-0.2793 -0.246428,0.002 -0.627271,0.0684 -0.846319,0.1473 -0.522557,0.18826 -0.50436,0.19259 -0.64802,-0.15424 -0.208584,-0.50356 -0.642196,-0.79505 -1.176715,-0.79099 -0.255917,0.002 -0.577316,0.0676 -0.714221,0.14582 -0.38109,0.21786 -0.470059,0.18106 -0.541764,-0.22403 -0.256623,-1.44973 -1.452072,-2.41459 -2.836187,-2.28908 -1.35888,0.12323 -2.27529,1.08626 -2.376238,2.49714 l -0.04884,0.68258 -0.533306,-0.0666 c -1.558657,-0.19474 -2.919896,1.01631 -2.922416,2.59998 l -9.79e-4,0.61121 -0.373376,0.07 c -0.770962,0.14454 -1.125053,0.50707 -1.215061,1.24402 -0.05291,0.43319 -0.06594,0.4475 -0.46997,0.51624 -0.825647,0.14046 -1.395536,0.59306 -1.28771,1.02267 0.03452,0.13754 0.157909,0.30098 0.274203,0.36322 0.195465,0.10461 0.206518,0.0936 0.146277,-0.14648 -0.08292,-0.33035 -0.04432,-0.32599 0.375247,0.0424 l 0.343979,0.30202 0.15732,-0.22461 c 0.08653,-0.12353 0.15732,-0.32665 0.15732,-0.45136 0,-0.39217 0.349035,-0.27576 0.662934,0.2211 0.155623,0.24633 0.308355,0.44796 0.339404,0.44805 0.03105,1e-4 0.319281,-0.13423 0.640516,-0.29852 0.650792,-0.33283 0.869031,-0.37417 0.782324,-0.14822 -0.04132,0.10768 -0.01211,0.13297 0.102692,0.0889 0.279977,-0.10743 0.166484,0.25702 -0.262723,0.84367 -0.192189,0.2627 -0.22881,0.51001 -0.07552,0.51001 0.0543,0 0.155109,-0.0943 0.224025,-0.20965 z m -2.015386,-0.69233 c 0,-0.16105 -0.04481,-0.29282 -0.09957,-0.29282 -0.05476,0 -0.09957,0.15946 -0.09957,0.35436 0,0.21089 0.04031,0.32944 0.09957,0.29283 0.05476,-0.0338 0.09957,-0.19332 0.09957,-0.35437 z m 6.173149,0.1611 c 0,-0.13367 -0.0448,-0.27072 -0.09957,-0.30457 -0.05809,-0.0359 -0.09957,0.0654 -0.09957,0.24304 0,0.16752 0.0448,0.30457 0.09957,0.30457 0.05476,0 0.09957,-0.10936 0.09957,-0.24304 z m -8.06492,-0.19912 c 0,-0.0789 -0.04171,-0.16926 -0.09269,-0.20076 -0.118375,-0.0732 -0.237428,0.11328 -0.156231,0.24466 0.09156,0.14814 0.248918,0.12039 0.248918,-0.0439 z m 36.279266,-5.36271 c -3.615603,-3.66445 -6.508551,-6.68831 -8.004355,-8.36655 -0.565076,-0.63399 -1.061111,-1.13189 -1.102302,-1.10644 -0.04119,0.0255 -0.174532,0.34824 -0.296312,0.71729 -0.304215,0.92189 -0.997019,2.53309 -1.643491,3.82212 -0.297116,0.59243 -0.540212,1.11259 -0.540212,1.15589 0,0.0433 0.392045,0.0777 0.871211,0.0763 0.967106,-0.003 1.115557,0.0516 2.862549,1.04794 0.492856,0.28107 1.433763,0.79431 2.090905,1.14056 0.657141,0.34625 2.874995,1.5496 4.928562,2.67411 2.053569,1.12452 3.795173,2.0469 3.870237,2.04973 0.07507,0.003 -1.291494,-1.44211 -3.036792,-3.21098 z m -17.388002,-2.58201 c 0.695564,-0.69359 1.121063,-1.19478 1.120047,-1.31926 -0.0031,-0.38508 -0.433916,-0.97576 -0.885233,-1.21385 -0.543126,-0.28652 -1.012779,-0.29364 -1.570171,-0.0238 -0.531223,0.25716 -0.793614,0.61476 -0.935065,1.27432 -0.118567,0.55285 -0.14622,0.57553 -0.435357,0.35683 -0.418241,-0.31634 -1.194354,-0.0656 -1.363018,0.44045 -0.03426,0.10275 -0.157397,0.10348 -0.639769,0.004 -0.519993,-0.10739 -0.664677,-0.10099 -1.117307,0.0494 -0.38782,0.12882 -0.51996,0.22157 -0.51996,0.36501 0,0.16821 0.04931,0.18442 0.393535,0.12938 0.651584,-0.10419 1.079401,0.0333 1.590401,0.51134 l 0.467695,0.43748 0.641064,-0.1038 c 0.505239,-0.0818 0.767638,-0.0728 1.238466,0.0427 0.328571,0.0806 0.663908,0.15151 0.745193,0.15757 0.08129,0.006 0.652552,-0.4923 1.269479,-1.10748 z m 2.815858,-1.0351 c 0.356794,-0.17651 0.860635,-0.37431 1.119646,-0.43952 0.44574,-0.11225 0.625385,-0.10339 1.138234,0.0562 0.198625,0.0618 0.28048,-0.0563 0.90841,-1.31123 0.573086,-1.14528 1.611386,-3.57148 1.611386,-3.76533 0,-0.0293 -0.04844,-0.0532 -0.107656,-0.0532 -0.12584,0 -6.661981,6.38191 -6.662527,6.50531 -1.98e-4,0.0458 0.302068,-0.0865 0.67171,-0.29404 0.369643,-0.2075 0.964001,-0.5217 1.320797,-0.69822 z m 31.690577,-0.49892 c 0.52268,-0.26794 1.16497,-0.73487 1.16497,-0.84688 0,-0.0674 -0.20346,-0.0846 -0.57251,-0.0486 -0.31488,0.0308 -0.91975,0.0838 -1.34415,0.11784 -0.42441,0.034 -0.77165,0.0994 -0.77165,0.14527 0,0.0696 1.0693,0.79571 1.17174,0.79571 0.0181,0 0.17635,-0.0735 0.3516,-0.16334 z m -11.378891,-1.88747 c 1.411505,-0.41916 1.43566,-1.39389 0.07144,-2.88269 -0.493587,-0.53866 -1.543313,-1.4471 -1.932239,-1.67217 -0.06654,-0.0385 -0.387892,0.16937 -0.74675,0.48305 -0.647929,0.56636 -1.941568,1.29034 -2.820427,1.57844 -1.27354,0.41749 -1.838737,0.5743 -2.582689,0.71651 -1.25446,0.23979 -1.285408,0.24861 -1.190362,0.33913 0.241652,0.23016 2.915597,1.03221 4.478933,1.34345 1.864313,0.37116 3.668432,0.40718 4.722087,0.0943 z m 9.224591,-0.10307 c 0.18274,-0.0763 0.33226,-0.17946 0.33226,-0.22913 0,-0.10172 -1.12413,-0.24372 -1.49876,-0.18938 l -0.24366,0.0353 0.32287,0.32957 c 0.34165,0.34875 0.37674,0.35048 1.08729,0.0536 z m 3.26488,-1.90347 c 1.14182,-0.86744 1.17859,-0.96861 0.31852,-0.87651 -0.36146,0.0387 -1.30604,0.10224 -2.09906,0.14125 -1.41691,0.0697 -1.67894,0.1238 -1.49392,0.30877 0.23705,0.23698 1.91294,1.09814 2.13747,1.09834 0.15801,1.1e-4 0.58303,-0.25099 1.13699,-0.67185 z m -19.923148,-1.47197 c 0.778544,-0.19436 1.756792,-0.54829 1.756792,-0.63562 0,-0.0907 -3.783323,-0.34066 -3.866855,-0.25547 -0.03633,0.0371 0.172314,0.28705 0.463634,0.55557 0.590785,0.54457 0.710922,0.56905 1.646429,0.33552 z m 16.449508,-0.0487 c 1.0377,-0.35702 0.95781,-0.43984 -0.52932,-0.5488 -0.59406,-0.0435 -0.921,-0.0321 -0.921,0.0324 0,0.11305 0.6609,0.71786 0.78442,0.71786 0.0443,0 0.34394,-0.0907 0.6659,-0.20141 z m -5.25377,-0.31634 c 0.1825,-0.18251 0.14353,-0.2788 -0.11284,-0.2788 -0.29967,0 -0.39188,0.0966 -0.25246,0.26466 0.13671,0.16473 0.2118,0.16763 0.3653,0.0142 z m 8.45168,-1.27073 c 1.03468,-0.69982 1.69938,-1.25406 1.6113,-1.3435 -0.0346,-0.0352 -0.52104,-0.017 -1.08089,0.0405 -1.34239,0.13775 -3.55375,0.13691 -3.63923,-0.001 -0.036,-0.0582 0.009,-0.18851 0.10083,-0.28954 0.15982,-0.17659 0.13693,-0.18643 -0.59212,-0.25475 -0.41711,-0.0392 -0.78996,-0.0387 -0.82857,7.5e-4 -0.0386,0.0395 0.2932,0.41732 0.73735,0.83966 0.81443,0.77442 2.1426,1.5924 2.59609,1.59886 0.11963,0.002 0.61248,-0.26405 1.09524,-0.59056 z m -35.484807,-1.74695 c -2.503113,-0.54397 -4.331248,-2.80643 -4.343812,-5.37582 -0.0077,-1.57519 0.491099,-2.77087 1.643548,-3.93971 0.883671,-0.89625 1.707351,-1.33344 2.93793,-1.55939 1.06624,-0.19579 1.973427,-0.0954 1.973427,0.21844 0,0.15131 -0.158753,0.2541 -0.702432,0.45479 -1.288255,0.47552 -2.164738,1.2224 -2.755794,2.34828 -1.126396,2.14564 -0.774092,4.42262 0.939451,6.0718 0.635449,0.61158 1.120503,0.9115 1.918568,1.18631 1.436605,0.4947 0.136666,0.97509 -1.610886,0.5953 z m 0.223137,-0.67681 c -1.712188,-1.26678 -2.556681,-2.81151 -2.568911,-4.69901 -0.01174,-1.81136 0.757696,-3.36392 2.235282,-4.51032 0.702125,-0.54475 0.600807,-0.64092 -0.343385,-0.32591 -1.20358,0.40154 -2.200911,1.23154 -2.751495,2.28982 -0.915782,1.76026 -0.904068,3.5155 0.03414,5.11643 0.667674,1.1393 2.431016,2.34177 3.440766,2.34635 l 0.248917,0.001 -0.295318,-0.21851 z"
                id="path9332"
                inkscape:connector-curvature="0"/>
    </g>
</svg>
