<?xml version="1.0" encoding="UTF-8" standalone="no"?>
<!-- Created with Inkscape (http://www.inkscape.org/) -->

<svg
   xmlns:dc="http://purl.org/dc/elements/1.1/"
   xmlns:cc="http://creativecommons.org/ns#"
   xmlns:rdf="http://www.w3.org/1999/02/22-rdf-syntax-ns#"
   xmlns:svg="http://www.w3.org/2000/svg"
   xmlns="http://www.w3.org/2000/svg"
   xmlns:sodipodi="http://sodipodi.sourceforge.net/DTD/sodipodi-0.dtd"
   xmlns:inkscape="http://www.inkscape.org/namespaces/inkscape"
   width="676"
   height="507"
   viewBox="0 0 178.85833 134.14375"
   version="1.1"
   id="svg8535"
   inkscape:version="0.92.1 r15371"
   sodipodi:docname="robot.svg"
   inkscape:export-filename="C:\Users\Алексей\Desktop\ПФДО\диз\default-program-image\robot.png"
   inkscape:export-xdpi="95"
   inkscape:export-ydpi="95">
  <defs
     id="defs8529" />
  <sodipodi:namedview
     id="base"
     pagecolor="#ffffff"
     bordercolor="#666666"
     borderopacity="1.0"
     inkscape:pageopacity="0.0"
     inkscape:pageshadow="2"
     inkscape:zoom="0.70000001"
     inkscape:cx="346.92587"
     inkscape:cy="272.21905"
     inkscape:document-units="mm"
     inkscape:current-layer="layer1"
     showgrid="false"
     units="px"
     gridtolerance="4"
     objecttolerance="5"
     guidetolerance="4"
     inkscape:window-width="1366"
     inkscape:window-height="706"
     inkscape:window-x="-8"
     inkscape:window-y="-8"
     inkscape:window-maximized="1" />
  <metadata
     id="metadata8532">
    <rdf:RDF>
      <cc:Work
         rdf:about="">
        <dc:format>image/svg+xml</dc:format>
        <dc:type
           rdf:resource="http://purl.org/dc/dcmitype/StillImage" />
        <dc:title></dc:title>
      </cc:Work>
    </rdf:RDF>
  </metadata>
  <g
     inkscape:label="Layer 1"
     inkscape:groupmode="layer"
     id="layer1"
     transform="translate(0,-162.85624)">
    <rect
       style="opacity:1;fill:#aa0000;fill-opacity:1;stroke:none;stroke-width:0.63653022;stroke-miterlimit:4;stroke-dasharray:none;stroke-opacity:1"
       id="rect13012"
       width="178.85834"
       height="134.14375"
       x="-1.2011719e-006"
       y="162.85623" />
    <path
       style="opacity:1;fill:#ffffff;fill-opacity:1;stroke:none;stroke-width:0.05432358;stroke-miterlimit:4;stroke-dasharray:none;stroke-opacity:1"
       d="m 102.86052,205.05725 c -0.37656,-5e-5 -0.6819,0.30537 -0.68193,0.68193 -4e-5,0.37662 0.30532,0.68198 0.68193,0.68193 0.37656,-2e-5 0.68198,-0.30536 0.68193,-0.68193 -3e-5,-0.3765 -0.30542,-0.6819 -0.68193,-0.68193 z m 0.33923,1.41223 c -0.10307,0.0594 -0.22025,0.0908 -0.33923,0.0911 -0.11898,-1.2e-4 -0.23576,-0.0314 -0.33891,-0.0907 l -0.22351,12.51216 h 1.12738 z m -18.676403,2.13811 c -1.926543,-0.008 -3.472658,0.0549 -3.991044,0.2175 -1.902717,0.94507 -1.59844,2.25702 -1.59844,3.6553 0,1.3983 -0.304277,2.70992 1.59844,3.65498 1.48848,0.70043 13.803225,-0.11036 15.328718,-0.54061 1.371553,-0.53009 3.246531,-1.38466 3.545275,-3.11437 -0.03919,-1.56395 -2.211835,-2.52789 -3.545275,-3.11437 -1.020627,-0.38371 -7.099281,-0.74149 -11.337674,-0.75843 z m 9.109467,7.66625 c -3.049922,0.39744 -7.934345,0.53271 -10.303872,0.53271 l -0.84348,2.13463 h 12.131203 z m -14.492192,3.1169 c -0.18117,0 -0.326896,0.14573 -0.326896,0.32689 v 3.7375 h 6.155389 c 0.86927,0 1.635173,0.24802 2.11376,0.6304 a 2.8205609,2.8205609 0 0 1 -0.08188,-0.66107 2.8205609,2.8205609 0 0 1 2.502622,-2.79917 v -1.23455 z m 10.999082,0 v 1.23297 a 2.8205609,2.8205609 0 0 1 2.106172,1.36576 l 5.07037,-2.59873 z m 8.570752,0 -6.20439,3.17981 a 2.8205609,2.8205609 0 0 1 0.135943,0.85391 2.8205609,2.8205609 0 0 1 -0.985746,2.13779 l 1.052453,-0.82831 0.311721,-0.24564 a 5.0948322,5.0948322 0 0 1 0.240273,-0.17167 5.0948322,5.0948322 0 0 1 0.441973,-0.25323 5.0948322,5.0948322 0 0 1 0.464737,-0.20803 5.0948322,5.0948322 0 0 1 0.483072,-0.1606 5.0948322,5.0948322 0 0 1 0.496985,-0.1116 5.0948322,5.0948322 0 0 1 0.505519,-0.0613 5.0948322,5.0948322 0 0 1 0.360409,-0.013 v 3.2e-4 a 5.0948322,5.0948322 0 0 1 0.508679,0.0253 5.0948322,5.0948322 0 0 1 0.503623,0.0762 5.0948322,5.0948322 0 0 1 0.493191,0.12614 5.0948322,5.0948322 0 0 1 0.478647,0.17452 5.0948322,5.0948322 0 0 1 0.458413,0.2213 5.0948322,5.0948322 0 0 1 0.434386,0.2662 5.0948322,5.0948322 0 0 1 0.405301,0.30824 5.0948322,5.0948322 0 0 1 0.372737,0.34713 5.0948322,5.0948322 0 0 1 0.336068,0.38286 5.0948322,5.0948322 0 0 1 0.14511,0.20296 v -0.0149 l 2.87599,4.10201 c 0.005,-0.005 0.008,-0.009 0.013,-0.0139 l 4.21835,-4.21835 c -0.0877,-3.40272 -0.14989,-6.01414 -0.12867,-6.02861 -0.0565,-0.0465 -0.12786,-0.0756 -0.20708,-0.0756 z m 1.130228,1.25099 h 5.886346 v 0.73568 h -5.886346 z m -18.671028,0.28011 h 3.247781 c 0.306292,0 0.552942,0.20631 0.552942,0.46252 0,0.25622 -0.24665,0.46253 -0.552942,0.46253 h -3.247781 c -0.30629,0 -0.552942,-0.20631 -0.552942,-0.46253 0,-0.25621 0.246652,-0.46252 0.552942,-0.46252 z m 8.652003,0.26019 a 2.2424629,2.2424629 0 0 0 -2.242432,2.24243 2.2424629,2.2424629 0 0 0 2.242432,2.24243 2.2424629,2.2424629 0 0 0 2.242433,-2.24243 2.2424629,2.2424629 0 0 0 -2.242433,-2.24243 z m -22.879263,0.59341 c -0.154784,0.001 -0.309481,0.0132 -0.462523,0.0364 -0.01518,0.002 -0.03037,0.004 -0.04552,0.005 l -2.632243,2.42422 c -0.02415,0.0963 -0.04236,0.19413 -0.05754,0.29212 l 2.592092,-0.91936 c 0.250145,-0.15417 0.544522,-0.24343 0.85992,-0.24343 0.906739,0 1.271859,0.73533 1.271861,1.64206 1e-6,0.90675 -0.36512,1.64176 -1.271861,1.64176 -0.315398,0 -0.609775,-0.0893 -0.85992,-0.24343 l -2.592407,-0.91936 c 0.01509,0.0979 0.03318,0.19525 0.05722,0.29149 l 2.63003,2.42232 c 0.01613,0.002 0.03221,0.005 0.04837,0.007 0.153021,0.0235 0.307718,0.036 0.462523,0.0373 1.787938,0 4.300868,-0.77889 4.300868,-3.23735 0,-2.36614 -2.51293,-3.23734 -4.300868,-3.23734 z m 32.898288,0.2839 h 5.886346 v 0.73567 h -5.886346 z m 0,1.4176 h 5.886346 v 0.73568 h -5.886346 z m -28.161138,0.47296 c 0.106232,0.32128 0.166295,0.67412 0.166295,1.06288 0,0.39018 -0.490591,1.06258 -0.155545,1.06258 h 13.536478 c 0.994753,0 1.795717,-0.47377 1.795717,-1.06258 0,-0.5888 -0.800964,-1.06288 -1.795717,-1.06288 z m -1.927549,0.63482 c 0.236351,3e-5 0.427896,0.19172 0.427747,0.42806 -2.4e-5,0.23623 -0.191519,0.42773 -0.427747,0.42775 -0.236352,1.6e-4 -0.428039,-0.19139 -0.428063,-0.42775 -1.51e-4,-0.23647 0.191588,-0.42821 0.428063,-0.42806 z m 26.261408,0.0686 a 5.0948322,5.0948322 0 0 0 -0.360409,0.013 5.0948322,5.0948322 0 0 0 -0.505519,0.0613 5.0948322,5.0948322 0 0 0 -0.496985,0.1116 5.0948322,5.0948322 0 0 0 -0.483072,0.1606 5.0948322,5.0948322 0 0 0 -0.464737,0.20803 5.0948322,5.0948322 0 0 0 -0.441973,0.25323 5.0948322,5.0948322 0 0 0 -0.240273,0.17167 l -0.311721,0.24565 -25.168802,19.81137 -0.05912,0.0465 a 5.0948322,5.0948322 0 0 0 -0.356298,0.3133 5.0948322,5.0948322 0 0 0 -0.347447,0.37242 5.0948322,5.0948322 0 0 0 -0.308242,0.4053 5.0948322,5.0948322 0 0 0 -0.26588,0.43439 5.0948322,5.0948322 0 0 0 -0.22162,0.45873 5.0948322,5.0948322 0 0 0 -0.174514,0.47833 5.0948322,5.0948322 0 0 0 -0.126141,0.49319 5.0948322,5.0948322 0 0 0 -0.07619,0.50362 5.0948322,5.0948322 0 0 0 -0.02529,0.50868 5.0948322,5.0948322 0 0 0 0.01265,0.36041 5.0948322,5.0948322 0 0 0 0.06133,0.50552 5.0948322,5.0948322 0 0 0 0.1116,0.49699 5.0948322,5.0948322 0 0 0 0.160603,0.48339 5.0948322,5.0948322 0 0 0 0.208024,0.46473 5.0948322,5.0948322 0 0 0 0.253551,0.44166 5.0948322,5.0948322 0 0 0 0.29623,0.41415 5.0948322,5.0948322 0 0 0 0.336064,0.38286 5.0948322,5.0948322 0 0 0 0.372421,0.34713 5.0948322,5.0948322 0 0 0 0.405618,0.30792 5.0948322,5.0948322 0 0 0 0.43407,0.26652 5.0948322,5.0948322 0 0 0 0.458729,0.2213 5.0948322,5.0948322 0 0 0 0.478331,0.17483 5.0948322,5.0948322 0 0 0 0.49319,0.12583 5.0948322,5.0948322 0 0 0 0.503623,0.0762 5.0948322,5.0948322 0 0 0 0.50868,0.0253 h 39.345164 a 5.0948323,5.0948323 0 0 0 0.36041,-0.0127 5.0948323,5.0948323 0 0 0 0.50552,-0.0613 5.0948323,5.0948323 0 0 0 0.49698,-0.1116 5.0948323,5.0948323 0 0 0 0.48339,-0.1606 5.0948323,5.0948323 0 0 0 0.46474,-0.20803 5.0948323,5.0948323 0 0 0 0.44165,-0.25323 5.0948323,5.0948323 0 0 0 0.41416,-0.29623 5.0948323,5.0948323 0 0 0 0.38285,-0.33607 5.0948323,5.0948323 0 0 0 0.34713,-0.37273 5.0948323,5.0948323 0 0 0 0.30793,-0.4053 5.0948323,5.0948323 0 0 0 0.26651,-0.43439 5.0948323,5.0948323 0 0 0 0.2213,-0.45842 5.0948323,5.0948323 0 0 0 0.17483,-0.47833 5.0948323,5.0948323 0 0 0 0.12583,-0.4935 5.0948323,5.0948323 0 0 0 0.0762,-0.50362 5.0948323,5.0948323 0 0 0 0.0256,-0.50869 5.0948323,5.0948323 0 0 0 -0.013,-0.3604 5.0948323,5.0948323 0 0 0 -0.0613,-0.50552 5.0948323,5.0948323 0 0 0 -0.1116,-0.49699 5.0948323,5.0948323 0 0 0 -0.1606,-0.48307 5.0948323,5.0948323 0 0 0 -0.20803,-0.46505 5.0948323,5.0948323 0 0 0 -0.22351,-0.38949 l -0.33038,-0.47138 -13.8561,-19.76268 v 0.0149 a 5.0948322,5.0948322 0 0 0 -0.14511,-0.20297 5.0948322,5.0948322 0 0 0 -0.336068,-0.38286 5.0948322,5.0948322 0 0 0 -0.372737,-0.34713 5.0948322,5.0948322 0 0 0 -0.405301,-0.30824 5.0948322,5.0948322 0 0 0 -0.434386,-0.26619 5.0948322,5.0948322 0 0 0 -0.458413,-0.22131 5.0948322,5.0948322 0 0 0 -0.478647,-0.17451 5.0948322,5.0948322 0 0 0 -0.493191,-0.12614 5.0948322,5.0948322 0 0 0 -0.503623,-0.0762 5.0948322,5.0948322 0 0 0 -0.508679,-0.0253 z m -8.424378,0.49192 c -0.113395,0.80003 -1.238017,1.42456 -2.619912,1.42456 h -2.14664 v 5.9461 l 8.650738,-6.8095 a 2.8205609,2.8205609 0 0 1 -1.651554,0.5384 2.8205609,2.8205609 0 0 1 -2.232632,-1.09956 z m 8.424378,0.25829 a 4.3449016,4.3449016 0 0 1 0.433753,0.0215 4.3449016,4.3449016 0 0 1 0.429644,0.0648 4.3449016,4.3449016 0 0 1 0.420477,0.10781 4.3449016,4.3449016 0 0 1 0.408145,0.14859 4.3449016,4.3449016 0 0 1 0.391075,0.18905 4.3449016,4.3449016 0 0 1 0.370207,0.227 4.3449016,4.3449016 0 0 1 0.345865,0.26271 4.3449016,4.3449016 0 0 1 0.317728,0.29624 4.3449016,4.3449016 0 0 1 0.286747,0.32626 4.3449016,4.3449016 0 0 1 0.252285,0.35314 4.3449016,4.3449016 0 0 1 0.216245,0.37684 4.3449016,4.3449016 0 0 1 0.177354,0.39645 4.3449016,4.3449016 0 0 1 0.1369,0.41226 4.3449016,4.3449016 0 0 1 0.0952,0.42363 4.3449016,4.3449016 0 0 1 0.0525,0.43123 4.3449016,4.3449016 0 0 1 0.0108,0.3073 4.3449016,4.3449016 0 0 1 -0.0215,0.43375 4.3449016,4.3449016 0 0 1 -0.003,0.0199 l 10.71802,15.2873 a 4.3449019,4.3449019 0 0 1 0.25134,0.0642 4.3449019,4.3449019 0 0 1 0.40783,0.1489 4.3449019,4.3449019 0 0 1 0.39107,0.18906 4.3449019,4.3449019 0 0 1 0.37021,0.22668 4.3449019,4.3449019 0 0 1 0.34587,0.26271 4.3449019,4.3449019 0 0 1 0.31772,0.29623 4.3449019,4.3449019 0 0 1 0.28296,0.32216 l 0.28168,0.40182 a 4.3449019,4.3449019 0 0 1 0.19064,0.33227 4.3449019,4.3449019 0 0 1 0.17768,0.39645 4.3449019,4.3449019 0 0 1 0.13657,0.41194 4.3449019,4.3449019 0 0 1 0.0955,0.42395 4.3449019,4.3449019 0 0 1 0.0522,0.43123 4.3449019,4.3449019 0 0 1 0.0111,0.30729 4.3449019,4.3449019 0 0 1 -0.0218,0.43376 4.3449019,4.3449019 0 0 1 -0.0651,0.42933 4.3449019,4.3449019 0 0 1 -0.10717,0.4211 4.3449019,4.3449019 0 0 1 -0.14922,0.40783 4.3449019,4.3449019 0 0 1 -0.18874,0.39108 4.3449019,4.3449019 0 0 1 -0.227,0.37021 4.3449019,4.3449019 0 0 1 -0.26303,0.34555 4.3449019,4.3449019 0 0 1 -0.29592,0.31804 4.3449019,4.3449019 0 0 1 -0.32626,0.28643 4.3449019,4.3449019 0 0 1 -0.35345,0.2526 4.3449019,4.3449019 0 0 1 -0.37653,0.21625 4.3449019,4.3449019 0 0 1 -0.39645,0.17736 4.3449019,4.3449019 0 0 1 -0.41226,0.13689 4.3449019,4.3449019 0 0 1 -0.42364,0.0952 4.3449019,4.3449019 0 0 1 -0.43122,0.0525 4.3449019,4.3449019 0 0 1 -0.3073,0.0107 4.3449019,4.3449019 0 0 1 -0.43375,-0.0215 4.3449019,4.3449019 0 0 1 -0.42933,-0.0651 4.3449019,4.3449019 0 0 1 -0.42079,-0.10717 4.3449019,4.3449019 0 0 1 -0.40815,-0.14922 4.3449019,4.3449019 0 0 1 -0.39107,-0.18874 4.3449019,4.3449019 0 0 1 -0.37021,-0.227 4.3449019,4.3449019 0 0 1 -0.34586,-0.26271 4.3449019,4.3449019 0 0 1 -0.18369,-0.17167 H 73.743356 a 4.4047705,4.4047705 0 0 1 -0.07777,-0.003 4.3449019,4.3449019 0 0 1 -0.290856,0.25545 4.3449019,4.3449019 0 0 1 -0.353137,0.2526 4.3449019,4.3449019 0 0 1 -0.376848,0.21624 4.3449019,4.3449019 0 0 1 -0.396447,0.17736 4.3449019,4.3449019 0 0 1 -0.412257,0.13689 4.3449019,4.3449019 0 0 1 -0.423638,0.0952 4.3449019,4.3449019 0 0 1 -0.431224,0.0525 4.3449019,4.3449019 0 0 1 -0.307296,0.0107 4.3449019,4.3449019 0 0 1 -0.433753,-0.0215 4.3449019,4.3449019 0 0 1 -0.429329,-0.0651 4.3449019,4.3449019 0 0 1 -0.420792,-0.10718 4.3449019,4.3449019 0 0 1 -0.40783,-0.14922 4.3449019,4.3449019 0 0 1 -0.39139,-0.18874 4.3449019,4.3449019 0 0 1 -0.370209,-0.22699 4.3449019,4.3449019 0 0 1 -0.345865,-0.26303 4.3449019,4.3449019 0 0 1 -0.317411,-0.29592 4.3449019,4.3449019 0 0 1 -0.286746,-0.32626 4.3449019,4.3449019 0 0 1 -0.252918,-0.35345 4.3449019,4.3449019 0 0 1 -0.215928,-0.37654 4.3449019,4.3449019 0 0 1 -0.177358,-0.39644 4.3449019,4.3449019 0 0 1 -0.137209,-0.41226 4.3449019,4.3449019 0 0 1 -0.09484,-0.42364 4.3449019,4.3449019 0 0 1 -0.05248,-0.43122 4.3449019,4.3449019 0 0 1 -0.01075,-0.3073 4.3449019,4.3449019 0 0 1 0.02181,-0.43375 4.3449019,4.3449019 0 0 1 0.06481,-0.42933 4.3449019,4.3449019 0 0 1 0.107492,-0.42079 4.3449019,4.3449019 0 0 1 0.148905,-0.40815 4.3449019,4.3449019 0 0 1 0.188739,-0.39107 4.3449019,4.3449019 0 0 1 0.226994,-0.37021 4.3449019,4.3449019 0 0 1 0.262718,-0.34587 4.3449019,4.3449019 0 0 1 0.29623,-0.31773 4.3449019,4.3449019 0 0 1 0.304134,-0.26714 l 0.05027,-0.0395 a 4.3449019,4.3449019 0 0 1 0.325316,-0.23268 4.3449019,4.3449019 0 0 1 0.376531,-0.21593 4.3449019,4.3449019 0 0 1 0.396449,-0.17736 4.3449019,4.3449019 0 0 1 0.412257,-0.13721 4.3449019,4.3449019 0 0 1 0.423636,-0.0948 4.3449019,4.3449019 0 0 1 0.431226,-0.0525 4.3449019,4.3449019 0 0 1 0.242484,-0.009 4.4047705,4.4047705 0 0 1 0.06544,-0.0702 4.4047705,4.4047705 0 0 1 0.307927,-0.27062 l 0.05122,-0.0405 20.790479,-16.36473 a 4.3449016,4.3449016 0 0 1 0.03857,-0.15112 4.3449016,4.3449016 0 0 1 0.148905,-0.40815 4.3449016,4.3449016 0 0 1 0.188739,-0.39107 4.3449016,4.3449016 0 0 1 0.226995,-0.37053 4.3449016,4.3449016 0 0 1 0.263034,-0.34555 4.3449016,4.3449016 0 0 1 0.295913,-0.31772 4.3449016,4.3449016 0 0 1 0.208659,-0.18337 l 0.266195,-0.20961 a 4.3449016,4.3449016 0 0 1 0.204863,-0.14606 4.3449016,4.3449016 0 0 1 0.376531,-0.21624 4.3449016,4.3449016 0 0 1 0.396449,-0.17736 4.3449016,4.3449016 0 0 1 0.412257,-0.13689 4.3449016,4.3449016 0 0 1 0.423953,-0.0952 4.3449016,4.3449016 0 0 1 0.430909,-0.0525 4.3449016,4.3449016 0 0 1 0.307296,-0.0111 z m 0,0.68731 a 3.6575107,3.6575107 0 0 0 -0.258609,0.009 3.6575107,3.6575107 0 0 0 -0.362938,0.0439 3.6575107,3.6575107 0 0 0 -0.35693,0.0803 3.6575107,3.6575107 0 0 0 -0.346813,0.11508 3.6575107,3.6575107 0 0 0 -0.333536,0.14954 3.6575107,3.6575107 0 0 0 -0.317096,0.18178 3.6575107,3.6575107 0 0 0 -0.172616,0.1233 l -0.224149,0.17609 a 3.6575107,3.6575107 0 0 0 -0.175461,0.15428 3.6575107,3.6575107 0 0 0 -0.249125,0.26778 3.6575107,3.6575107 0 0 0 -0.221302,0.29086 3.6575107,3.6575107 0 0 0 -0.190953,0.31172 3.6575107,3.6575107 0 0 0 -0.159022,0.32942 3.6575107,3.6575107 0 0 0 -0.125511,0.34334 3.6575107,3.6575107 0 0 0 -0.09042,0.35408 3.6575107,3.6575107 0 0 0 -0.05469,0.36167 3.6575107,3.6575107 0 0 0 -0.01834,0.36516 3.6575107,3.6575107 0 0 0 0.0092,0.2586 3.6575107,3.6575107 0 0 0 0.04426,0.36294 3.6575107,3.6575107 0 0 0 0.07998,0.35693 3.6575107,3.6575107 0 0 0 0.115078,0.34681 3.6575107,3.6575107 0 0 0 0.149538,0.33354 3.6575107,3.6575107 0 0 0 0.181784,0.3171 3.6575107,3.6575107 0 0 0 0.212768,0.29749 3.6575107,3.6575107 0 0 0 0.241219,0.27473 3.6575107,3.6575107 0 0 0 0.26746,0.24913 3.6575107,3.6575107 0 0 0 0.291172,0.2213 3.6575107,3.6575107 0 0 0 0.311721,0.19095 3.6575107,3.6575107 0 0 0 0.329111,0.15934 3.6575107,3.6575107 0 0 0 0.343651,0.1252 3.6575107,3.6575107 0 0 0 0.354085,0.0904 3.6575107,3.6575107 0 0 0 0.361357,0.0547 3.6575107,3.6575107 0 0 0 0.365151,0.0183 3.6575107,3.6575107 0 0 0 0.258607,-0.009 3.6575107,3.6575107 0 0 0 0.363253,-0.0443 3.6575107,3.6575107 0 0 0 0.356615,-0.08 3.6575107,3.6575107 0 0 0 0.34713,-0.11508 3.6575107,3.6575107 0 0 0 0.333536,-0.14954 3.6575107,3.6575107 0 0 0 0.317095,-0.1821 3.6575107,3.6575107 0 0 0 0.297494,-0.21245 3.6575107,3.6575107 0 0 0 0.274733,-0.24122 3.6575107,3.6575107 0 0 0 0.249124,-0.26777 3.6575107,3.6575107 0 0 0 0.220986,-0.29086 3.6575107,3.6575107 0 0 0 0.191269,-0.31172 3.6575107,3.6575107 0 0 0 0.159023,-0.32911 3.6575107,3.6575107 0 0 0 0.125511,-0.34365 3.6575107,3.6575107 0 0 0 0.09042,-0.35409 3.6575107,3.6575107 0 0 0 0.05438,-0.36135 3.6575107,3.6575107 0 0 0 0.01834,-0.36547 3.6575107,3.6575107 0 0 0 -0.0092,-0.25861 3.6575107,3.6575107 0 0 0 -0.04395,-0.36294 3.6575107,3.6575107 0 0 0 -0.07999,-0.35661 3.6575107,3.6575107 0 0 0 -0.115393,-0.34713 3.6575107,3.6575107 0 0 0 -0.149538,-0.33354 3.6575107,3.6575107 0 0 0 -0.181784,-0.31709 3.6575107,3.6575107 0 0 0 -0.212451,-0.2975 3.6575107,3.6575107 0 0 0 -0.241537,-0.27473 3.6575107,3.6575107 0 0 0 -0.26746,-0.24912 3.6575107,3.6575107 0 0 0 -0.290856,-0.22131 3.6575107,3.6575107 0 0 0 -0.312037,-0.19095 3.6575107,3.6575107 0 0 0 -0.328793,-0.15902 3.6575107,3.6575107 0 0 0 -0.343652,-0.12551 3.6575107,3.6575107 0 0 0 -0.354401,-0.0904 3.6575107,3.6575107 0 0 0 -0.361358,-0.0547 3.6575107,3.6575107 0 0 0 -0.365148,-0.018 z m 11.268125,0.34618 -3.75963,3.75962 c -0.0334,0.0334 -0.0677,0.064 -0.10211,0.093 l 4.11592,5.87022 c -0.0739,-2.89822 -0.17169,-6.54924 -0.25418,-9.72279 z m -28.467804,0.13278 v 9.10157 l 3.37266,-2.65469 v -6.44688 z m 1.299049,1.35501 a 0.35357141,0.35357141 0 0 1 0.353454,0.35345 0.35357141,0.35357141 0 0 1 -0.353454,0.35377 0.35357141,0.35357141 0 0 1 -0.353452,-0.35377 0.35357141,0.35357141 0 0 1 0.353452,-0.35345 z m 15.90063,0.66612 v 6.3e-4 a 1.1572592,1.1572592 0 0 1 0.115393,0.005 1.1572592,1.1572592 0 0 1 0.114445,0.0174 1.1572592,1.1572592 0 0 1 0.112233,0.0285 1.1572592,1.1572592 0 0 1 0.108754,0.0398 1.1572592,1.1572592 0 0 1 0.104013,0.0503 1.1572592,1.1572592 0 0 1 0.09864,0.0604 1.1572592,1.1572592 0 0 1 0.092,0.0702 1.1572592,1.1572592 0 0 1 0.08473,0.0787 1.1572592,1.1572592 0 0 1 0.07651,0.0869 1.1572592,1.1572592 0 0 1 0.06702,0.0942 1.1572592,1.1572592 0 0 1 0.05754,0.10022 1.1572592,1.1572592 0 0 1 0.04742,0.10559 1.1572592,1.1572592 0 0 1 0.03636,0.10971 1.1572592,1.1572592 0 0 1 0.02529,0.11286 1.1572592,1.1572592 0 0 1 0.01391,0.11476 1.1572592,1.1572592 0 0 1 0.0028,0.0819 1.1572592,1.1572592 0 0 1 -0.0057,0.11571 1.1572592,1.1572592 0 0 1 -0.01707,0.11444 1.1572592,1.1572592 0 0 1 -0.02877,0.11192 1.1572592,1.1572592 0 0 1 -0.03952,0.10875 1.1572592,1.1572592 0 0 1 -0.05058,0.10401 1.1572592,1.1572592 0 0 1 -0.06038,0.0986 1.1572592,1.1572592 0 0 1 -0.06987,0.092 1.1572592,1.1572592 0 0 1 -0.07904,0.0847 1.1572592,1.1572592 0 0 1 -0.08694,0.0765 1.1572592,1.1572592 0 0 1 -0.09389,0.067 1.1572592,1.1572592 0 0 1 -0.100536,0.0579 1.1572592,1.1572592 0 0 1 -0.105277,0.0471 1.1572592,1.1572592 0 0 1 -0.11002,0.0367 1.1572592,1.1572592 0 0 1 -0.112863,0.0253 1.1572592,1.1572592 0 0 1 -0.114763,0.0139 1.1572592,1.1572592 0 0 1 -0.08188,0.003 1.1572592,1.1572592 0 0 1 -0.115711,-0.006 1.1572592,1.1572592 0 0 1 -0.11413,-0.0171 1.1572592,1.1572592 0 0 1 -0.112232,-0.0288 1.1572592,1.1572592 0 0 1 -0.108754,-0.0395 1.1572592,1.1572592 0 0 1 -0.104013,-0.0503 1.1572592,1.1572592 0 0 1 -0.09864,-0.0607 1.1572592,1.1572592 0 0 1 -0.092,-0.0699 1.1572592,1.1572592 0 0 1 -0.08473,-0.0787 1.1572592,1.1572592 0 0 1 -0.07619,-0.0869 1.1572592,1.1572592 0 0 1 -0.06734,-0.0942 1.1572592,1.1572592 0 0 1 -0.05754,-0.10021 1.1572592,1.1572592 0 0 1 -0.04742,-0.1056 1.1572592,1.1572592 0 0 1 -0.03636,-0.1097 1.1572592,1.1572592 0 0 1 -0.02529,-0.11318 1.1572592,1.1572592 0 0 1 -0.01391,-0.11476 1.1572592,1.1572592 0 0 1 -0.0032,-0.0819 1.1572592,1.1572592 0 0 1 0.006,-0.1154 1.1572592,1.1572592 0 0 1 0.01739,-0.11444 1.1572592,1.1572592 0 0 1 0.02845,-0.11192 1.1572592,1.1572592 0 0 1 0.03983,-0.10875 1.1572592,1.1572592 0 0 1 0.05027,-0.10433 1.1572592,1.1572592 0 0 1 0.06038,-0.0986 1.1572592,1.1572592 0 0 1 0.06987,-0.092 1.1572592,1.1572592 0 0 1 0.07904,-0.0847 1.1572592,1.1572592 0 0 1 0.05533,-0.0487 l 0.07113,-0.056 a 1.1572592,1.1572592 0 0 1 0.05438,-0.0389 1.1572592,1.1572592 0 0 1 0.100536,-0.0575 1.1572592,1.1572592 0 0 1 0.105592,-0.0471 1.1572592,1.1572592 0 0 1 0.109704,-0.0367 1.1572592,1.1572592 0 0 1 0.112864,-0.0253 1.1572592,1.1572592 0 0 1 0.114762,-0.0139 1.1572592,1.1572592 0 0 1 0.08188,-0.003 z m -15.90063,0.90545 a 0.35357141,0.35357141 0 0 1 0.353454,0.35345 0.35357141,0.35357141 0 0 1 -0.353454,0.35345 0.35357141,0.35357141 0 0 1 -0.353452,-0.35345 0.35357141,0.35357141 0 0 1 0.353452,-0.35345 z m 0,1.57156 a 0.35357141,0.35357141 0 0 1 0.353454,0.35346 0.35357141,0.35357141 0 0 1 -0.353454,0.35345 0.35357141,0.35357141 0 0 1 -0.353452,-0.35345 0.35357141,0.35357141 0 0 1 0.353452,-0.35346 z m 12.213403,1.05973 -16.918305,13.31739 -0.04015,0.0313 a 3.4534268,3.4534268 0 0 0 -0.241537,0.21245 3.4534268,3.4534268 0 0 0 -0.23553,0.25228 3.4534268,3.4534268 0 0 0 -0.208656,0.27474 3.4534268,3.4534268 0 0 0 -0.18052,0.29464 3.4534268,3.4534268 0 0 0 -0.150171,0.31078 3.4534268,3.4534268 0 0 0 -0.118239,0.32405 3.4534268,3.4534268 0 0 0 0,3.1e-4 4.3890129,4.3890129 0 0 1 0.134047,0.18716 4.3890129,4.3890129 0 0 1 0.218458,0.38065 4.3890129,4.3890129 0 0 1 0.179255,0.40055 4.3890129,4.3890129 0 0 1 0.138157,0.41605 4.3890129,4.3890129 0 0 1 0.09611,0.42807 4.3890129,4.3890129 0 0 1 0.0528,0.43533 4.3890129,4.3890129 0 0 1 0.01107,0.31077 4.3890129,4.3890129 0 0 1 -0.02182,0.43818 4.3890129,4.3890129 0 0 1 -0.05343,0.35314 3.4534268,3.4534268 0 0 0 0.06702,0.0765 3.4534268,3.4534268 0 0 0 0.252601,0.23553 3.4534268,3.4534268 0 0 0 0.274732,0.20866 3.4534268,3.4534268 0 0 0 0.294334,0.18052 3.4534268,3.4534268 0 0 0 0.311088,0.15017 3.4534268,3.4534268 0 0 0 0.324052,0.11855 3.4534268,3.4534268 0 0 0 0.334483,0.0851 3.4534268,3.4534268 0 0 0 0.341122,0.0518 3.4534268,3.4534268 0 0 0 0.344917,0.0171 H 104.2013 a 3.4534268,3.4534268 0 0 0 0.24438,-0.009 3.4534268,3.4534268 0 0 0 0.34271,-0.0414 3.4534268,3.4534268 0 0 0 0.33669,-0.0759 3.4534268,3.4534268 0 0 0 0.32785,-0.10876 3.4534268,3.4534268 0 0 0 0.31488,-0.141 3.4534268,3.4534268 0 0 0 0.12045,-0.0692 4.3890129,4.3890129 0 0 1 -0.098,-0.29623 4.3890129,4.3890129 0 0 1 -0.0964,-0.42807 4.3890129,4.3890129 0 0 1 -0.0528,-0.43565 4.3890129,4.3890129 0 0 1 -0.0108,-0.31046 4.3890129,4.3890129 0 0 1 0.0218,-0.43818 4.3890129,4.3890129 0 0 1 0.0654,-0.43375 4.3890129,4.3890129 0 0 1 0.10844,-0.4249 4.3890129,4.3890129 0 0 1 0.1508,-0.41226 4.3890129,4.3890129 0 0 1 0.19064,-0.39518 4.3890129,4.3890129 0 0 1 0.22921,-0.374 4.3890129,4.3890129 0 0 1 0.26556,-0.34903 4.3890129,4.3890129 0 0 1 0.29908,-0.32121 4.3890129,4.3890129 0 0 1 0.19443,-0.17072 3.4534268,3.4534268 0 0 0 -0.0281,-0.0493 l -0.22383,-0.31962 -8.731043,-12.45273 a 4.3890129,4.3890129 0 0 1 -0.16819,0.0964 4.3890129,4.3890129 0 0 1 -0.400559,0.17926 4.3890129,4.3890129 0 0 1 -0.416366,0.13815 4.3890129,4.3890129 0 0 1 -0.428063,0.0961 4.3890129,4.3890129 0 0 1 -0.435652,0.0531 4.3890129,4.3890129 0 0 1 -0.31014,0.0111 4.3890129,4.3890129 0 0 1 -0.438497,-0.0221 4.3890129,4.3890129 0 0 1 -0.433753,-0.0654 4.3890129,4.3890129 0 0 1 -0.424902,-0.10844 4.3890129,4.3890129 0 0 1 -0.412257,-0.15049 4.3890129,4.3890129 0 0 1 -0.395183,-0.19095 4.3890129,4.3890129 0 0 1 -0.374002,-0.22921 4.3890129,4.3890129 0 0 1 -0.349027,-0.26556 4.3890129,4.3890129 0 0 1 -0.320889,-0.29908 4.3890129,4.3890129 0 0 1 -0.289592,-0.32974 4.3890129,4.3890129 0 0 1 -0.24944,-0.34871 z m -4.839583,5.27049 h 11.611459 c 0.619212,0 1.117576,0.49836 1.117576,1.11758 0,0.61921 -0.498364,1.1179 -1.117576,1.1179 h -0.101167 c -0.09331,-0.14137 -0.214133,-0.25948 -0.355667,-0.35662 0.01046,-0.0653 0.01757,-0.13109 0.0177,-0.19759 3e-6,-0.70168 -0.568917,-1.2706 -1.270595,-1.27059 -0.70168,-1e-5 -1.270606,0.56891 -1.270596,1.27059 1.15e-4,0.0556 0.005,0.1106 0.01233,0.16535 -0.163278,0.10278 -0.301851,0.23117 -0.405933,0.38886 h -0.604475 c -0.09724,-0.14731 -0.224662,-0.26899 -0.374002,-0.36831 0.0093,-0.0615 0.01567,-0.12338 0.01581,-0.1859 6e-6,-0.70168 -0.568916,-1.2706 -1.270596,-1.27059 -0.701681,-1e-5 -1.270286,0.56891 -1.270281,1.27059 1.26e-4,0.0594 0.0059,0.11825 0.01423,0.17673 -0.155398,0.1009 -0.287673,0.22562 -0.387912,0.37748 h -0.60479 c -0.100415,-0.15213 -0.233099,-0.27681 -0.388861,-0.3778 0.0084,-0.0584 0.01438,-0.11714 0.01454,-0.17641 5e-6,-0.70183 -0.569396,-1.27082 -1.271227,-1.27059 -0.701681,-1e-5 -1.270287,0.56891 -1.270281,1.27059 2e-4,0.0627 0.0065,0.12485 0.01581,0.18653 -0.148832,0.0992 -0.275755,0.22075 -0.372738,0.36768 h -0.482757 c -0.619215,0 -1.117581,-0.49869 -1.117581,-1.1179 0,-0.61922 0.498366,-1.11758 1.117581,-1.11758 z m 2.119136,0.79574 a 0.8670263,0.8670263 0 0 1 0.867192,0.86688 0.8670263,0.8670263 0 0 1 -0.08283,0.36768 c 0.471139,0.15836 0.809337,0.60123 0.809337,1.12706 v 0.42997 c -0.0042,0 -0.0081,-6.4e-4 -0.01233,-6.4e-4 -0.531259,2e-5 -0.962367,0.18359 -0.96267,0.41005 -2.7e-4,0.1342 0.160916,0.24761 0.394552,0.32247 0.08565,0.0275 0.17753,0.0495 0.282004,0.0635 0.06115,0.022 0.126111,0.0406 0.17641,0.0705 0.06732,0.0399 0.116695,0.0896 0.159654,0.14069 0.01376,0.0163 0.02734,0.0324 0.03825,0.0496 0.03574,0.0571 0.0619,0.11736 0.06197,0.18179 9.4e-5,0.0646 -0.02618,0.1249 -0.06197,0.1821 -0.01081,0.0171 -0.02432,0.0332 -0.03794,0.0493 -0.04293,0.0512 -0.09195,0.10067 -0.15934,0.14068 -0.03617,0.0215 -0.08513,0.0331 -0.127091,0.0506 -0.160838,0.0178 -0.309246,0.047 -0.425851,0.0945 -0.183504,0.0747 -0.300499,0.17864 -0.300656,0.29529 -2.7e-4,0.13421 0.160916,0.24761 0.394552,0.32247 0.08565,0.0275 0.17753,0.0492 0.282004,0.0632 0.06115,0.022 0.126111,0.041 0.17641,0.0708 0.06732,0.0399 0.116695,0.0896 0.159654,0.14069 0.01376,0.0163 0.02734,0.0324 0.03825,0.0496 0.03574,0.0571 0.0619,0.11736 0.06197,0.18179 9.4e-5,0.0646 -0.02618,0.1249 -0.06197,0.1821 -0.01081,0.0171 -0.02432,0.0332 -0.03794,0.0493 -0.04293,0.0512 -0.09195,0.10067 -0.15934,0.14068 -0.03617,0.0215 -0.08513,0.0331 -0.127091,0.0506 -0.161368,0.0179 -0.31031,0.0472 -0.427115,0.0948 -0.182837,0.0746 -0.299235,0.17825 -0.299392,0.29465 -4.59e-4,0.22668 0.430872,0.41065 0.96267,0.41068 0.0042,0 0.0081,-3e-4 0.01233,-3.2e-4 v 2.13305 c 0,0.52585 -0.338164,0.96903 -0.809337,1.12738 a 0.8670263,0.8670263 0 0 1 0.08283,0.36768 0.8670263,0.8670263 0 0 1 -0.867192,0.86687 0.8670263,0.8670263 0 0 1 -0.866876,-0.86687 0.8670263,0.8670263 0 0 1 0.08315,-0.36768 c -0.471293,-0.15827 -0.809652,-0.60143 -0.809652,-1.12738 v -2.13305 c 0.0042,0 0.0081,3.2e-4 0.01233,3.2e-4 0.532007,9e-5 0.963443,-0.18392 0.962985,-0.41068 -1.57e-4,-0.11635 -0.116075,-0.22007 -0.298759,-0.29465 -0.117164,-0.0478 -0.267011,-0.077 -0.429013,-0.0948 -0.04172,-0.0174 -0.09016,-0.0292 -0.126142,-0.0506 -0.06739,-0.04 -0.11641,-0.0895 -0.159339,-0.14068 -0.01361,-0.0161 -0.02713,-0.0322 -0.03794,-0.0493 -0.03579,-0.0572 -0.06206,-0.1175 -0.06197,-0.1821 6.2e-5,-0.0644 0.02623,-0.12471 0.06197,-0.18179 0.01093,-0.0172 0.02449,-0.0333 0.03825,-0.0496 0.04296,-0.0511 0.09201,-0.10074 0.159338,-0.14069 0.05029,-0.0299 0.115573,-0.0488 0.176727,-0.0708 0.104721,-0.0141 0.196811,-0.0357 0.282635,-0.0632 0.233589,-0.0749 0.394505,-0.18827 0.394236,-0.32247 -1.57e-4,-0.11636 -0.116072,-0.22033 -0.298759,-0.29497 -0.117044,-0.0478 -0.266576,-0.077 -0.42838,-0.0948 -0.04188,-0.0176 -0.09067,-0.0292 -0.126775,-0.0506 -0.06739,-0.04 -0.11641,-0.0895 -0.159339,-0.14068 -0.01361,-0.0161 -0.02713,-0.0322 -0.03794,-0.0493 -0.03579,-0.0572 -0.06206,-0.1175 -0.06197,-0.1821 6.2e-5,-0.0644 0.02623,-0.12471 0.06197,-0.18179 0.01093,-0.0172 0.02449,-0.0333 0.03825,-0.0496 0.04296,-0.0511 0.09201,-0.10074 0.159338,-0.14069 0.05029,-0.0299 0.115573,-0.0485 0.176727,-0.0705 0.10472,-0.0141 0.196811,-0.036 0.282635,-0.0635 0.233589,-0.0749 0.394505,-0.18828 0.394236,-0.32247 -3.04e-4,-0.22654 -0.431519,-0.41015 -0.962985,-0.41005 -0.0042,0 -0.0081,6.4e-4 -0.01233,6.4e-4 v -0.42997 c 0,-0.52583 0.338197,-0.9687 0.809337,-1.12706 a 0.8670263,0.8670263 0 0 1 -0.08283,-0.36768 0.8670263,0.8670263 0 0 1 0.866876,-0.86688 z m 3.877547,0 a 0.8670263,0.8670263 0 0 1 0.866874,0.86688 0.8670263,0.8670263 0 0 1 -0.08283,0.36768 c 0.471138,0.15836 0.809337,0.60123 0.809337,1.12706 v 0.42997 c -0.0042,0 -0.0081,-6.4e-4 -0.01233,-6.4e-4 -0.531257,2e-5 -0.962047,0.18359 -0.962352,0.41005 -2.7e-4,0.1342 0.1606,0.24761 0.394236,0.32247 0.08565,0.0275 0.17753,0.0495 0.282004,0.0635 0.06115,0.022 0.126425,0.0406 0.176725,0.0705 0.06732,0.0399 0.11638,0.0896 0.159339,0.14069 0.01377,0.0163 0.02765,0.0324 0.03857,0.0496 0.03573,0.0571 0.06159,0.11736 0.06165,0.18179 9.2e-5,0.0646 -0.02586,0.1249 -0.06165,0.1821 -0.01081,0.0171 -0.02432,0.0332 -0.03794,0.0493 -0.04292,0.0512 -0.09227,0.10067 -0.159653,0.14068 -0.03617,0.0215 -0.08513,0.0331 -0.127092,0.0506 -0.160841,0.0178 -0.308929,0.047 -0.425535,0.0945 -0.183509,0.0747 -0.300499,0.17864 -0.300656,0.29529 -2.72e-4,0.13421 0.160599,0.24761 0.394236,0.32247 0.08565,0.0275 0.17753,0.0492 0.282004,0.0632 0.06115,0.022 0.126432,0.041 0.176725,0.0708 0.06732,0.0399 0.11638,0.0896 0.159339,0.14069 0.01377,0.0163 0.02765,0.0324 0.03857,0.0496 0.03575,0.0571 0.06159,0.11736 0.06165,0.18179 9.2e-5,0.0646 -0.02586,0.1249 -0.06165,0.1821 -0.01081,0.0171 -0.02432,0.0332 -0.03794,0.0493 -0.04292,0.0512 -0.09227,0.10067 -0.159653,0.14068 -0.03617,0.0215 -0.08513,0.0331 -0.127092,0.0506 -0.161369,0.0179 -0.309996,0.0472 -0.426799,0.0948 -0.182838,0.0746 -0.299235,0.17825 -0.299392,0.29465 -4.6e-4,0.22668 0.430556,0.41065 0.962352,0.41068 0.0042,0 0.0081,-3e-4 0.01233,-3.2e-4 v 2.13305 c 0,0.52585 -0.338163,0.96903 -0.809337,1.12738 a 0.8670263,0.8670263 0 0 1 0.08283,0.36768 0.8670263,0.8670263 0 0 1 -0.866874,0.86687 0.8670263,0.8670263 0 0 1 -0.867193,-0.86687 0.8670263,0.8670263 0 0 1 0.08315,-0.36768 c -0.471295,-0.15827 -0.809337,-0.60143 -0.809337,-1.12738 v -2.13305 c 0.0042,0 0.0081,3.2e-4 0.01233,3.2e-4 0.532005,9e-5 0.963127,-0.18392 0.962668,-0.41068 -1.56e-4,-0.11635 -0.116067,-0.22007 -0.298759,-0.29465 -0.117161,-0.0478 -0.266695,-0.077 -0.428696,-0.0948 -0.04172,-0.0174 -0.09048,-0.0292 -0.126459,-0.0506 -0.06739,-0.04 -0.116409,-0.0895 -0.159338,-0.14068 -0.01361,-0.0161 -0.02713,-0.0322 -0.03794,-0.0493 -0.03579,-0.0572 -0.06206,-0.1175 -0.06197,-0.1821 6.2e-5,-0.0644 0.02623,-0.12471 0.06197,-0.18179 0.01093,-0.0172 0.02449,-0.0333 0.03825,-0.0496 0.04296,-0.0511 0.09233,-0.10074 0.159655,-0.14069 0.05029,-0.0299 0.115256,-0.0488 0.176409,-0.0708 0.104722,-0.0141 0.19681,-0.0357 0.282637,-0.0632 0.233586,-0.0749 0.394505,-0.18827 0.394235,-0.32247 -1.56e-4,-0.11636 -0.116067,-0.22033 -0.298759,-0.29497 -0.117045,-0.0478 -0.266575,-0.077 -0.428379,-0.0948 -0.04188,-0.0176 -0.09067,-0.0292 -0.126776,-0.0506 -0.06739,-0.04 -0.116409,-0.0895 -0.159338,-0.14068 -0.01361,-0.0161 -0.02713,-0.0322 -0.03794,-0.0493 -0.03579,-0.0572 -0.06206,-0.1175 -0.06197,-0.1821 6.2e-5,-0.0644 0.02623,-0.12471 0.06197,-0.18179 0.01093,-0.0172 0.02449,-0.0333 0.03825,-0.0496 0.04296,-0.0511 0.09233,-0.10074 0.159655,-0.14069 0.05029,-0.0299 0.115256,-0.0485 0.176409,-0.0705 0.104722,-0.0141 0.19681,-0.036 0.282637,-0.0635 0.233586,-0.0749 0.394505,-0.18828 0.394235,-0.32247 -3.03e-4,-0.22654 -0.431202,-0.41015 -0.962668,-0.41005 -0.0042,0 -0.0081,6.4e-4 -0.01233,6.4e-4 v -0.42997 c 0,-0.52583 0.33788,-0.9687 0.809019,-1.12706 a 0.8670263,0.8670263 0 0 1 -0.08283,-0.36768 0.8670263,0.8670263 0 0 1 0.867193,-0.86688 z m 3.877229,0 a 0.8670263,0.8670263 0 0 1 0.867192,0.86688 0.8670263,0.8670263 0 0 1 -0.08283,0.36768 c 0.471143,0.15836 0.809022,0.60123 0.809022,1.12706 v 0.42997 c -0.0042,0 -0.0081,-6.4e-4 -0.01233,-6.4e-4 -0.531258,2e-5 -0.962049,0.18359 -0.962352,0.41005 -2.73e-4,0.1342 0.160914,0.24761 0.394552,0.32247 0.08565,0.0275 0.177213,0.0495 0.281687,0.0635 0.06115,0.022 0.126429,0.0406 0.176727,0.0705 0.06732,0.0399 0.116377,0.0896 0.159337,0.14069 0.01377,0.0163 0.02766,0.0324 0.03857,0.0496 0.03574,0.0571 0.06158,0.11736 0.06165,0.18179 9.3e-5,0.0646 -0.02586,0.1249 -0.06165,0.1821 -0.01081,0.0171 -0.02433,0.0332 -0.03794,0.0493 -0.04293,0.0512 -0.09195,0.10067 -0.159339,0.14068 -0.03617,0.0215 -0.08513,0.0331 -0.12709,0.0506 -0.160842,0.0178 -0.309248,0.047 -0.425851,0.0945 -0.183511,0.0747 -0.3005,0.17864 -0.300656,0.29529 -2.73e-4,0.13421 0.160916,0.24761 0.394552,0.32247 0.08565,0.0275 0.177213,0.0492 0.281687,0.0632 0.06115,0.022 0.126425,0.041 0.176727,0.0708 0.06732,0.0399 0.116377,0.0896 0.159337,0.14069 0.01377,0.0163 0.02766,0.0324 0.03857,0.0496 0.03574,0.0571 0.06158,0.11736 0.06165,0.18179 9.3e-5,0.0646 -0.02586,0.1249 -0.06165,0.1821 -0.01081,0.0171 -0.02433,0.0332 -0.03794,0.0493 -0.04293,0.0512 -0.09195,0.10067 -0.159339,0.14068 -0.03617,0.0215 -0.08513,0.0331 -0.12709,0.0506 -0.161371,0.0179 -0.310313,0.0472 -0.427115,0.0948 -0.182841,0.0746 -0.299236,0.17825 -0.299392,0.29465 -4.59e-4,0.22668 0.430555,0.41065 0.962352,0.41068 0.0042,0 0.0081,-3e-4 0.01233,-3.2e-4 v 2.13305 c 0,0.52585 -0.337847,0.96903 -0.809022,1.12738 a 0.8670263,0.8670263 0 0 1 0.08283,0.36768 0.8670263,0.8670263 0 0 1 -0.867192,0.86687 0.8670263,0.8670263 0 0 1 -0.867191,-0.86687 0.8670263,0.8670263 0 0 1 0.08315,-0.36768 c -0.471293,-0.15827 -0.809337,-0.60143 -0.809337,-1.12738 v -2.13305 c 0.0042,0 0.0081,3.2e-4 0.01233,3.2e-4 0.532006,9e-5 0.963442,-0.18392 0.962984,-0.41068 -1.57e-4,-0.11635 -0.116382,-0.22007 -0.299076,-0.29465 -0.117156,-0.0478 -0.266694,-0.077 -0.428694,-0.0948 -0.04172,-0.0174 -0.09048,-0.0292 -0.126459,-0.0506 -0.06739,-0.04 -0.11641,-0.0895 -0.159339,-0.14068 -0.01361,-0.0161 -0.02713,-0.0322 -0.03794,-0.0493 -0.0358,-0.0572 -0.06174,-0.1175 -0.06165,-0.1821 6.2e-5,-0.0644 0.02591,-0.12471 0.06165,-0.18179 0.01093,-0.0172 0.02481,-0.0333 0.03857,-0.0496 0.04296,-0.0511 0.09202,-0.10074 0.159337,-0.14069 0.0503,-0.0299 0.115574,-0.0488 0.176727,-0.0708 0.104722,-0.0141 0.196811,-0.0357 0.282635,-0.0632 0.233591,-0.0749 0.394507,-0.18827 0.394236,-0.32247 -1.57e-4,-0.11636 -0.116382,-0.22033 -0.299076,-0.29497 -0.117038,-0.0478 -0.266257,-0.077 -0.428063,-0.0948 -0.04188,-0.0176 -0.09098,-0.0292 -0.12709,-0.0506 -0.06739,-0.04 -0.11641,-0.0895 -0.159339,-0.14068 -0.01361,-0.0161 -0.02713,-0.0322 -0.03794,-0.0493 -0.0358,-0.0572 -0.06174,-0.1175 -0.06165,-0.1821 6.2e-5,-0.0644 0.02591,-0.12471 0.06165,-0.18179 0.01093,-0.0172 0.02481,-0.0333 0.03857,-0.0496 0.04296,-0.0511 0.09202,-0.10074 0.159337,-0.14069 0.0503,-0.0299 0.115574,-0.0485 0.176727,-0.0705 0.104722,-0.0141 0.196811,-0.036 0.282635,-0.0635 0.233589,-0.0749 0.394507,-0.18828 0.394236,-0.32247 -3.02e-4,-0.22654 -0.431517,-0.41015 -0.962984,-0.41005 -0.0042,0 -0.0081,6.4e-4 -0.01233,6.4e-4 v -0.42997 c 0,-0.52583 0.337882,-0.9687 0.809021,-1.12706 a 0.8670263,0.8670263 0 0 1 -0.08283,-0.36768 0.8670263,0.8670263 0 0 1 0.867191,-0.86688 z m -7.754776,0.32532 a 0.29825524,0.29825524 0 0 0 -0.297812,0.29844 0.29825524,0.29825524 0 0 0 0.297812,0.29845 0.29825524,0.29825524 0 0 0 0.298443,-0.29845 0.29825524,0.29825524 0 0 0 -0.298443,-0.29844 z m 3.877547,0 a 0.29825524,0.29825524 0 0 0 -0.298128,0.29844 0.29825524,0.29825524 0 0 0 0.298128,0.29845 0.29825524,0.29825524 0 0 0 0.298126,-0.29845 0.29825524,0.29825524 0 0 0 -0.298126,-0.29844 z m 3.877229,0 a 0.29825524,0.29825524 0 0 0 -0.298127,0.29844 0.29825524,0.29825524 0 0 0 0.298127,0.29845 0.29825524,0.29825524 0 0 0 0.298443,-0.29845 0.29825524,0.29825524 0 0 0 -0.298443,-0.29844 z m -26.686625,7.52747 a 3.6575107,3.6575107 0 0 0 -0.258607,0.009 3.6575107,3.6575107 0 0 0 -0.362938,0.0439 3.6575107,3.6575107 0 0 0 -0.356931,0.0803 3.6575107,3.6575107 0 0 0 -0.346813,0.11508 3.6575107,3.6575107 0 0 0 -0.333535,0.14922 3.6575107,3.6575107 0 0 0 -0.317412,0.1821 3.6575107,3.6575107 0 0 0 -0.273467,0.1957 l -0.04268,0.0335 a 3.6575107,3.6575107 0 0 0 -0.255762,0.22478 3.6575107,3.6575107 0 0 0 -0.249125,0.26746 3.6575107,3.6575107 0 0 0 -0.221302,0.29117 3.6575107,3.6575107 0 0 0 -0.191269,0.31141 3.6575107,3.6575107 0 0 0 -0.159024,0.32942 3.6575107,3.6575107 0 0 0 -0.125193,0.34334 3.6575107,3.6575107 0 0 0 -0.09042,0.35408 3.6575107,3.6575107 0 0 0 -0.05469,0.36167 3.6575107,3.6575107 0 0 0 -0.01834,0.36515 3.6575107,3.6575107 0 0 0 0.0092,0.25861 3.6575107,3.6575107 0 0 0 0.04426,0.36294 3.6575107,3.6575107 0 0 0 0.07999,0.35693 3.6575107,3.6575107 0 0 0 0.115078,0.34681 3.6575107,3.6575107 0 0 0 0.149221,0.33354 3.6575107,3.6575107 0 0 0 0.1821,0.31741 3.6575107,3.6575107 0 0 0 0.212767,0.29718 3.6575107,3.6575107 0 0 0 0.241221,0.27473 3.6575107,3.6575107 0 0 0 0.26746,0.24913 3.6575107,3.6575107 0 0 0 0.291172,0.2213 3.6575107,3.6575107 0 0 0 0.311721,0.19127 3.6575107,3.6575107 0 0 0 0.329109,0.15902 3.6575107,3.6575107 0 0 0 0.343653,0.1252 3.6575107,3.6575107 0 0 0 0.353769,0.0904 3.6575107,3.6575107 0 0 0 0.361672,0.0547 3.6575107,3.6575107 0 0 0 0.36515,0.0183 3.6575107,3.6575107 0 0 0 0.258609,-0.009 3.6575107,3.6575107 0 0 0 0.362938,-0.0439 3.6575107,3.6575107 0 0 0 0.35693,-0.0803 3.6575107,3.6575107 0 0 0 0.346812,-0.11508 3.6575107,3.6575107 0 0 0 0.333852,-0.14922 3.6575107,3.6575107 0 0 0 0.317097,-0.1821 3.6575107,3.6575107 0 0 0 0.297178,-0.21277 3.6575107,3.6575107 0 0 0 0.274732,-0.24122 3.6575107,3.6575107 0 0 0 0.24944,-0.26746 3.6575107,3.6575107 0 0 0 0.220987,-0.29117 3.6575107,3.6575107 0 0 0 0.191269,-0.31172 3.6575107,3.6575107 0 0 0 0.159022,-0.32911 3.6575107,3.6575107 0 0 0 0.12551,-0.34334 3.6575107,3.6575107 0 0 0 0.09042,-0.35408 3.6575107,3.6575107 0 0 0 0.05438,-0.36167 3.6575107,3.6575107 0 0 0 0.01834,-0.36516 3.6575107,3.6575107 0 0 0 -0.0092,-0.25892 3.6575107,3.6575107 0 0 0 -0.04395,-0.36262 3.6575107,3.6575107 0 0 0 -0.0803,-0.35693 3.6575107,3.6575107 0 0 0 -0.115078,-0.34681 3.6575107,3.6575107 0 0 0 -0.149223,-0.33386 3.6575107,3.6575107 0 0 0 -0.1821,-0.31709 3.6575107,3.6575107 0 0 0 -0.212767,-0.29718 3.6575107,3.6575107 0 0 0 -0.24122,-0.27473 3.6575107,3.6575107 0 0 0 -0.267461,-0.24944 3.6575107,3.6575107 0 0 0 -0.291171,-0.22131 3.6575107,3.6575107 0 0 0 -0.311405,-0.19095 3.6575107,3.6575107 0 0 0 -0.329426,-0.15902 3.6575107,3.6575107 0 0 0 -0.343336,-0.1252 3.6575107,3.6575107 0 0 0 -0.354084,-0.0907 3.6575107,3.6575107 0 0 0 -0.361674,-0.0544 3.6575107,3.6575107 0 0 0 -0.36515,-0.0183 z m 39.345168,0 a 3.6575107,3.6575107 0 0 0 -0.25861,0.009 3.6575107,3.6575107 0 0 0 -0.36294,0.0442 3.6575107,3.6575107 0 0 0 -0.35693,0.08 3.6575107,3.6575107 0 0 0 -0.34681,0.11508 3.6575107,3.6575107 0 0 0 -0.33386,0.14922 3.6575107,3.6575107 0 0 0 -0.31709,0.1821 3.6575107,3.6575107 0 0 0 -0.29718,0.21277 3.6575107,3.6575107 0 0 0 -0.27473,0.24122 3.6575107,3.6575107 0 0 0 -0.24944,0.26746 3.6575107,3.6575107 0 0 0 -0.22099,0.29117 3.6575107,3.6575107 0 0 0 -0.19127,0.31141 3.6575107,3.6575107 0 0 0 -0.1587,0.32942 3.6575107,3.6575107 0 0 0 -0.12552,0.34334 3.6575107,3.6575107 0 0 0 -0.0907,0.35408 3.6575107,3.6575107 0 0 0 -0.0544,0.36167 3.6575107,3.6575107 0 0 0 -0.0183,0.36515 3.6575107,3.6575107 0 0 0 0.009,0.25893 3.6575107,3.6575107 0 0 0 0.0443,0.36262 3.6575107,3.6575107 0 0 0 0.08,0.35693 3.6575107,3.6575107 0 0 0 0.11508,0.34681 3.6575107,3.6575107 0 0 0 0.14922,0.33386 3.6575107,3.6575107 0 0 0 0.1821,0.31709 3.6575107,3.6575107 0 0 0 0.21277,0.29718 3.6575107,3.6575107 0 0 0 0.24122,0.27473 3.6575107,3.6575107 0 0 0 0.26746,0.24944 3.6575107,3.6575107 0 0 0 0.29117,0.22131 3.6575107,3.6575107 0 0 0 0.31141,0.19095 3.6575107,3.6575107 0 0 0 0.32943,0.15902 3.6575107,3.6575107 0 0 0 0.34333,0.12551 3.6575107,3.6575107 0 0 0 0.3544,0.0904 3.6575107,3.6575107 0 0 0 0.36136,0.0544 3.6575107,3.6575107 0 0 0 0.36515,0.0183 3.6575107,3.6575107 0 0 0 0.25861,-0.009 3.6575107,3.6575107 0 0 0 0.36293,-0.0439 3.6575107,3.6575107 0 0 0 0.35693,-0.0803 3.6575107,3.6575107 0 0 0 0.34682,-0.1154 3.6575107,3.6575107 0 0 0 0.33385,-0.14922 3.6575107,3.6575107 0 0 0 0.3171,-0.18178 3.6575107,3.6575107 0 0 0 0.29717,-0.21277 3.6575107,3.6575107 0 0 0 0.27474,-0.24122 3.6575107,3.6575107 0 0 0 0.24912,-0.26746 3.6575107,3.6575107 0 0 0 0.2213,-0.29117 3.6575107,3.6575107 0 0 0 0.19127,-0.31172 3.6575107,3.6575107 0 0 0 0.15902,-0.32911 3.6575107,3.6575107 0 0 0 0.12552,-0.34334 3.6575107,3.6575107 0 0 0 0.0904,-0.3544 3.6575107,3.6575107 0 0 0 0.0544,-0.36135 3.6575107,3.6575107 0 0 0 0.0183,-0.36516 3.6575107,3.6575107 0 0 0 -0.009,-0.25892 3.6575107,3.6575107 0 0 0 -0.0439,-0.36262 3.6575107,3.6575107 0 0 0 -0.0803,-0.35693 3.6575107,3.6575107 0 0 0 -0.11508,-0.34681 3.6575107,3.6575107 0 0 0 -0.14954,-0.33354 3.6575107,3.6575107 0 0 0 -0.16029,-0.27979 l -0.23711,-0.33828 a 3.6575107,3.6575107 0 0 0 -0.23837,-0.27125 3.6575107,3.6575107 0 0 0 -0.26746,-0.24913 3.6575107,3.6575107 0 0 0 -0.29117,-0.2213 3.6575107,3.6575107 0 0 0 -0.31141,-0.19127 3.6575107,3.6575107 0 0 0 -0.32943,-0.15871 3.6575107,3.6575107 0 0 0 -0.34333,-0.12551 3.6575107,3.6575107 0 0 0 -0.3544,-0.0904 3.6575107,3.6575107 0 0 0 -0.36136,-0.0547 3.6575107,3.6575107 0 0 0 -0.36515,-0.0183 z m -32.599217,2.06349 h 10.527073 c 0.09861,0.16176 0.230708,0.29558 0.389493,0.40246 -0.0063,0.0503 -0.0099,0.10108 -0.01012,0.15206 -6e-6,0.70169 0.5686,1.27029 1.270281,1.27028 0.701831,2e-4 1.271232,-0.56844 1.271227,-1.27028 -1.5e-4,-0.0475 -0.0031,-0.0949 -0.0085,-0.14195 0.165717,-0.10855 0.303474,-0.24555 0.4053,-0.41257 h 0.559898 c 0.101706,0.16683 0.239214,0.30376 0.404668,0.41226 -0.0054,0.047 -0.0084,0.0944 -0.0085,0.14195 -5e-6,0.70169 0.568598,1.27028 1.270281,1.27028 0.70168,0 1.270602,-0.56859 1.270596,-1.27028 -1.07e-4,-0.0507 -0.0037,-0.1011 -0.0098,-0.15112 0.159204,-0.10698 0.291633,-0.24102 0.390442,-0.40309 h 0.55958 c 0.105505,0.17306 0.249556,0.31393 0.423322,0.42427 -0.0046,0.0432 -0.0071,0.0867 -0.0073,0.13025 -1e-5,0.70169 0.568916,1.27029 1.270596,1.27028 0.701681,1e-5 1.270598,-0.56859 1.270595,-1.27028 -1.09e-4,-0.0548 -0.0049,-0.10914 -0.01201,-0.16313 0.151379,-0.10493 0.277291,-0.23535 0.372422,-0.39139 h 4.529443 c 0.61921,0 1.11758,0.49868 1.11758,1.1179 0,0.61921 -0.49837,1.11789 -1.11758,1.11789 H 77.419833 c -0.619214,0 -1.11758,-0.49868 -1.11758,-1.11789 0,-0.61922 0.498366,-1.1179 1.11758,-1.1179 z m -6.745951,0.4366 a 1.1572592,1.1572593 0 0 1 0.115394,0.006 1.1572592,1.1572593 0 0 1 0.114446,0.0171 1.1572592,1.1572593 0 0 1 0.112231,0.0288 1.1572592,1.1572593 0 0 1 0.10844,0.0395 1.1572592,1.1572593 0 0 1 0.104328,0.0503 1.1572592,1.1572593 0 0 1 0.09864,0.0604 1.1572592,1.1572593 0 0 1 0.092,0.0702 1.1572592,1.1572593 0 0 1 0.08473,0.0787 1.1572592,1.1572593 0 0 1 0.07619,0.0869 1.1572592,1.1572593 0 0 1 0.06734,0.0942 1.1572592,1.1572593 0 0 1 0.05754,0.10022 1.1572592,1.1572593 0 0 1 0.04742,0.10559 1.1572592,1.1572593 0 0 1 0.03636,0.10971 1.1572592,1.1572593 0 0 1 0.02529,0.11318 1.1572592,1.1572593 0 0 1 0.01391,0.11444 1.1572592,1.1572593 0 0 1 0.0028,0.0822 1.1572592,1.1572593 0 0 1 -0.0057,0.11539 1.1572592,1.1572593 0 0 1 -0.01707,0.11445 1.1572592,1.1572593 0 0 1 -0.02877,0.11192 1.1572592,1.1572593 0 0 1 -0.03983,0.10875 1.1572592,1.1572593 0 0 1 -0.05027,0.10401 1.1572592,1.1572593 0 0 1 -0.06038,0.0986 1.1572592,1.1572593 0 0 1 -0.06987,0.0923 1.1572592,1.1572593 0 0 1 -0.07904,0.0844 1.1572592,1.1572593 0 0 1 -0.08694,0.0765 1.1572592,1.1572593 0 0 1 -0.0939,0.0673 1.1572592,1.1572593 0 0 1 -0.100534,0.0575 1.1572592,1.1572593 0 0 1 -0.105593,0.0474 1.1572592,1.1572593 0 0 1 -0.109704,0.0363 1.1572592,1.1572593 0 0 1 -0.112863,0.0253 1.1572592,1.1572593 0 0 1 -0.114763,0.0139 1.1572592,1.1572593 0 0 1 -0.08188,0.003 1.1572592,1.1572593 0 0 1 -0.115709,-0.006 1.1572592,1.1572593 0 0 1 -0.114445,-0.0174 1.1572592,1.1572593 0 0 1 -0.111917,-0.0285 1.1572592,1.1572593 0 0 1 -0.108754,-0.0395 1.1572592,1.1572593 0 0 1 -0.104013,-0.0503 1.1572592,1.1572593 0 0 1 -0.09864,-0.0607 1.1572592,1.1572593 0 0 1 -0.092,-0.0699 1.1572592,1.1572593 0 0 1 -0.08473,-0.0787 1.1572592,1.1572593 0 0 1 -0.07619,-0.0869 1.1572592,1.1572593 0 0 1 -0.06734,-0.0942 1.1572592,1.1572593 0 0 1 -0.05785,-0.10021 1.1572592,1.1572593 0 0 1 -0.04711,-0.1056 1.1572592,1.1572593 0 0 1 -0.03636,-0.1097 1.1572592,1.1572593 0 0 1 -0.02529,-0.11318 1.1572592,1.1572593 0 0 1 -0.01391,-0.11476 1.1572592,1.1572593 0 0 1 -0.0032,-0.0819 1.1572592,1.1572593 0 0 1 0.006,-0.11539 1.1572592,1.1572593 0 0 1 0.01739,-0.11444 1.1572592,1.1572593 0 0 1 0.02845,-0.11192 1.1572592,1.1572593 0 0 1 0.03952,-0.10875 1.1572592,1.1572593 0 0 1 0.05058,-0.10433 1.1572592,1.1572593 0 0 1 0.06038,-0.0983 1.1572592,1.1572593 0 0 1 0.06987,-0.0923 1.1572592,1.1572593 0 0 1 0.07904,-0.0844 1.1572592,1.1572593 0 0 1 0.08093,-0.0711 l 0.01328,-0.0107 a 1.1572592,1.1572593 0 0 1 0.08662,-0.062 1.1572592,1.1572593 0 0 1 0.100536,-0.0575 1.1572592,1.1572593 0 0 1 0.105592,-0.0471 1.1572592,1.1572593 0 0 1 0.109703,-0.0367 1.1572592,1.1572593 0 0 1 0.112865,-0.0253 1.1572592,1.1572593 0 0 1 0.114761,-0.0139 1.1572592,1.1572593 0 0 1 0.08188,-0.003 z m 39.345168,0 v 3.2e-4 a 1.1572592,1.1572592 0 0 1 0.11539,0.006 1.1572592,1.1572592 0 0 1 0.11444,0.0174 1.1572592,1.1572592 0 0 1 0.11224,0.0285 1.1572592,1.1572592 0 0 1 0.10843,0.0398 1.1572592,1.1572592 0 0 1 0.10433,0.0503 1.1572592,1.1572592 0 0 1 0.0986,0.0604 1.1572592,1.1572592 0 0 1 0.092,0.0702 1.1572592,1.1572592 0 0 1 0.0847,0.0787 1.1572592,1.1572592 0 0 1 0.0752,0.086 l 0.0752,0.10686 a 1.1572592,1.1572592 0 0 1 0.0506,0.0885 1.1572592,1.1572592 0 0 1 0.0474,0.10559 1.1572592,1.1572592 0 0 1 0.0364,0.1097 1.1572592,1.1572592 0 0 1 0.0253,0.11287 1.1572592,1.1572592 0 0 1 0.0139,0.11476 1.1572592,1.1572592 0 0 1 0.003,0.0819 1.1572592,1.1572592 0 0 1 -0.006,0.11571 1.1572592,1.1572592 0 0 1 -0.0174,0.11413 1.1572592,1.1572592 0 0 1 -0.0285,0.11223 1.1572592,1.1572592 0 0 1 -0.0398,0.10876 1.1572592,1.1572592 0 0 1 -0.0503,0.10401 1.1572592,1.1572592 0 0 1 -0.0604,0.0986 1.1572592,1.1572592 0 0 1 -0.0702,0.092 1.1572592,1.1572592 0 0 1 -0.0787,0.0847 1.1572592,1.1572592 0 0 1 -0.0869,0.0765 1.1572592,1.1572592 0 0 1 -0.0942,0.0673 1.1572592,1.1572592 0 0 1 -0.10022,0.0572 1.1572592,1.1572592 0 0 1 -0.10559,0.0474 1.1572592,1.1572592 0 0 1 -0.1097,0.0363 1.1572592,1.1572592 0 0 1 -0.11287,0.0256 1.1572592,1.1572592 0 0 1 -0.11507,0.0139 1.1572592,1.1572592 0 0 1 -0.0816,0.003 1.1572592,1.1572592 0 0 1 -0.11571,-0.006 1.1572592,1.1572592 0 0 1 -0.11445,-0.0171 1.1572592,1.1572592 0 0 1 -0.11192,-0.0288 1.1572592,1.1572592 0 0 1 -0.10875,-0.0398 1.1572592,1.1572592 0 0 1 -0.10433,-0.0503 1.1572592,1.1572592 0 0 1 -0.0983,-0.0604 1.1572592,1.1572592 0 0 1 -0.0923,-0.0699 1.1572592,1.1572592 0 0 1 -0.0844,-0.079 1.1572592,1.1572592 0 0 1 -0.0765,-0.0869 1.1572592,1.1572592 0 0 1 -0.0673,-0.0939 1.1572592,1.1572592 0 0 1 -0.0575,-0.10053 1.1572592,1.1572592 0 0 1 -0.0471,-0.1056 1.1572592,1.1572592 0 0 1 -0.0367,-0.1097 1.1572592,1.1572592 0 0 1 -0.0253,-0.11286 1.1572592,1.1572592 0 0 1 -0.0139,-0.11477 1.1572592,1.1572592 0 0 1 -0.002,-0.0819 1.1572592,1.1572592 0 0 1 0.006,-0.11571 1.1572592,1.1572592 0 0 1 0.0171,-0.11444 1.1572592,1.1572592 0 0 1 0.0288,-0.11192 1.1572592,1.1572592 0 0 1 0.0395,-0.10875 1.1572592,1.1572592 0 0 1 0.0503,-0.10402 1.1572592,1.1572592 0 0 1 0.0607,-0.0986 1.1572592,1.1572592 0 0 1 0.0699,-0.092 1.1572592,1.1572592 0 0 1 0.0787,-0.0847 1.1572592,1.1572592 0 0 1 0.0869,-0.0765 1.1572592,1.1572592 0 0 1 0.0942,-0.067 1.1572592,1.1572592 0 0 1 0.10022,-0.0579 1.1572592,1.1572592 0 0 1 0.10559,-0.0471 1.1572592,1.1572592 0 0 1 0.10971,-0.0364 1.1572592,1.1572592 0 0 1 0.11318,-0.0256 1.1572592,1.1572592 0 0 1 0.11476,-0.0139 1.1572592,1.1572592 0 0 1 0.0819,-0.003 z m -20.413319,0.11318 a 0.29825524,0.29825524 0 0 0 -0.297812,0.29844 0.29825524,0.29825524 0 0 0 0.297812,0.29813 0.29825524,0.29825524 0 0 0 0.298443,-0.29813 0.29825524,0.29825524 0 0 0 -0.298443,-0.29844 z m 3.877547,0 a 0.29825524,0.29825524 0 0 0 -0.298128,0.29844 0.29825524,0.29825524 0 0 0 0.298128,0.29813 0.29825524,0.29825524 0 0 0 0.298126,-0.29813 0.29825524,0.29825524 0 0 0 -0.298126,-0.29844 z m 3.877229,0 a 0.29825524,0.29825524 0 0 0 -0.298127,0.29844 0.29825524,0.29825524 0 0 0 0.298127,0.29813 0.29825524,0.29825524 0 0 0 0.298443,-0.29813 0.29825524,0.29825524 0 0 0 -0.298443,-0.29844 z"
       id="path8669"
       inkscape:connector-curvature="0" />
    <path
       style="opacity:1;fill:#800000;fill-opacity:1;stroke:none;stroke-width:0.99999994;stroke-miterlimit:4;stroke-dasharray:none;stroke-opacity:1"
       d="M 416.64062 332.53516 L 416.47461 332.53516 A 63.571426 63.571426 0 0 1 418.21484 334.96875 L 418.21484 334.78125 L 416.64062 332.53516 z "
       id="path8446"
       transform="matrix(0.26458333,0,0,0.26458333,0,162.85624)" />
  </g>
</svg>
