<?xml version="1.0" encoding="UTF-8" standalone="no"?>
<!-- Created with Inkscape (http://www.inkscape.org/) -->

<svg
   xmlns:dc="http://purl.org/dc/elements/1.1/"
   xmlns:cc="http://creativecommons.org/ns#"
   xmlns:rdf="http://www.w3.org/1999/02/22-rdf-syntax-ns#"
   xmlns:svg="http://www.w3.org/2000/svg"
   xmlns="http://www.w3.org/2000/svg"
   xmlns:sodipodi="http://sodipodi.sourceforge.net/DTD/sodipodi-0.dtd"
   xmlns:inkscape="http://www.inkscape.org/namespaces/inkscape"
   width="676"
   height="507"
   viewBox="0 0 178.85833 134.14375"
   version="1.1"
   id="svg8535"
   inkscape:version="0.92.1 r15371"
   sodipodi:docname="sport.svg"
   inkscape:export-filename="C:\Users\Алексей\Desktop\ПФДО\диз\default-program-image\robot.png"
   inkscape:export-xdpi="95"
   inkscape:export-ydpi="95">
  <defs
     id="defs8529" />
  <sodipodi:namedview
     id="base"
     pagecolor="#ffffff"
     bordercolor="#666666"
     borderopacity="1.0"
     inkscape:pageopacity="0.0"
     inkscape:pageshadow="2"
     inkscape:zoom="0.70000001"
     inkscape:cx="368.85074"
     inkscape:cy="380.04634"
     inkscape:document-units="mm"
     inkscape:current-layer="layer1"
     showgrid="false"
     units="px"
     gridtolerance="4"
     objecttolerance="5"
     guidetolerance="4"
     inkscape:window-width="1366"
     inkscape:window-height="706"
     inkscape:window-x="-8"
     inkscape:window-y="-8"
     inkscape:window-maximized="1" />
  <metadata
     id="metadata8532">
    <rdf:RDF>
      <cc:Work
         rdf:about="">
        <dc:format>image/svg+xml</dc:format>
        <dc:type
           rdf:resource="http://purl.org/dc/dcmitype/StillImage" />
        <dc:title></dc:title>
      </cc:Work>
    </rdf:RDF>
  </metadata>
  <g
     inkscape:label="Layer 1"
     inkscape:groupmode="layer"
     id="layer1"
     transform="translate(0,-162.85624)">
    <rect
       style="opacity:1;fill:#ffcc00;fill-opacity:1;stroke:none;stroke-width:0.63653022;stroke-miterlimit:4;stroke-dasharray:none;stroke-opacity:1"
       id="rect13012"
       width="178.85834"
       height="134.14375"
       x="-1.2011719e-006"
       y="162.85623" />
    <path
       style="fill:#ffffff;stroke-width:0.0487033"
       d="m 104.7477,254.65651 c -0.19923,-0.21814 -0.41014,-0.62591 -0.62,-1.19871 -0.24111,-0.65811 -0.30917,-0.92459 -0.30985,-1.21314 -7.9e-4,-0.31306 -0.0901,-0.61747 -0.41349,-1.40906 -0.14227,-0.34823 -0.25765,-0.66602 -0.25639,-0.7062 0.007,-0.23832 -1.19988,-2.38784 -2.20219,-3.92062 -0.77281,-1.18181 -0.90624,-1.41108 -1.142702,-1.96354 -0.19552,-0.45679 -0.28825,-0.78578 -0.39645,-1.40655 -0.14146,-0.81154 -0.56513,-2.47076 -0.68366,-2.6774 -0.2624,-0.45747 -1.86894,-1.29779 -3.84275,-2.00998 -0.99443,-0.35882 -1.95505,-0.88085 -2.92877,-1.5916 -0.42963,-0.31361 -0.57897,-0.39895 -0.62754,-0.35865 -0.0351,0.0291 -0.12237,0.1997 -0.19406,0.37914 -0.23869,0.59747 -1.03208,1.91869 -1.43055,2.38226 -0.29773,0.34637 -0.42737,0.51888 -0.50753,0.67534 -0.0423,0.0825 -0.20923,0.29609 -0.37098,0.47458 -0.3932,0.43388 -1.00165,1.20121 -1.13435,1.43056 -0.15767,0.27249 -0.4422,0.65307 -0.78576,1.05097 -0.16704,0.19347 -0.40832,0.50001 -0.53617,0.68121 -0.26434,0.37463 -0.58976,0.59441 -0.95286,0.64352 -0.12349,0.0167 -0.44648,-0.004 -0.72227,-0.0452 -0.27439,-0.0415 -0.66889,-0.0759 -0.87666,-0.0765 -0.20778,-8e-4 -0.50927,-0.031 -0.66999,-0.0677 -0.160725,-0.0367 -0.447417,-0.1015 -0.637097,-0.14403 -0.236982,-0.0531 -0.815959,-0.0928 -1.850726,-0.12687 -1.479902,-0.0487 -2.096357,-0.1044 -3.064356,-0.27701 -0.390454,-0.0696 -0.752623,-0.0867 -1.826377,-0.0859 -0.795694,7.9e-4 -1.457952,0.0235 -1.631558,0.0565 -0.160721,0.0306 -0.664797,0.12119 -1.120177,0.20139 -0.455374,0.0802 -0.91562,0.17697 -1.022768,0.21504 -0.107146,0.0381 -0.28248,0.0845 -0.389625,0.10328 -0.422162,0.0738 -0.448892,0.1109 -0.219165,0.3042 0.158244,0.13316 0.189346,0.28006 0.07307,0.34513 -0.04017,0.0225 -0.248206,0.0205 -0.462293,-0.004 -0.382334,-0.0445 -0.394957,-0.0425 -0.710655,0.11289 -0.32081,0.15794 -0.70138,0.39863 -1.064796,0.67343 -0.105706,0.0799 -0.303209,0.30641 -0.438895,0.50329 -0.229584,0.33312 -0.416033,0.47865 -0.416033,0.32474 0,-0.0362 0.07335,-0.21888 0.163004,-0.40595 0.161554,-0.33711 0.306769,-0.49351 0.709989,-0.76466 0.27605,-0.18564 0.266463,-0.30665 -0.02748,-0.34695 -0.325688,-0.0446 -0.748267,-0.0381 -0.93141,0.0145 -0.08707,0.025 -0.587293,0.3318 -1.111604,0.68185 -0.725736,0.48452 -0.990138,0.63626 -1.107652,0.63569 -0.224593,-0.001 -0.28379,-0.0586 -0.311255,-0.30223 -0.02881,-0.25558 0.153711,-0.75506 0.636106,-1.7408 0.33531,-0.68518 0.607233,-1.01108 1.370077,-1.64204 0.241872,-0.20005 0.546744,-0.45348 0.677493,-0.56316 0.13075,-0.10969 0.358378,-0.3875 0.505839,-0.61738 0.319692,-0.49836 1.107571,-1.44805 1.380948,-1.66457 l 0.194858,-0.15433 0.25341,0.12821 c 0.139375,0.0705 0.272571,0.12822 0.29599,0.12822 0.06062,0 0.697169,0.52705 0.725397,0.60062 0.01291,0.0337 0.168857,0.13498 0.34653,0.22516 0.200491,0.10177 0.346223,0.21181 0.384138,0.29006 0.05344,0.1103 0.09143,0.12622 0.303292,0.12713 0.133212,7.9e-4 0.321773,0.0288 0.419034,0.0627 0.201319,0.0702 0.360894,0.0509 1.523203,-0.18457 0.399286,-0.0809 0.783699,-0.14708 0.85425,-0.14708 0.07056,0 0.258905,-0.0361 0.418558,-0.0802 0.284551,-0.0787 0.557527,-0.12613 1.191286,-0.20719 0.176046,-0.0225 0.630052,-0.15844 1.022768,-0.30619 1.141746,-0.42958 1.295172,-0.4488 2.262349,-0.28345 0.662752,0.1133 1.12732,0.2279 1.877827,0.46321 0.298804,0.0937 0.602991,0.17034 0.675963,0.17034 0.222193,0 0.859813,-0.54375 1.025743,-0.87473 0.10214,-0.20374 0.35431,-0.96929 0.82934,-2.51774 0.36847,-1.20107 0.56476,-1.72736 0.87233,-2.33883 0.24906,-0.49516 0.41887,-0.88271 0.46156,-1.05345 0.045,-0.17982 -0.0394,-0.63063 -0.22517,-1.20259 -0.14997,-0.46187 -0.1683,-0.68398 -0.14166,-1.7168 0.002,-0.0737 10e-4,-0.23803 -8e-4,-0.36527 -0.007,-0.39216 0.069,-0.79627 0.20801,-1.10235 0.0501,-0.11026 0.0915,-0.29138 0.0921,-0.4025 7.9e-4,-0.12865 0.0542,-0.30295 0.14719,-0.47981 0.12667,-0.24082 0.1461,-0.32908 0.1461,-0.66366 0,-0.3414 0.019,-0.42366 0.16469,-0.71342 0.18369,-0.36531 0.26847,-0.72711 0.26672,-1.13811 -10e-4,-0.20242 0.0384,-0.36498 0.14898,-0.61695 0.18197,-0.4146 0.18514,-0.49876 0.0276,-0.73018 -0.18797,-0.27603 -0.49079,-1.09907 -0.6038,-1.64115 -0.12878,-0.61759 -0.24045,-1.57333 -0.27883,-2.38646 -0.0265,-0.56051 -0.0488,-0.68266 -0.19438,-1.06474 -0.0905,-0.23738 -0.17836,-0.54969 -0.19532,-0.69402 -0.0243,-0.20657 -0.0491,-0.26243 -0.11674,-0.26243 -0.0472,0 -0.33461,0.096 -0.63861,0.21341 -1.20219,0.46416 -1.83406,0.60258 -2.939193,0.64386 -0.827206,0.0309 -0.880861,0.0408 -0.971163,0.17858 -0.06296,0.0961 -0.256228,0.8967 -0.696397,2.88476 -0.117536,0.53087 -0.129352,0.6782 -0.128902,1.60721 7.93e-4,0.96521 0.109262,2.27452 0.202403,2.43581 0.01955,0.0339 0.252296,0.2663 0.5172,0.51651 0.433369,0.40934 0.502184,0.49898 0.686535,0.89426 0.161103,0.34542 0.289542,0.53011 0.600975,0.86416 0.405868,0.43534 0.437679,0.51586 0.260268,0.6588 -0.257024,0.20709 -0.932609,-0.19777 -1.259671,-0.7549 -0.06683,-0.11384 -0.150153,-0.20699 -0.185163,-0.20699 -0.07564,0 -0.380931,0.60454 -0.479608,0.94972 -0.03828,0.13393 -0.09482,0.46268 -0.125634,0.73055 -0.131723,1.14518 -0.206862,1.52293 -0.357093,1.79527 -0.119067,0.21585 -0.238619,0.27197 -0.361717,0.16981 -0.06512,-0.054 -0.07238,-0.13905 -0.0461,-0.54004 0.01714,-0.26175 0.0575,-0.57427 0.08965,-0.69449 0.04619,-0.17271 0.04571,-0.23136 -0.0021,-0.27936 -0.08618,-0.0862 -0.152414,0.0327 -0.153361,0.27537 -2.64e-4,0.10495 -0.02167,0.32411 -0.04719,0.48703 -0.02553,0.16291 -0.05928,0.3971 -0.07497,0.52042 -0.03287,0.25836 -0.170953,0.43328 -0.342038,0.43328 -0.138099,0 -0.293523,-0.2018 -0.247597,-0.32148 0.01659,-0.0433 0.04234,-0.32148 0.05718,-0.6182 0.01484,-0.29671 0.04748,-0.57781 0.07256,-0.62465 0.05946,-0.11111 0.05918,-0.75927 -2.64e-4,-0.79606 -0.06964,-0.043 -0.365776,0.27692 -0.478097,0.51657 -0.05472,0.11674 -0.190021,0.40856 -0.30067,0.64847 -0.236683,0.51318 -0.314772,0.61091 -0.488106,0.61091 -0.156286,0 -0.24571,-0.0809 -0.24571,-0.2223 0,-0.13017 0.342447,-1.05006 0.530458,-1.42494 0.191764,-0.38237 0.223173,-0.4957 0.137376,-0.4957 -0.0723,0 -0.397917,0.43632 -0.545195,0.73055 -0.120938,0.2416 -0.268816,0.38962 -0.389252,0.38962 -0.124632,0 -0.220416,-0.0867 -0.220416,-0.19942 0,-0.20602 0.215648,-0.74544 0.428918,-1.07287 0.29913,-0.45925 0.291579,-0.4361 0.3751,-1.15008 0.05944,-0.50814 0.103217,-0.68121 0.272217,-1.07623 0.184242,-0.43064 0.199035,-0.49615 0.17373,-0.76945 -0.01524,-0.1643 -0.0051,-0.38048 0.02249,-0.4804 0.0373,-0.13509 0.03108,-0.29574 -0.02424,-0.62663 -0.253323,-1.51497 -0.339355,-4.15963 -0.162608,-4.99872 0.04796,-0.22769 0.105379,-0.76962 0.127598,-1.20429 0.03068,-0.60031 0.0597,-0.81975 0.120666,-0.91281 0.105804,-0.16148 1.17162,-0.87312 1.608934,-1.07428 0.189563,-0.0872 1.330897,-0.64927 2.536304,-1.24905 1.836833,-0.91396 2.271943,-1.15055 2.687623,-1.46141 0.61208,-0.45773 0.91868,-0.56398 1.8789,-0.6511 0.32573,-0.0296 0.33186,-0.0328 0.55813,-0.29488 0.29423,-0.34081 0.80136,-0.72682 1.34545,-1.02411 0.23699,-0.1295 0.47404,-0.29605 0.52678,-0.37011 0.15449,-0.21696 0.47576,-1.05312 0.52779,-1.37369 0.0644,-0.39699 0.0613,-1.3745 -0.006,-1.96957 -0.0681,-0.59881 0.0218,-1.22541 0.2558,-1.78284 0.12324,-0.29359 0.1416,-0.37888 0.0939,-0.43632 -0.0492,-0.0593 -0.0277,-0.0862 0.12745,-0.1591 0.11803,-0.0555 0.1922,-0.12626 0.20166,-0.19253 0.009,-0.0619 0.0612,-0.11641 0.12776,-0.13313 0.0631,-0.0158 0.1387,-0.0908 0.17159,-0.17023 0.0323,-0.078 0.10897,-0.18905 0.17029,-0.24666 0.11042,-0.10373 0.11175,-0.1038 0.13713,-0.007 0.0256,0.0978 0.0263,0.0978 0.31074,-0.006 0.35189,-0.12805 1.01171,-0.1431 1.94102,-0.0443 0.60863,0.0647 0.64445,0.0749 0.92536,0.26208 0.16072,0.10711 0.3391,0.24946 0.39641,0.31633 0.10685,0.1247 0.21238,0.11405 0.21238,-0.0215 0,-0.1273 0.13024,0.0147 0.1628,0.17755 0.0175,0.0872 0.16153,0.27738 0.37278,0.49201 0.32332,0.3285 0.34967,0.34502 0.43177,0.27072 0.1324,-0.11981 0.15284,-0.0994 0.15269,0.15221 -1e-4,0.1438 0.0398,0.30682 0.10551,0.4308 0.13634,0.25742 0.0977,0.38087 -0.10533,0.33629 -0.16056,-0.0353 -0.1724,-0.0183 -0.092,0.13189 0.0491,0.0917 0.12157,0.52214 0.16233,0.96392 0.009,0.0938 0.0319,0.24145 0.0517,0.32822 0.0327,0.14319 0.0155,0.178 -0.18638,0.377 l -0.22239,0.21923 0.14983,0.45096 c 0.0824,0.24803 0.1926,0.53524 0.24487,0.63823 0.14033,0.27649 0.0893,0.40724 -0.18601,0.47655 -0.24472,0.0616 -0.30149,0.13815 -0.22577,0.30433 0.0616,0.13527 -0.0434,0.29255 -0.24588,0.36815 -0.13026,0.0486 -0.1344,0.0603 -0.10359,0.29265 0.032,0.24153 0.0318,0.24214 -0.14588,0.32686 -0.24043,0.11465 -0.28568,0.28925 -0.10842,0.41838 0.33095,0.24108 0.84791,1.07244 1.17873,1.8956 0.12078,0.30052 0.26483,0.6196 0.32012,0.70906 0.0553,0.0895 0.31279,0.33455 0.57222,0.54464 0.54557,0.44182 0.63164,0.5456 1.00576,1.21275 0.15208,0.27121 0.30489,0.51665 0.33957,0.54543 0.0495,0.0411 0.0913,-0.0326 0.19422,-0.34157 0.0798,-0.23954 0.11941,-0.44077 0.10115,-0.51352 -0.0165,-0.0658 -0.15562,-0.25884 -0.30913,-0.42896 -0.19563,-0.21681 -0.37727,-0.50446 -0.60738,-0.96182 -0.21437,-0.42607 -0.4217,-0.75955 -0.59749,-0.961 -0.31408,-0.35994 -0.41356,-0.53468 -0.41356,-0.72646 0,-0.16949 0.0788,-0.25568 0.23371,-0.25568 0.22757,0 0.44687,0.1559 0.7099,0.50466 0.42602,0.56486 0.53636,0.62214 0.71671,0.37201 0.13524,-0.18758 0.1359,-0.96819 0.002,-1.93963 -0.10122,-0.73241 -0.10378,-0.8044 -0.0325,-0.91318 0.0904,-0.13795 0.20198,-0.15062 0.32733,-0.0372 0.0492,0.0445 0.13856,0.10519 0.19865,0.13488 0.0682,0.0337 0.15365,0.16804 0.22739,0.35743 0.12326,0.31657 0.19842,0.3867 0.19842,0.18516 0,-0.25047 0.280982,-0.36169 0.408672,-0.16176 0.10464,0.16384 0.40228,1.14435 0.44009,1.4498 0.0706,0.56998 0.10894,0.64335 0.2149,0.4108 0.0311,-0.0682 0.0565,-0.29396 0.0565,-0.50163 0,-0.22875 0.023,-0.40064 0.0584,-0.43605 0.0932,-0.0932 0.22522,-0.0681 0.30822,0.0586 0.10182,0.1554 0.16723,0.85678 0.11399,1.2223 -0.0234,0.16072 -0.0624,0.58809 -0.0866,0.94972 -0.0242,0.36162 -0.079,0.80678 -0.12163,0.98926 -0.0427,0.18248 -0.0776,0.40208 -0.0776,0.48801 0,0.0859 -0.0453,0.3197 -0.10065,0.51947 -0.0554,0.19977 -0.13212,0.72099 -0.17056,1.15826 -0.0863,0.98118 -0.17594,1.43208 -0.38468,1.93449 -0.089,0.21429 -0.27606,0.66358 -0.41559,0.99842 -0.258442,0.62015 -0.434282,0.87152 -0.681152,0.97378 -0.10685,0.0443 -0.24695,0.0313 -0.72044,-0.0666 -0.32329,-0.0669 -0.65043,-0.15395 -0.72698,-0.19354 -0.19627,-0.10149 -0.53497,-0.47679 -0.84183,-0.93279 -0.14422,-0.21429 -0.48699,-0.66774 -0.76172,-1.00766 -0.27474,-0.33991 -0.53421,-0.6851 -0.5766,-0.76708 -0.1517,-0.29335 -0.28216,-0.16742 -0.36522,0.35255 -0.0282,0.17648 -0.0962,0.45909 -0.15105,0.62802 -0.0757,0.23288 -0.10977,0.51909 -0.14106,1.1838 -0.0404,0.8585 -0.046,0.89129 -0.26818,1.58286 -0.14008,0.43601 -0.3069,0.84096 -0.43604,1.05844 -0.11802,0.19878 -0.23549,0.47635 -0.26959,0.63707 -0.0558,0.26316 -0.0521,0.30428 0.0496,0.54075 0.10296,0.23931 0.10641,0.28018 0.0533,0.62922 -0.0757,0.49748 -0.0713,0.67671 0.0233,0.95455 0.0736,0.21595 0.0735,0.25476 -2.7e-4,0.52043 -0.0573,0.20623 -0.0712,0.38017 -0.0491,0.61763 0.0287,0.30852 0.0206,0.34852 -0.12142,0.60013 -0.0837,0.14826 -0.17659,0.39132 -0.20647,0.54014 -0.0503,0.2503 -0.0461,0.28167 0.0552,0.41876 0.1265,0.1711 0.10328,0.28263 -0.0728,0.34957 -0.0677,0.0257 -0.12301,0.0582 -0.12301,0.0721 0,0.0139 0.27943,0.2081 0.62097,0.43144 0.34153,0.22335 0.71366,0.48095 0.82695,0.57246 0.1133,0.0915 0.37391,0.29787 0.57913,0.45859 0.91625,0.71757 1.75551,1.50486 2.60191,2.44078 0.3177,0.35132 0.88988,0.91019 1.2715,1.24194 0.38162,0.33175 0.837432,0.73285 1.012912,0.89135 0.17549,0.1585 0.53164,0.42667 0.79145,0.59593 0.6326,0.41214 0.78511,0.55406 0.92055,0.85668 0.10448,0.23343 0.1148,0.32488 0.11688,1.0353 0.001,0.42859 0.0179,0.80413 0.0371,0.83454 0.0192,0.0304 0.0883,0.38676 0.15376,0.7919 0.10657,0.65986 0.1478,0.80128 0.39575,1.35711 0.41388,0.92782 0.6715,1.76551 0.91741,2.98313 0.28856,1.42874 0.46143,1.93072 1.14876,3.33565 0.24508,0.50097 0.46379,0.87492 0.61242,1.04712 0.12716,0.14733 0.3473,0.42484 0.48921,0.61669 0.23593,0.31898 0.67244,0.69535 0.73449,0.6333 0.0142,-0.0142 -0.0213,-0.15115 -0.0786,-0.3045 -0.0697,-0.18622 -0.0881,-0.29502 -0.0555,-0.32761 0.0726,-0.0726 0.1781,0.0351 0.3689,0.37626 0.0915,0.16358 0.21244,0.34691 0.26881,0.40741 l 0.10247,0.10999 0.30257,-0.16921 c 0.23188,-0.12967 0.41048,-0.18522 0.76437,-0.23778 0.68751,-0.10211 0.66338,-0.0418 -0.087,0.21722 -0.24826,0.0857 -0.47559,0.185 -0.50517,0.22064 -0.0826,0.0995 0.0285,0.19813 0.26535,0.23556 0.1123,0.0178 0.36855,0.0831 0.56946,0.14513 0.59537,0.18395 1.4626,0.27638 2.79732,0.29813 1.31594,0.0215 1.40643,0.0394 1.46983,0.29202 0.15199,0.60559 -0.90178,1.43282 -2.50891,1.96953 -0.714,0.23844 -1.4389,0.37023 -2.3608,0.4292 -0.80121,0.0512 -0.61099,-0.0126 -1.7925,0.60167 -0.42368,0.22028 -0.81922,0.34487 -1.29156,0.40681 -0.24211,0.0318 -0.25934,0.0263 -0.3994,-0.12707 z M 79.951913,229.58879 c 2.64e-4,-0.0335 -0.03212,-0.0609 -0.07231,-0.0609 -0.0735,0 -0.101706,0.14992 -0.03985,0.21178 0.03803,0.038 0.111051,-0.0602 0.112163,-0.1509 z"
       id="path9345"
       inkscape:connector-curvature="0" />
  </g>
</svg>
