<?xml version="1.0" encoding="UTF-8" standalone="no"?>
<!-- Created with Inkscape (http://www.inkscape.org/) -->

<svg
   xmlns:dc="http://purl.org/dc/elements/1.1/"
   xmlns:cc="http://creativecommons.org/ns#"
   xmlns:rdf="http://www.w3.org/1999/02/22-rdf-syntax-ns#"
   xmlns:svg="http://www.w3.org/2000/svg"
   xmlns="http://www.w3.org/2000/svg"
   xmlns:sodipodi="http://sodipodi.sourceforge.net/DTD/sodipodi-0.dtd"
   xmlns:inkscape="http://www.inkscape.org/namespaces/inkscape"
   width="676"
   height="507"
   viewBox="0 0 178.85833 134.14375"
   version="1.1"
   id="svg8535"
   inkscape:version="0.92.1 r15371"
   sodipodi:docname="tech.svg"
   inkscape:export-filename="C:\Users\Алексей\Desktop\ПФДО\диз\default-program-image\robot.png"
   inkscape:export-xdpi="95"
   inkscape:export-ydpi="95">
  <defs
     id="defs8529" />
  <sodipodi:namedview
     id="base"
     pagecolor="#ffffff"
     bordercolor="#666666"
     borderopacity="1.0"
     inkscape:pageopacity="0.0"
     inkscape:pageshadow="2"
     inkscape:zoom="0.70000001"
     inkscape:cx="376.67876"
     inkscape:cy="279.66153"
     inkscape:document-units="mm"
     inkscape:current-layer="layer1"
     showgrid="false"
     units="px"
     gridtolerance="4"
     objecttolerance="5"
     guidetolerance="4"
     inkscape:window-width="1366"
     inkscape:window-height="706"
     inkscape:window-x="-8"
     inkscape:window-y="-8"
     inkscape:window-maximized="1" />
  <metadata
     id="metadata8532">
    <rdf:RDF>
      <cc:Work
         rdf:about="">
        <dc:format>image/svg+xml</dc:format>
        <dc:type
           rdf:resource="http://purl.org/dc/dcmitype/StillImage" />
        <dc:title></dc:title>
      </cc:Work>
    </rdf:RDF>
  </metadata>
  <g
     inkscape:label="Layer 1"
     inkscape:groupmode="layer"
     id="layer1"
     transform="translate(0,-162.85624)">
    <rect
       style="opacity:1;fill:#d45500;fill-opacity:1;stroke:none;stroke-width:0.63653022;stroke-miterlimit:4;stroke-dasharray:none;stroke-opacity:1"
       id="rect13012"
       width="178.85834"
       height="134.14375"
       x="-1.2011719e-006"
       y="162.85623" />
    <path
       style="opacity:1;fill:#f9f9f9;fill-opacity:1;stroke:none;stroke-width:0.26458213;stroke-miterlimit:4;stroke-dasharray:none;stroke-opacity:1"
       d="m 97.372182,205.0575 -7.242418,2.71559 -7.242936,2.71558 -0.46922,0.03 c -0.257978,0.0166 -2.633966,0.12007 -5.280274,0.22997 -5.937443,0.2468 -8.948136,0.37473 -9.332207,0.39583 -0.251048,0.0138 -0.322787,0.0383 -0.496607,0.1695 -0.447517,0.3377 -4.668533,3.39459 -4.864279,3.52277 l -0.123507,0.0806 -0.0021,1.1529 -0.0021,1.1529 -0.657319,0.49454 c -0.361478,0.27205 -0.801118,0.60816 -0.977198,0.74672 l -0.320393,0.25166 -0.07906,3.24992 -0.07906,3.24991 0.09147,0.0641 c 0.0505,0.0354 0.519523,0.41061 1.041792,0.83405 l 0.949292,0.76998 -0.02532,0.185 c -0.014,0.10181 -0.03943,0.44802 -0.05633,0.76894 l -0.03049,0.58343 0.759123,0.69556 c 0.417648,0.38255 0.76946,0.70655 0.781861,0.71985 0.03698,0.0397 1.460848,1.33677 1.997286,1.81952 0.274197,0.24675 0.889956,0.80842 1.368384,1.24798 l 0.869711,0.79891 0.681609,0.005 c 0.374828,0.003 0.706521,0.002 0.737419,-0.002 0.09222,-0.012 0.06764,0.0379 -0.16898,0.339 -1.116265,1.42042 -1.727738,2.91434 -1.823135,4.45552 -0.101674,1.642 0.601151,3.48015 1.838639,4.80847 0.292284,0.31373 0.303423,0.33426 0.228924,0.40876 -0.182768,0.18277 -0.26128,0.4653 -0.255279,0.91209 0.0056,0.39375 0.105132,2.96691 0.173632,4.48962 l 0.02894,0.64492 0.185517,-0.0253 c 0.10201,-0.0139 0.423721,-0.0387 0.7152,-0.0553 l 0.530197,-0.03 0.594278,0.5798 c 1.160425,1.1327 2.792505,2.59608 3.786831,3.39513 0.767577,0.61684 1.120604,0.86523 1.531682,1.07796 l -5.16e-4,10e-4 c 0.736367,0.22506 2.580925,-0.005 4.921125,-0.27337 0.457537,-0.049 1.499453,-0.16055 2.31561,-0.24804 0.816146,-0.0875 2.040624,-0.21856 2.720751,-0.29146 0.680127,-0.0729 1.914458,-0.20524 2.742973,-0.29404 0.828515,-0.0888 1.860582,-0.20162 2.29339,-0.25063 0.432809,-0.049 1.16095,-0.12832 1.6185,-0.17621 0.457536,-0.0479 1.105302,-0.11741 1.439181,-0.15451 0.333879,-0.0371 1.082765,-0.11825 1.663973,-0.18035 0.581197,-0.0621 1.704017,-0.18335 2.495443,-0.26975 0.791419,-0.0864 2.278833,-0.24835 3.305213,-0.35967 5.90406,-0.64038 5.54609,-0.59547 5.63219,-0.70176 0.0435,-0.0538 0.11108,-0.20849 0.15038,-0.34365 0.0807,-0.2778 0.0593,-0.47426 -0.0816,-0.75344 -0.17028,-0.33699 -1.38429,-2.20623 -3.31555,-5.10561 -2.06896,-3.1061 -2.40066,-3.55345 -2.77501,-3.73774 -0.20881,-0.1031 -0.2525,-0.10716 -1.0945,-0.0982 -0.48227,0.005 -1.473888,0.0408 -2.203476,0.0796 -0.729596,0.0388 -1.731055,0.0906 -2.225694,0.11524 -0.890515,0.0444 -4.786309,0.2513 -7.172139,0.38085 -5.139408,0.27908 -6.853448,0.37312 -11.893796,0.65319 -0.890356,0.0495 -2.357535,0.13065 -3.26025,0.18035 -0.902717,0.0497 -1.942691,0.10938 -2.310961,0.13229 l -0.669723,0.0419 -0.184483,-0.12764 c -0.678957,-0.46795 -1.174422,-1.25378 -1.423679,-2.25774 -0.120401,-0.48521 -0.168351,-1.61719 -0.09095,-2.15645 0.201278,-1.40192 0.977959,-3.17504 1.994184,-4.55267 0.209848,-0.28405 0.237045,-0.30571 0.360184,-0.28112 0.07325,0.0146 0.385374,0.0264 0.693494,0.0264 0.337297,0 0.554183,0.0175 0.545184,0.0434 -0.0083,0.0237 -0.456176,0.64181 -0.995284,1.37355 -0.539117,0.73174 -0.989786,1.35546 -1.001485,1.38596 -0.01365,0.0356 0.136003,0.11738 0.418061,0.22892 1.556023,0.61525 2.98823,0.92607 5.11646,1.11104 0.787227,0.0679 3.474477,0.0674 4.316512,-0.002 0.346254,-0.0284 0.761145,-0.0624 0.921905,-0.0754 1.408344,-0.11386 4.084421,-0.49992 4.198691,-0.60565 0.02193,-0.0203 -0.05294,-0.19089 -0.168981,-0.38395 -0.114852,-0.19104 -0.203887,-0.35264 -0.196886,-0.35864 0.0066,-0.006 0.9729,0.23975 2.147661,0.54674 1.174766,0.30699 3.036623,0.79326 4.137197,1.08055 1.100566,0.28728 2.597845,0.679 3.327433,0.87023 l 1.326527,0.34778 2.090818,-0.19999 2.091336,-0.19947 0.58446,-0.21756 c 1.10983,-0.41345 1.94872,-0.58213 3.05768,-0.61443 0.85323,-0.0249 1.48134,0.0367 1.98127,0.1943 0.19569,0.0617 0.27859,0.0659 0.47697,0.0248 0.13198,-0.0274 0.77776,-0.16092 1.43505,-0.29662 0.65729,-0.1357 1.247,-0.25954 1.3105,-0.27544 0.10958,-0.0275 0.12267,-0.0105 0.25425,0.33073 0.17663,0.45805 0.26603,0.97434 0.32143,1.85104 0.0604,0.95577 0.12231,1.41783 0.27078,2.02364 0.12751,0.52027 0.40136,1.3542 0.51986,1.58336 0.0616,0.11914 0.0557,0.13377 -0.18293,0.42788 -0.28314,0.34896 -0.58248,0.91066 -0.67748,1.27123 -0.12484,0.47403 -0.0729,1.0647 0.13643,1.55132 0.17353,0.40343 0.85506,1.24721 1.46554,1.81435 1.87681,1.7436 4.07291,2.28953 5.81874,1.44642 0.64756,-0.31273 1.08168,-0.8847 1.19733,-1.57767 0.0666,-0.39898 0.0173,-1.10818 -0.11213,-1.61695 -0.30344,-1.19242 -1.09468,-2.63775 -1.87327,-3.42097 -0.41885,-0.42133 -0.97326,-0.71546 -1.56889,-0.83198 -0.45653,-0.0894 -1.38024,-0.0653 -1.87016,0.0486 -0.63426,0.1475 -0.59501,0.15229 -0.69918,-0.0832 -0.23346,-0.52778 -0.37526,-1.43834 -0.44906,-2.88353 -0.0721,-1.4135 -0.18643,-1.86989 -0.70021,-2.78689 -0.39792,-0.71018 -0.83328,-1.33463 -1.46761,-2.10633 -0.21505,-0.26158 -0.21547,-0.2628 -0.19327,-0.54001 0.0123,-0.1527 0.0331,-1.08708 0.0465,-2.07635 0.0235,-1.73433 0.0547,-3.58646 0.24701,-14.63677 0.0488,-2.80707 0.10958,-6.3275 0.13488,-7.82378 0.0253,-1.49628 0.054,-3.02933 0.063,-3.40649 l 0.0165,-0.68574 h -0.23048 c -0.12681,-9e-5 -0.70604,-0.0199 -1.28725,-0.0439 -1.76875,-0.0732 -4.30441,-0.17513 -7.89147,-0.31729 z m 0.797366,0.66404 0.681093,0.0305 c 0.3746,0.017 1.247439,0.0593 1.939919,0.0941 0.6925,0.0348 2.77684,0.13609 4.63174,0.22479 1.85488,0.0888 3.45848,0.17169 3.56359,0.18449 l 0.1912,0.0232 -5.1e-4,0.2558 c -2e-4,0.14069 -0.0302,1.51036 -0.0667,3.04373 -0.0365,1.53337 -0.0874,3.69863 -0.11266,4.81157 -0.0448,1.96935 -0.13362,5.81075 -0.22582,9.78024 -0.0956,4.11763 -0.13258,5.75062 -0.20568,9.03816 -0.0415,1.86726 -0.088,3.40829 -0.10335,3.42458 -0.0153,0.0163 -0.3007,0.0628 -0.63458,0.10336 -0.33388,0.0404 -0.65967,0.0838 -0.72347,0.0961 -0.10103,0.0195 -0.13795,-0.0115 -0.28732,-0.23823 -0.24255,-0.36824 -0.79651,-0.90076 -1.19268,-1.14669 -1.01354,-0.62915 -2.20639,-0.6485 -3.4959,-0.0563 -0.88812,0.40783 -1.67047,1.15121 -2.10425,1.99935 -0.06957,0.13603 -0.130912,0.25296 -0.135913,0.26096 -0.0052,0.008 -0.553124,0.0827 -1.21749,0.16744 -0.664379,0.0847 -1.25336,0.15449 -1.30896,0.15502 -0.121998,10e-4 -0.121009,0.0456 -0.05581,-2.22466 0.02416,-0.84088 0.07401,-2.62185 0.111106,-3.95736 0.03708,-1.33552 0.08829,-3.13619 0.113686,-4.00181 0.02543,-0.86562 0.106217,-3.75954 0.179318,-6.43058 0.07312,-2.67104 0.144129,-5.22061 0.158128,-5.66578 0.02941,-0.93614 0.134002,-4.77196 0.200505,-7.35197 0.02519,-0.97691 0.05828,-1.9662 0.07338,-2.19831 z m -1.083652,0.3266 c 0.0414,0 0.04674,0.29049 0.02325,1.24798 -0.01691,0.68631 -0.06,2.44185 -0.0956,3.90103 -0.0356,1.45918 -0.07624,3.02699 -0.09043,3.48453 -0.01416,0.45754 -0.08577,3.26019 -0.159162,6.22801 -0.07344,2.96783 -0.183014,7.38911 -0.243913,9.8252 -0.06088,2.43609 -0.124589,5.02144 -0.141593,5.74484 -0.03045,1.29833 -0.03237,1.31551 -0.125571,1.31051 -0.09858,-0.005 -0.279801,-0.0501 -1.870162,-0.45992 -0.531739,-0.13702 -2.019156,-0.51573 -3.30521,-0.8418 -1.286065,-0.32608 -3.266304,-0.82801 -4.400229,-1.11569 l -2.061365,-0.52348 -0.210837,-0.38189 c -0.115919,-0.21022 -0.296912,-0.54217 -0.402041,-0.73742 l -0.191203,-0.35501 3.0706,0.0294 c 1.688852,0.0162 3.630049,0.0419 4.313412,0.0574 l 1.242297,0.0284 0.02946,-0.57929 c 0.02521,-0.49904 0.148124,-4.07053 0.228925,-6.65021 0.01389,-0.44517 0.04461,-1.26461 0.06821,-1.82107 0.0236,-0.55647 0.064,-1.62899 0.0894,-2.38331 0.05142,-1.5253 0.173164,-5.02069 0.317293,-9.0976 0.0523,-1.47957 0.08758,-2.69514 0.07958,-2.70214 -0.01273,-0.01 -4.502987,0.0657 -6.971637,0.1173 -0.363628,0.008 -0.646816,2.7e-4 -0.629414,-0.016 0.03002,-0.0281 2.242066,-0.86748 6.259537,-2.37555 1.001637,-0.37599 2.563772,-0.96508 3.471606,-1.30896 0.907827,-0.34388 1.675099,-0.62528 1.704798,-0.62528 z m 11.295384,2.54092 -2.62618,0.0114 c -5.71223,0.0248 -6.734534,0.0347 -6.764935,0.0651 -0.01741,0.0174 -0.04973,1.31239 -0.07183,2.87784 -0.02212,1.56547 -0.06875,4.82892 -0.103351,7.25224 -0.0347,2.42332 -0.05554,4.41744 -0.04754,4.43124 0.0085,0.0138 1.084231,-0.0694 2.390536,-0.185 1.30632,-0.11558 3.36665,-0.29489 4.57851,-0.39843 1.21187,-0.10355 2.24573,-0.1965 2.29753,-0.2067 0.0931,-0.0184 0.0949,-0.0384 0.12505,-1.89704 0.0168,-1.03305 0.0491,-2.8493 0.0724,-4.03642 0.0232,-1.18713 0.0532,-2.76583 0.0661,-3.50779 0.013,-0.74195 0.0373,-2.03697 0.0537,-2.87784 z m -8.46146,0.74155 h 3.82456 3.82455 l -0.031,0.75344 c -0.0466,1.14065 -0.10913,2.31418 -0.12403,2.32698 -0.007,0.006 -0.934,0.0453 -2.05929,0.0868 -1.12531,0.0415 -2.77453,0.10455 -3.66488,0.14005 -2.202121,0.0879 -2.00125,0.0959 -2.00142,-0.0806 -2.09e-4,-0.18048 0.171188,-2.66587 0.206189,-2.9905 z m 7.34577,0.51728 -0.3824,0.0129 c -0.21022,0.007 -1.72772,0.0627 -3.37239,0.1235 -1.64466,0.0608 -3.04601,0.1105 -3.11401,0.11059 l -0.1235,5.2e-4 v 1.03404 c 0,0.88085 0.01,1.03455 0.0661,1.03456 0.0364,0 0.61831,-0.0305 1.29294,-0.0672 0.67461,-0.0367 2.19766,-0.11905 3.38479,-0.18345 1.18713,-0.0644 2.16395,-0.12374 2.17195,-0.13074 0.0195,-0.0193 0.0441,-0.52965 0.0615,-1.28261 z m -0.55603,0.72346 c 0.0163,0.0103 0.0235,0.0545 0.0155,0.0977 -0.008,0.0432 -0.0166,0.21344 -0.0186,0.37827 l -0.003,0.29972 -0.32607,0.0243 c -0.1793,0.0133 -1.00392,0.0456 -1.83244,0.0718 -0.82852,0.0262 -1.92423,0.0607 -2.43498,0.0765 l -0.92862,0.0289 -0.032,-0.34055 c -0.0177,-0.18729 -0.0186,-0.36283 -0.002,-0.38963 0.0175,-0.0284 0.18404,-0.0488 0.39842,-0.0496 0.20258,-5.3e-4 1.44079,-0.0495 2.75124,-0.10852 1.31048,-0.0591 2.39607,-0.0992 2.41277,-0.0889 z m -14.344801,0.6811 -0.02636,0.75912 c -0.07554,2.17246 -0.13322,3.97593 -0.319359,9.97764 -0.11199,3.61085 -0.228065,7.37453 -0.257864,8.36379 l -0.05426,1.79833 -5.081322,0.0279 c -2.794699,0.0153 -8.133665,0.0421 -11.864339,0.0594 l -6.783018,0.0315 0.0155,-10.27426 c 0.0086,-5.65081 0.03101,-10.28977 0.04961,-10.30837 0.0186,-0.0186 0.999859,-0.0494 2.180734,-0.0687 1.180875,-0.0193 3.452003,-0.0566 5.047214,-0.0827 1.595203,-0.026 3.305115,-0.0565 3.799751,-0.0682 0.494639,-0.0117 1.769425,-0.0327 2.832889,-0.0465 1.063478,-0.0138 3.026476,-0.0441 4.361989,-0.0672 1.335523,-0.0231 3.253831,-0.0552 4.263286,-0.0718 z m -25.239174,1.14617 c 0.0584,-0.0224 0.06289,0.25126 0.03669,2.24172 -0.01641,1.24698 -0.02994,5.51 -0.02997,9.47328 -1.04e-4,4.14016 -0.01699,7.20625 -0.03979,7.20625 -0.02183,0 -0.27375,-0.24346 -0.560169,-0.54054 -0.964457,-1.00034 -2.205313,-2.64886 -2.55332,-3.39254 -0.140142,-0.29955 -0.142433,-0.31427 -0.176733,-1.25418 -0.0191,-0.52301 -0.04688,-2.29668 -0.06149,-3.94135 -0.01461,-1.64467 -0.03789,-3.97174 -0.05219,-5.17123 l -0.02584,-2.18074 0.50281,-0.35966 c 0.276768,-0.19787 0.559149,-0.40009 0.62735,-0.44959 0.06819,-0.0495 0.233195,-0.1661 0.366383,-0.2589 0.13318,-0.0927 0.373572,-0.26228 0.534334,-0.37671 1.110433,-0.79043 1.373152,-0.97321 1.431945,-0.99581 z m 2.06395,0.37827 v 18.10735 h 21.314364 v -18.10735 z m 20.993971,0.31316 -0.03152,1.54512 c -0.01741,0.84997 -0.05997,2.66847 -0.09457,4.04108 -0.0346,1.37261 -0.105782,4.40814 -0.157611,6.7453 -0.02236,1.00828 -0.04376,1.87965 -0.06305,2.636 L 69.32027,228.3676 c 0.02918,-1.20133 0.07629,-3.28518 0.148827,-6.90342 0.0895,-4.4641 0.171844,-8.1267 0.182932,-8.139 0.01109,-0.0123 1.530865,-0.036 3.377558,-0.0527 7.775511,-0.0701 13.504918,-0.12811 15.2698,-0.15451 z m 17.210244,0.28784 c 0.0162,0 0.0289,0.82979 0.0289,1.84381 0,1.74086 -0.004,1.84329 -0.0801,1.84329 -0.0796,0 -1.40866,0.0749 -5.15832,0.29093 -1.06346,0.0613 -2.02756,0.11916 -2.14249,0.12816 l -0.209294,0.0165 -0.02584,-0.31885 c -0.01439,-0.17543 -0.03961,-0.97931 -0.05581,-1.78644 l -0.02946,-1.46761 0.309534,-0.0289 c 0.17026,-0.0159 1.47334,-0.10903 2.89542,-0.20723 1.42207,-0.0983 3.002,-0.20887 3.5114,-0.24598 0.5094,-0.0371 0.93981,-0.0677 0.95601,-0.0677 z m -33.788485,1.71152 -1.890315,0.0481 -0.06563,1.89135 1.890315,-0.0481 z m 4.152183,0.0362 -1.889799,0.0481 -0.06563,1.89135 1.889799,-0.0481 z m 9.527024,2.97086 -12.662219,0.32143 -0.284219,8.18138 12.662218,-0.32143 z M 62.29903,218.2422 c 0.01021,0.0102 0.03282,1.59116 0.05013,3.51295 0.0278,3.09212 0.02363,3.49382 -0.03617,3.49382 -0.160308,0 -0.628817,-0.28735 -0.825785,-0.50642 -0.494218,-0.54969 -0.530847,-0.78939 -0.53485,-3.50365 l -0.0026,-1.96473 0.157096,-0.14211 c 0.23596,-0.21327 1.170869,-0.91116 1.19217,-0.88986 z m 45.0048,0.0413 c 0.008,0.0102 -0.0105,0.57457 -0.0424,1.2547 -0.0319,0.68013 -0.06,1.4246 -0.061,1.65415 -0.002,0.29083 -0.0192,0.42372 -0.0584,0.43822 -0.0309,0.0114 -0.7041,0.0711 -1.49551,0.1328 -0.79142,0.0617 -2.33901,0.18261 -3.43957,0.26872 h -5.2e-4 c -1.10057,0.0861 -2.09971,0.16802 -2.220525,0.18242 l -0.219624,0.0264 0.02067,-1.66552 c 0.01151,-0.91623 0.03402,-1.6794 0.05012,-1.6955 0.03336,-0.0334 0.193339,-0.0473 2.976549,-0.26303 1.11293,-0.0863 2.5753,-0.20054 3.2494,-0.25424 0.67408,-0.0537 1.23274,-0.0893 1.24074,-0.0791 z m -20.41003,0.17725 -0.03514,1.01699 -1.015437,0.0258 0.03514,-1.01699 z m -1.381822,0.0351 -0.03514,1.01699 -1.015953,0.0258 0.03514,-1.01699 z m -1.38182,0.0351 -0.03514,1.01699 -1.015953,0.0258 0.03514,-1.01698 z m -10.682504,1.09812 -1.890318,0.0481 -0.06615,1.89135 1.890833,-0.0481 z m 13.023434,0.14159 -0.200503,5.76965 -11.150174,0.28319 0.200503,-5.76965 z m 20.338722,4.58782 c -0.003,-0.007 -1.36941,0.10918 -3.03546,0.25889 -3.95971,0.35586 -4.358213,0.39464 -4.390412,0.42685 -0.0149,0.0149 -0.03614,0.76486 -0.04703,1.66707 l -0.01964,1.64072 0.12919,-0.0227 c 0.07122,-0.0124 0.362573,-0.0519 0.646982,-0.0879 0.28442,-0.0359 1.5286,-0.19932 2.76519,-0.36328 1.2366,-0.16396 2.60925,-0.34526 3.04994,-0.40256 0.44067,-0.0574 0.81456,-0.11806 0.83146,-0.13487 0.0246,-0.0245 0.0926,-2.93314 0.0698,-2.98223 z m -0.5426,0.56326 -0.0243,0.30076 c -0.0133,0.16565 -0.0364,0.31334 -0.0512,0.32815 -0.0148,0.0148 -1.09446,0.1351 -2.39933,0.26664 -1.30465,0.13151 -2.67609,0.26985 -3.04734,0.30748 -0.37067,0.0377 -0.70232,0.0681 -0.73639,0.0682 -0.0487,1.2e-4 -0.0552,-0.0501 -0.031,-0.23564 0.04842,-0.37122 0.07391,-0.4379 0.17673,-0.4594 0.0529,-0.0111 0.99696,-0.10284 2.09754,-0.20412 1.10056,-0.10129 2.28407,-0.21262 2.63032,-0.24702 0.34624,-0.0344 0.79945,-0.0768 1.00716,-0.094 z m -0.10491,1.2268 c 0.0854,0 0.0915,0.0275 0.0915,0.44958 0,0.33093 -0.0147,0.44958 -0.0563,0.44958 -0.0311,0 -0.31941,0.0315 -0.64078,0.0693 -0.32136,0.0379 -1.62638,0.18901 -2.90007,0.3359 -1.27368,0.14689 -2.39924,0.27828 -2.50164,0.29248 l -0.186556,0.0258 -0.03204,-0.40927 c -0.01799,-0.22508 -0.02229,-0.42004 -0.0093,-0.43305 0.01307,-0.013 0.101566,-0.0327 0.196366,-0.0439 0.0948,-0.0111 1.47151,-0.1813 3.05975,-0.37828 1.58822,-0.19698 2.92894,-0.35811 2.97913,-0.35811 z m -16.336908,2.3771 c -0.02,0.75549 -0.03596,1.28032 -0.04186,1.32912 l -0.02222,0.18396 -2.077902,0.0305 c -1.142915,0.0168 -3.76758,0.0604 -5.832692,0.0966 -2.065111,0.0362 -4.938298,0.0856 -6.38511,0.11007 -0.414489,0.007 -0.798192,0.0137 -1.265034,0.0217 v -1.53582 z m -15.925573,0.24082 v 1.53633 c -1.055672,0.018 -2.21633,0.0377 -2.849941,0.0486 l -1.784897,0.0305 0.02067,-0.40049 c 0.0016,-0.0296 0.02092,-0.99256 0.02481,-1.14566 z m 8.948769,4.75111 0.245977,0.39635 c 0.13549,0.21785 0.496184,0.77672 0.800983,1.24178 0.304788,0.46506 0.564089,0.87108 0.576188,0.90278 0.01691,0.0441 -0.153611,0.07 -0.729151,0.11111 -1.534114,0.1095 -2.95425,0.18667 -4.244165,0.23047 -1.443933,0.049 -2.798303,0.0494 -3.57496,0.001 -0.361438,-0.0225 -0.555043,-0.0575 -0.719333,-0.13023 -0.595116,-0.2633 -0.904863,-0.87997 -0.954458,-1.90116 l -0.02532,-0.52452 0.197405,-0.0243 c 0.108659,-0.0133 1.806181,-0.0762 3.772362,-0.14004 1.966192,-0.064 3.818201,-0.12724 4.114975,-0.14004 z m -12.245711,0.1235 c 0.01206,-0.001 0.02379,5.4e-4 0.03617,0.004 0.07508,0.0196 0.04795,0.0784 -0.220656,0.47852 -0.672817,1.00227 -1.129962,1.95615 -1.436599,2.99722 -0.224369,0.7619 -0.291625,1.23861 -0.291453,2.0686 2.46e-4,1.11957 0.180304,1.98292 0.574122,2.75382 0.110539,0.2164 0.192166,0.39377 0.180865,0.39377 -0.02828,0 -0.302364,-0.43332 -0.412375,-0.65215 -0.368629,-0.73323 -0.596344,-1.99184 -0.596344,-3.29384 0,-0.62035 0.0099,-0.69821 0.140043,-1.11466 0.229718,-0.73494 0.76713,-1.7925 1.496027,-2.94347 0.350661,-0.55373 0.445649,-0.68466 0.530196,-0.69143 z m 39.204153,1.93528 c 0.0186,-0.0206 0.15901,0.11115 0.31212,0.29248 0.69319,0.82098 1.14658,1.72227 1.30431,2.59208 0.0269,0.14817 0.0781,0.89379 0.1142,1.65674 0.0398,0.84071 0.0921,1.49577 0.1323,1.66294 0.068,0.28269 0.22783,0.66352 0.36896,0.88005 0.0437,0.067 0.0698,0.13122 0.0584,0.14262 -0.0113,0.0114 -0.0735,0.0338 -0.1385,0.0501 -0.10696,0.0268 -0.13349,0.005 -0.2775,-0.23203 -0.39941,-0.65794 -0.46967,-1.0015 -0.54777,-2.66804 -0.0589,-1.25627 -0.0746,-1.40378 -0.18396,-1.75389 -0.1972,-0.63133 -0.59912,-1.33447 -1.08882,-1.90427 l -0.22582,-0.26251 0.0687,-0.20929 c 0.038,-0.1151 0.0848,-0.22642 0.10335,-0.24701 z m -6.2368,0.0264 c 0.10476,-0.003 0.21251,-0.002 0.32297,0.005 0.77218,0.0448 1.33348,0.26291 1.7849,0.69349 0.14354,0.13692 0.26096,0.2629 0.26096,0.2806 0,0.0176 -0.18722,-0.0188 -0.41599,-0.0811 -0.35698,-0.0972 -0.51491,-0.11327 -1.11311,-0.11627 -0.51125,-0.002 -0.79863,0.018 -1.07899,0.0775 -0.62662,0.13304 -1.3364,0.3805 -1.93373,0.67438 -0.67693,0.33304 -0.62941,0.3122 -0.62941,0.2837 0,-0.0672 0.56779,-0.72346 0.82578,-0.95446 0.63835,-0.57157 1.24329,-0.83888 1.97662,-0.86247 z m -2.10064,6.37323 0.85214,1.23816 c 0.46852,0.68092 1.14517,1.66216 1.50378,2.18073 0.73867,1.06816 1.16889,1.69079 2.51663,3.64162 0.52103,0.7542 0.93202,1.37531 0.91312,1.38131 -0.019,0.006 -1.01587,0.11247 -2.21536,0.23719 -1.1995,0.12471 -2.35292,0.24595 -2.56314,0.26975 -0.21022,0.0238 -0.8782,0.0948 -1.48414,0.15761 -0.60593,0.0628 -2.06275,0.21561 -3.237516,0.33952 -1.174766,0.12391 -2.32818,0.2444 -2.56314,0.2682 -0.234949,0.0238 -0.497859,0.0536 -0.584456,0.0661 -0.154863,0.0226 -1.328065,0.14475 -2.6081,0.2713 -0.358618,0.0355 -1.13759,0.11525 -1.731151,0.17725 -2.423731,0.25326 -7.551502,0.79173 -8.13952,0.85473 -0.346246,0.0371 -1.114857,0.11805 -1.708415,0.18035 -0.593566,0.0622 -1.261551,0.13321 -1.484139,0.15761 -0.22259,0.0245 -0.627107,0.0661 -0.899167,0.0925 -0.272048,0.0263 -0.546478,0.0578 -0.609779,0.0698 -0.07565,0.0144 -0.138885,-0.006 -0.184483,-0.0584 -0.0572,-0.0662 -3.538564,-4.85655 -5.336085,-7.34267 -0.25928,-0.35862 -0.545751,-0.75277 -0.63665,-0.87643 -0.603698,-0.8212 -1.034559,-1.41807 -1.034559,-1.43247 0,-0.009 0.257759,-0.0308 0.57309,-0.0475 0.315329,-0.0167 1.220843,-0.0695 2.012272,-0.11782 0.791415,-0.0483 2.490956,-0.14918 3.777013,-0.22427 1.286062,-0.0751 3.511992,-0.20616 4.946445,-0.29146 1.434443,-0.0853 2.962317,-0.17614 3.395126,-0.20154 1.283835,-0.0754 8.209153,-0.48515 10.634962,-0.62941 1.236596,-0.0735 2.612513,-0.15443 3.05768,-0.17983 1.403682,-0.08 2.284252,-0.13465 2.565722,-0.15865 z m 0.24908,0.91621 -0.37414,0.016 c -2.307158,0.10142 -3.063021,0.14789 -3.114522,0.19069 -0.0326,0.0271 -0.113199,0.12647 -0.1788,0.22117 l -0.119371,0.1726 1.833988,3.21943 c 1.652155,2.90057 1.844855,3.21949 1.946125,3.22149 0.0618,0.001 0.40619,-0.0276 0.76481,-0.0636 0.35861,-0.036 1.09714,-0.10691 1.64123,-0.15761 0.5441,-0.0508 1.06679,-0.10426 1.16168,-0.11886 l 0.1726,-0.0264 -0.031,-0.27647 c -0.0729,-0.65524 -0.12624,-0.80037 -0.52607,-1.42885 -0.21044,-0.3308 -0.95509,-1.50184 -1.65467,-2.60241 -0.69956,-1.10056 -1.32801,-2.08357 -1.3968,-2.18435 z m 12.77539,0.0847 c 0.12119,1e-5 0.2258,0.008 0.29248,0.0274 0.0721,0.0208 0.23921,0.26233 0.57568,0.83302 0.26061,0.442 0.46743,0.80842 0.46043,0.81442 -0.007,0.006 -0.24629,0.0873 -0.53071,0.18086 -0.28442,0.0936 -0.53908,0.17862 -0.56637,0.18862 -0.0563,0.0206 -0.0413,0.0423 -0.72605,-1.0392 -0.28044,-0.44292 -0.49399,-0.82116 -0.47439,-0.84026 0.0917,-0.0894 0.60534,-0.16489 0.96893,-0.16485 z m -17.389558,0.0212 -0.607714,0.0274 c -0.334268,0.0153 -1.244036,0.0609 -2.021571,0.10129 l -1.413861,0.0734 -0.0925,0.11627 c -0.05099,0.0638 -0.14497,0.18828 -0.208774,0.27647 l -0.11627,0.1602 0.734834,1.28519 0.734838,1.28518 0.235642,-0.0139 c 0.1297,-0.008 0.852814,-0.0349 1.60713,-0.0605 0.754326,-0.0257 1.58677,-0.0584 1.849493,-0.0729 l 0.477486,-0.0264 0.02791,-0.23151 c 0.07064,-0.58796 0.07896,-0.56232 -0.589108,-1.78748 z m -5.041531,0.30541 -0.290421,0.0114 c -0.342629,0.0138 -2.557488,0.12814 -6.72049,0.34675 -1.657033,0.087 -4.176522,0.21879 -5.598598,0.29249 -1.422084,0.0737 -2.970178,0.15518 -3.440086,0.18138 -0.469909,0.0262 -1.397949,0.0766 -2.062397,0.11162 -0.664437,0.035 -1.21304,0.07 -1.219041,0.077 -0.0062,0.007 -0.07408,0.22488 -0.150378,0.48317 l -0.138493,0.46974 0.823203,1.1715 c 0.452747,0.64442 1.072589,1.52572 1.377687,1.95853 0.826287,1.17213 2.218307,3.15336 2.575024,3.66487 0.172471,0.24732 0.34514,0.486 0.383438,0.5302 0.04568,0.0526 0.108884,0.0727 0.184485,0.0584 0.06333,-0.012 0.236603,-0.033 0.384986,-0.047 0.772349,-0.0729 3.998222,-0.39523 8.99321,-0.89865 7.257978,-0.73152 7.717425,-0.77731 8.11678,-0.8108 0.185493,-0.0156 0.395854,-0.0399 0.467154,-0.0537 l 0.12919,-0.0248 -0.02325,-0.37827 c -0.02339,-0.37501 -0.02744,-0.38529 -0.406176,-1.06349 -0.210258,-0.37651 -0.432208,-0.77548 -0.493506,-0.88677 -0.137451,-0.24961 -1.506505,-2.70905 -2.302693,-4.13667 z m 20.675129,0.12299 c 0.0491,-0.002 0.0738,0.0109 0.0987,0.0382 0.16296,0.17882 1.06793,1.67076 1.03353,1.70376 -0.0218,0.0209 -0.23917,0.12117 -0.48318,0.22221 -0.244,0.10099 -0.45662,0.1832 -0.47232,0.18293 -0.0232,-5.3e-4 -0.79458,-1.14646 -1.09553,-1.6278 l -0.0775,-0.12454 0.23151,-0.13229 c 0.12757,-0.0729 0.3612,-0.16762 0.51883,-0.21032 0.12319,-0.0334 0.19688,-0.0502 0.24598,-0.0522 z m -15.904898,0.11782 0.397905,0.74827 c 0.218709,0.4117 0.389396,0.75677 0.379305,0.76687 -0.01008,0.0101 -0.649555,0.0793 -1.420581,0.154 -0.771025,0.0747 -1.41728,0.136 -1.436081,0.13591 -0.01878,-1e-4 -0.114172,-0.15636 -0.211872,-0.34675 -0.09775,-0.19039 -0.285299,-0.54697 -0.417026,-0.79271 -0.131683,-0.24573 -0.233851,-0.45237 -0.226861,-0.45837 0.0069,-0.007 0.528431,-0.0448 1.159097,-0.0847 0.630669,-0.0399 1.288275,-0.0839 1.461404,-0.0977 z m 4.721658,0.007 0.0672,0.094 c 0.0611,0.0851 0.93631,1.48324 2.42517,3.8752 0.3047,0.48952 0.54243,0.90192 0.52813,0.91622 -0.0143,0.0143 -0.54797,0.0835 -1.18597,0.154 -0.638,0.0705 -1.19386,0.1289 -1.23506,0.1297 -0.0522,0.001 -0.2103,-0.26073 -0.52245,-0.86454 -0.80445,-1.55605 -1.633283,-3.1499 -1.882561,-3.61992 -0.13444,-0.2535 -0.228375,-0.46092 -0.208772,-0.46095 0.01958,-4e-5 0.480633,-0.0501 1.024733,-0.11162 z m 14.49465,0.11162 0.17208,0.1819 c 0.88169,0.93156 1.59592,2.11911 1.77405,2.94968 0.0821,0.38277 0.0322,0.92707 -0.11214,1.22214 -0.22348,0.45676 -0.85471,0.92469 -1.4676,1.08779 -0.62116,0.1653 -1.38626,0.0266 -2.03915,-0.37 -0.94577,-0.57447 -1.91528,-1.72241 -2.58897,-3.06492 -0.26486,-0.52779 -0.50926,-1.21944 -0.48886,-1.38286 0.0111,-0.0884 0.15542,0.10444 0.70331,0.93689 0.37923,0.5762 0.70489,1.07411 0.72398,1.10691 0.0269,0.0461 0.48542,-0.0997 2.03088,-0.64647 1.09795,-0.38847 2.00328,-0.71285 2.01227,-0.71985 0.009,-0.007 -0.0943,-0.20207 -0.22841,-0.43253 -0.13404,-0.23046 -0.29921,-0.52022 -0.36742,-0.64389 z m -24.254738,0.4501 0.376717,0.67438 c 0.20698,0.37082 0.741203,1.33199 1.187522,2.13578 0.446326,0.80378 0.980848,1.7621 1.187518,2.13009 0.206658,0.36801 0.375686,0.68536 0.375686,0.70486 0,0.0515 -0.15948,0.0762 -0.989601,0.15348 -1.229899,0.11456 -12.550919,1.19106 -12.792959,1.21646 -0.123658,0.013 -0.68014,0.0648 -1.236612,0.11523 -0.556467,0.0504 -1.167908,0.10676 -1.359082,0.12506 l -0.347783,0.0331 -1.006653,-1.44125 c -0.553757,-0.79259 -1.525887,-2.18358 -2.160064,-3.09126 -0.634166,-0.9077 -1.165066,-1.68149 -1.179767,-1.71979 -0.02151,-0.056 0.0098,-0.0698 0.160713,-0.0698 0.103168,0 1.44582,-0.0702 2.983783,-0.15606 1.537963,-0.0859 4.283616,-0.23773 6.101409,-0.33693 1.817794,-0.0992 3.649062,-0.2002 4.069501,-0.2248 0.420437,-0.0246 1.158971,-0.0661 1.641235,-0.092 0.482278,-0.0259 1.201087,-0.0662 1.596796,-0.0894 0.395709,-0.0232 0.870785,-0.0478 1.055746,-0.0548 z m -21.913294,0.76533 c 0.01138,-0.0114 0.356154,0.42888 0.766357,0.97823 0.77698,1.04049 2.772974,3.72065 3.925843,5.27097 0.367828,0.49464 0.929747,1.24838 1.248497,1.67534 0.368389,0.49346 0.574337,0.8078 0.565336,0.86299 -0.01069,0.065 -0.166478,-0.084 -0.621147,-0.59479 -0.333878,-0.37507 -0.810319,-0.90548 -1.058328,-1.17822 -0.248009,-0.27273 -0.793794,-0.88039 -1.212842,-1.3503 -0.419037,-0.4699 -0.772495,-0.86402 -0.785994,-0.87642 -0.01352,-0.0124 -0.378334,-0.41742 -0.810283,-0.89969 -0.431949,-0.48227 -0.796048,-0.88676 -0.809248,-0.89916 -0.01323,-0.0124 -0.268874,-0.29554 -0.567923,-0.62942 l -0.543632,-0.60719 -0.05891,-0.86558 c -0.032,-0.47616 -0.04913,-0.87535 -0.03772,-0.88676 z m 28.225541,2.15696 c -0.01754,-0.0175 -1.523818,0.14397 -1.542019,0.16536 -0.04717,0.0553 -0.203604,0.46949 -0.203604,0.53899 0,0.0473 0.03945,0.16348 0.08785,0.25838 l 0.08785,0.1726 -0.166396,0.0279 c -0.09168,0.0152 -0.269617,0.0276 -0.395323,0.0279 l -0.228927,5.1e-4 -0.07958,0.32608 -0.07958,0.32608 0.397908,0.68936 0.398423,0.68936 0.26975,-0.0258 c 0.148388,-0.0145 0.967823,-0.0772 1.821069,-0.13901 0.853245,-0.0618 1.65764,-0.12377 1.78748,-0.13797 l 0.23616,-0.0258 v -0.37724 -0.37723 l -0.44028,-0.62012 -0.440284,-0.62011 -0.492474,-0.0222 -0.492472,-0.0227 -0.255282,-0.41961 c -0.140258,-0.23083 -0.262267,-0.4266 -0.270266,-0.4346 z m -0.313675,0.50591 0.223241,0.44442 0.223241,0.44493 0.3607,-0.0165 0.360699,-0.0165 0.181385,0.28577 c 0.09985,0.15709 0.167679,0.29805 0.150378,0.31315 -0.0173,0.0152 -0.527331,0.0811 -1.133259,0.14676 v 5.2e-4 c -0.605927,0.0657 -1.142153,0.11887 -1.191654,0.11834 -0.06085,-5.3e-4 -0.131473,-0.0747 -0.218074,-0.22893 -0.07042,-0.12536 -0.120104,-0.23543 -0.111103,-0.24442 0.0092,-0.009 0.238283,-0.0397 0.509011,-0.0672 0.270739,-0.0276 0.498425,-0.0561 0.506426,-0.0641 0.0077,-0.008 -0.0602,-0.2396 -0.150894,-0.51573 -0.09074,-0.27613 -0.155577,-0.51156 -0.144176,-0.52296 0.01146,-0.0115 0.113636,-0.0335 0.227374,-0.0491 z m 12.398676,3.29798 a 16.819864,16.819864 0 0 1 0.46043,0.64388 v -0.0496 l -0.41651,-0.59427 z"
       id="path8446"
       inkscape:connector-curvature="0" />
  </g>
</svg>
